<svg width="87" height="32" viewBox="0 0 87 32" fill="none" xmlns="http://www.w3.org/2000/svg">
<path d="M35.0282 0H33.2404H29.9304V3.5752H33.2404V31.559H36.8156V0H35.0282Z" fill="#121212"/>
<path d="M62.2825 20.5686C62.2825 13.0208 58.0894 8.5188 51.6453 8.5188C45.2012 8.5188 40.9639 12.8003 40.9639 20.3475C40.9639 27.8948 45.157 32 51.6453 32C56.7652 32 60.6051 29.0427 61.6646 24.938H57.692C56.8094 26.8359 54.9994 28.5132 51.6453 28.5132C47.3195 28.5132 45.1127 25.7764 44.6717 21.8486H62.283V20.5686H62.2825ZM44.7154 18.4502C45.2448 14.6545 47.5401 11.9619 51.6453 11.9619C55.7505 11.9619 57.9131 14.6103 58.4425 18.4502H44.7154Z" fill="#121212"/>
<path d="M76.3628 8.5188C69.8745 8.5188 65.6814 12.8003 65.6814 20.3475C65.6814 27.8948 69.8745 32 76.3628 32C82.8511 32 87 28.0274 87 20.3475C87 12.6677 82.8069 8.5188 76.3628 8.5188ZM76.3628 28.6016C71.7281 28.6016 69.2124 24.9822 69.2124 20.3039C69.2124 15.6255 71.7281 11.8735 76.3628 11.8735C80.9975 11.8735 83.469 15.5371 83.469 20.3039C83.469 25.0706 81.0417 28.6016 76.3628 28.6016Z" fill="#121212"/>
<path d="M19.1612 0H15.6825H11.8781L5.5564 18.4497H9.40658L14.5265 3.3989H16.3801L21.5001 18.4497H14.4424H9.40658L8.21448 21.8486H15.5903H22.6479L25.9584 31.559H29.9304L19.1612 0Z" fill="#121212"/>
<path d="M1.0647 31.559H4.90463L8.21457 21.8486H4.39189L1.0647 31.559Z" fill="#121212"/>
<path d="M1.74077 18.4497L0.576172 21.8486H4.39184L5.55644 18.4497H1.74077Z" fill="#121212"/>
</svg>
