<svg width="128" height="81" viewBox="0 0 128 81" fill="none" xmlns="http://www.w3.org/2000/svg">
<path d="M0 52.648C0 46.0205 5.37258 40.6479 12 40.6479H40.6349V81.2829H0V52.648Z" fill="#DFEEFA"/>
<path d="M81.27 40.6479H121.905V81.2829H81.27V40.6479Z" fill="#DFEEFA"/>
<path fill-rule="evenodd" clip-rule="evenodd" d="M34.5396 46.7432V40.6479C37.9058 40.6478 40.6346 37.919 40.6347 34.5527H46.73V40.6479C46.73 40.6479 46.73 40.6479 46.7299 40.6479C43.3636 40.6479 40.6347 43.3768 40.6347 46.7431C40.6347 46.7432 40.6347 46.7432 40.6347 46.7432H34.5396Z" fill="#DFEEFA"/>
<path fill-rule="evenodd" clip-rule="evenodd" d="M115.81 46.7432V40.6479C119.176 40.6479 121.905 37.919 121.905 34.5527H128V40.6479C128 40.6479 128 40.6479 128 40.6479C124.634 40.6479 121.905 43.3768 121.905 46.7431C121.905 46.7432 121.905 46.7432 121.905 46.7432H115.81Z" fill="#DFEEFA"/>
<path fill-rule="evenodd" clip-rule="evenodd" d="M87.3652 75.1875V81.2828C83.999 81.2829 81.2702 84.0117 81.2701 87.3779H75.1748V81.2828C75.1748 81.2828 75.1748 81.2828 75.1748 81.2828C78.5412 81.2828 81.2701 78.5539 81.2701 75.1876C81.2701 75.1875 81.2701 75.1875 81.2701 75.1875H87.3652Z" fill="#DFEEFA"/>
<path fill-rule="evenodd" clip-rule="evenodd" d="M87.3652 46.7432V40.6479C83.999 40.6478 81.2701 37.919 81.2701 34.5527H75.1748V40.6479C75.1748 40.6479 75.1748 40.6479 75.1748 40.6479C78.5412 40.6479 81.2701 43.3768 81.2701 46.7431C81.2701 46.7432 81.2701 46.7432 81.2701 46.7432H87.3652Z" fill="#DFEEFA"/>
<path fill-rule="evenodd" clip-rule="evenodd" d="M34.5396 75.1875V81.2828C37.9058 81.2829 40.6346 84.0117 40.6347 87.3779H46.73V81.2828C46.73 81.2828 46.73 81.2828 46.7299 81.2828C43.3636 81.2828 40.6347 78.5539 40.6347 75.1876C40.6347 75.1875 40.6347 75.1875 40.6347 75.1875H34.5396Z" fill="#DFEEFA"/>
<path d="M40.6348 12.0264C40.6348 5.39896 46.0073 0.0263672 52.6348 0.0263672H69.2697C75.8971 0.0263672 81.2697 5.39895 81.2697 12.0264V40.6613H40.6348V12.0264Z" fill="#DFEEFA"/>
</svg>
