<svg width="128" height="81" viewBox="0 0 128 81" fill="none" xmlns="http://www.w3.org/2000/svg">
<rect x="6.09521" y="40.6479" width="40.6349" height="40.6349" fill="#DFEEFA"/>
<path d="M87.3652 40.6479H116C122.628 40.6479 128 46.0205 128 52.648V81.2829H87.3652V40.6479Z" fill="#DFEEFA"/>
<path fill-rule="evenodd" clip-rule="evenodd" d="M40.6348 46.7432V40.6479C44.001 40.6479 46.7299 37.919 46.7299 34.5527H52.8252V40.6479C52.8252 40.6479 52.8252 40.6479 52.8252 40.6479C49.4589 40.6479 46.7299 43.3768 46.7299 46.7431C46.7299 46.7432 46.7299 46.7432 46.7299 46.7432H40.6348Z" fill="#DFEEFA"/>
<path fill-rule="evenodd" clip-rule="evenodd" d="M93.4604 75.1875V81.2828H93.4603C90.0941 81.2828 87.3652 84.0117 87.3651 87.3779H81.27V81.2828C84.6362 81.2828 87.3651 78.5539 87.3651 75.1876C87.3651 75.1875 87.3651 75.1875 87.3651 75.1875H93.4604Z" fill="#DFEEFA"/>
<path fill-rule="evenodd" clip-rule="evenodd" d="M93.4604 46.7432V40.6479H93.4603C90.094 40.6479 87.3651 37.919 87.3651 34.5527H81.27V40.6479C84.6362 40.648 87.3651 43.3769 87.3651 46.7431C87.3651 46.7432 87.3651 46.7432 87.3651 46.7432H93.4604Z" fill="#DFEEFA"/>
<path fill-rule="evenodd" clip-rule="evenodd" d="M12.1904 46.7432V40.6479C8.82417 40.6479 6.09528 37.919 6.09524 34.5527H-4.76837e-05V40.6479C-3.24249e-05 40.6479 -1.62125e-05 40.6479 -9.53674e-07 40.6479C3.36631 40.6479 6.09524 43.3768 6.09524 46.7431C6.09524 46.7432 6.09524 46.7432 6.09524 46.7432H12.1904Z" fill="#DFEEFA"/>
<path fill-rule="evenodd" clip-rule="evenodd" d="M40.6348 75.1875V81.2828C44.001 81.2829 46.7298 84.0117 46.7299 87.3779H52.8252V81.2828C52.8252 81.2828 52.8252 81.2828 52.8252 81.2828C49.4589 81.2828 46.7299 78.5539 46.7299 75.1876C46.7299 75.1875 46.7299 75.1875 46.7299 75.1875H40.6348Z" fill="#DFEEFA"/>
<path d="M46.73 12.0264C46.73 5.39896 52.1026 0.0263672 58.73 0.0263672H75.3649C81.9923 0.0263672 87.3649 5.39895 87.3649 12.0264V40.6613H46.73V12.0264Z" fill="#DFEEFA"/>
</svg>
