<svg width="114" height="32" viewBox="0 0 114 32" fill="none" xmlns="http://www.w3.org/2000/svg">
<g clip-path="url(#clip0_1751_5837)">
<path d="M17.6988 31.9864C17.1095 31.9864 16.5247 31.8054 16.0714 31.398C15.6181 30.9907 15.3462 30.452 15.3008 29.8636L15.0288 27.7861C12.4948 27.062 11.0035 25.1655 10.5955 22.1873L8.28815 4.53069C7.78952 4.44017 7.29541 4.39491 6.79677 4.44017C6.07148 4.44017 5.30539 4.53069 4.62543 4.71174V31.4885H0.105957V9.94851C0.105957 7.01556 1.41602 4.98331 3.81401 4.12334V2.72475C3.81401 1.09986 4.80675 0.0588379 6.25734 0.0588379C7.70792 0.0588379 8.61 0.964071 8.83666 2.58897L9.01798 3.85177C11.6426 4.57595 13.1793 6.6942 13.6326 10.0843L15.7587 27.1072C17.0234 27.3335 18.338 27.3335 19.6027 27.1072L21.7287 10.0843C22.182 6.65346 23.7187 4.57595 26.3434 3.85177L26.5247 2.58897C26.7514 0.964071 27.6988 0.0588379 29.104 0.0588379C30.5501 0.0588379 31.5474 1.14059 31.5474 2.72475V4.12334C33.9453 4.98331 35.2554 7.05629 35.2554 9.94851V31.4885H30.7314V4.71174C30.0061 4.53069 29.2854 4.44017 28.5601 4.44017C28.0614 4.44017 27.5673 4.48543 27.0687 4.53069L24.7613 22.1873C24.3987 25.1202 22.862 27.062 20.328 27.7861L20.056 29.8636C20.0107 30.452 19.7387 31.0359 19.2854 31.398C18.8321 31.8054 18.2473 31.9864 17.658 31.9864H17.6988ZM15.8901 27.9672L16.1168 29.7731C16.1621 30.1805 16.3434 30.5426 16.6154 30.8096C16.9327 31.0812 17.2954 31.217 17.6988 31.1717C17.8801 31.1717 18.1068 31.1717 18.2881 31.0812C18.4694 31.0359 18.6508 30.9001 18.7868 30.7644C18.9227 30.6286 19.0587 30.4928 19.1494 30.3117C19.2401 30.1307 19.2854 29.9496 19.2854 29.7233L19.512 27.9174C18.2926 28.0984 17.0687 28.0984 15.8947 27.9174V27.9672H15.8901ZM31.5338 30.6738H34.4259V9.94851C34.4259 7.46365 33.4331 5.74823 31.5338 4.98331V30.7191V30.6738ZM0.967241 30.6738H3.85934V4.93805C1.95998 5.74823 0.967241 7.46817 0.967241 9.90325V30.6286V30.6738ZM9.19477 4.71174L11.4568 22.0515C11.7741 24.5816 12.9482 26.2065 14.9835 26.8809L12.9028 10.1748C12.5402 7.24186 11.3208 5.43592 9.19477 4.71174ZM26.2437 4.71174C24.163 5.43592 22.9436 7.24186 22.5356 10.1748L20.4549 26.8809C22.4903 26.1567 23.6643 24.5318 23.9817 22.0515L26.2437 4.71174ZM4.6753 3.8065C5.40059 3.62546 6.12135 3.53493 6.84664 3.53493C7.29994 3.53493 7.75325 3.53493 8.20203 3.62546L8.06603 2.63423C7.88471 1.41669 7.29541 0.783025 6.25734 0.783025C5.26459 0.783025 4.62996 1.50721 4.62996 2.67949V3.8065H4.6753ZM28.551 3.53946C29.2763 3.53946 29.997 3.62998 30.7223 3.81103V2.67949C30.7223 1.50721 30.0877 0.783025 29.095 0.783025C28.1022 0.783025 27.4676 1.41669 27.2863 2.63423L27.1503 3.62546C27.6036 3.5802 28.0569 3.53493 28.5057 3.53493H28.551V3.53946Z" fill="#2D2D2D"/>
<path d="M47.6807 31.4887H43.2473V0.556885H47.6807V31.4887ZM44.0633 30.674H46.8692V1.37159H44.0633V30.674Z" fill="#2D2D2D"/>
<path d="M76.3523 31.9865C74.4529 31.9865 73.9996 30.2258 73.8636 29.6374L73.5463 28.1936C70.6542 27.6957 68.9317 25.8445 68.2109 22.5495L64.0495 4.49005C63.5509 4.44479 63.1021 4.39953 62.6035 4.39953C61.7875 4.39953 61.0214 4.49005 60.2508 4.71636V31.4479H55.7268V9.76756C55.7268 6.96586 56.9915 5.02866 59.4349 4.12343V2.67958C59.4349 1.05469 60.4276 0.0136719 61.8782 0.0136719C63.1429 0.0136719 64.0495 0.828382 64.3215 2.13644L64.6842 3.76134C67.4901 4.25922 69.1628 6.06516 69.9743 9.40547L74.2263 27.4649C74.7249 27.5101 75.1737 27.5554 75.6723 27.5554C76.4883 27.5554 77.2544 27.4649 78.025 27.2838V0.556812H82.549V22.907C82.549 25.2108 81.1936 27.0168 78.8409 27.8722V29.2708C78.8409 30.941 77.8935 32.0272 76.3976 32.0272L76.3523 31.9865ZM74.3623 28.3248L74.6343 29.4971C74.9516 30.7147 75.4502 31.2125 76.3523 31.2125C77.3904 31.2125 77.9797 30.4884 77.9797 29.2708V28.0985C77.209 28.2796 76.3976 28.3701 75.627 28.3701C75.219 28.3701 74.811 28.3701 74.3623 28.3248ZM56.4974 30.6739H59.3895V5.02866C57.4448 5.84337 56.4974 7.46827 56.4974 9.81282V30.6739ZM64.8655 4.62131L68.9362 22.3684C69.5708 25.2108 70.9715 26.795 73.3242 27.3336L69.1628 9.58651C68.4829 6.69882 67.1728 5.16445 64.8655 4.62131ZM78.7911 1.32626V26.9715C80.6451 26.1568 81.6832 24.713 81.6832 22.8618V1.32626H78.7911ZM60.2508 3.85186C61.0214 3.67081 61.8329 3.53503 62.6035 3.58029C63.0115 3.58029 63.4194 3.58029 63.8682 3.62555L63.5509 2.31749C63.4149 1.77435 63.0523 0.828382 61.8782 0.828382C60.7041 0.828382 60.2508 1.77435 60.2508 2.72485V3.89712V3.85186Z" fill="#2D2D2D"/>
<path d="M113.433 31.4887H108.728L106.42 22.2779H93.3514L91.0894 31.4887H86.384L92.4447 9.13844C93.17 6.56305 94.7521 4.84763 97.1048 4.08271L97.5127 2.32203C97.7847 1.37606 98.2833 0.0634766 99.8654 0.0634766C101.493 0.0634766 101.991 1.32628 102.218 2.32203L102.626 4.08271C104.979 4.85216 106.561 6.61284 107.286 9.13844L113.392 31.4887H113.433ZM109.362 30.6739H112.39L106.556 9.31496C105.967 7.23745 104.702 5.74834 102.893 4.97889L106.511 19.2454H93.306L96.8781 4.97889C95.0694 5.74834 93.8047 7.23745 93.2154 9.31496L87.4266 30.6739H90.4547L92.7167 21.4632H107.005L109.362 30.6739ZM94.3033 18.4397H105.473L101.991 4.66659C100.591 4.30449 99.1446 4.30449 97.7394 4.66659L94.3033 18.4397ZM97.966 3.76135V3.80662C99.2308 3.53505 100.5 3.53505 101.765 3.80662V3.76135L101.447 2.45329C101.13 1.28102 100.677 0.828399 99.8654 0.828399C99.0041 0.828399 98.6007 1.28102 98.2834 2.45329L97.966 3.76135Z" fill="#2D2D2D"/>
</g>
<defs>
<clipPath id="clip0_1751_5837">
<rect width="113.327" height="32" fill="white" transform="translate(0.128662)"/>
</clipPath>
</defs>
</svg>
