<svg width="97" height="96" viewBox="0 0 97 96" fill="none" xmlns="http://www.w3.org/2000/svg">
<path d="M92.649 47.0308C91.9317 44.9215 90.6557 42.8899 88.9832 41.2487C88.9832 41.0932 88.9832 40.936 88.8246 40.7806C90.4178 41.4837 91.9335 42.5772 93.0491 43.9057C93.0491 41.6409 92.3318 39.3743 90.9765 37.5777C89.6212 35.781 87.7883 34.2971 85.7157 33.2813C86.9106 33.359 88.1073 33.594 89.2229 34.0621C90.3385 34.5303 91.3748 35.0779 92.3318 35.7033C91.7731 33.2035 90.4196 31.0165 88.4263 29.2976C86.5141 27.6564 84.0432 26.5628 81.493 26.3279C83.9639 25.8597 86.5934 26.3279 88.7453 27.6564C87.4693 25.3916 85.6364 23.5931 83.4052 22.2664C81.174 21.0157 78.6237 20.3125 75.9924 20.392H75.9131C78.384 19.8444 80.9343 19.8444 83.3259 20.392C81.7327 18.9081 79.8979 17.8145 77.9064 17.0319C75.9131 16.3288 73.7612 15.9384 71.6093 16.0161C72.7249 15.0781 74.0802 14.5322 75.5148 14.375C77.2684 14.14 79.022 14.5304 80.4567 15.4685C77.3477 12.2656 75.0372 11.0926 71.1317 11.3275C69.2195 11.5625 67.4659 12.1861 65.9502 13.2019C68.4211 10.6244 70.254 7.49928 71.1317 4.06145C70.7334 4.6091 69.5385 6.09306 69.2988 6.40575C67.7056 8.20239 65.633 9.53089 63.3206 10.234C61.0101 10.8594 59.7341 10.5467 57.3425 11.1721L57.1839 11.0166C61.0894 6.64071 65.7122 2.89195 70.8127 0C64.8345 1.56169 59.2565 4.45364 54.4733 8.35962C57.6615 5.23448 61.248 2.49976 65.2328 0.390421H64.6741C64.5155 0.390421 64.3551 0.468152 64.1154 0.545884C58.6167 2.18707 53.4352 4.92179 49.052 8.59282C46.2621 10.8576 43.7912 13.5146 41.6393 16.3271C41.4807 16.4825 40.7634 16.3271 40.6823 16.3271C39.965 15.6239 40.3633 13.6701 40.1236 14.14C39.5649 15.1558 38.7683 19.2967 38.0509 20.0776C35.261 22.9678 33.1884 24.7644 30.3192 27.6564C29.7605 28.204 29.7605 29.0626 29.6812 29.688L29.2036 32.2655L31.9142 30.0784C32.3125 29.7657 32.9505 29.2198 33.5074 28.8276C33.4281 27.8896 33.8264 27.4214 35.3403 27.1864C35.1006 27.8896 35.1006 28.6704 34.7023 29.0608C33.347 30.5448 31.5934 31.6383 29.7605 32.3414C29.2829 32.4969 28.8035 32.6541 28.4052 33.0445C27.1292 34.1381 25.9343 35.2316 24.6582 36.3251C23.3822 37.341 23.2236 37.106 22.8253 35.9347C22.746 35.7793 22.746 35.5443 22.8253 35.3871C21.3114 37.3409 21.3114 41.7151 22.8253 42.5754L23.7823 39.6852C24.9772 40.3884 24.8186 40.1534 24.022 40.7788C23.703 41.0915 23.4633 41.4042 23.3047 41.7946C23.2254 42.2627 23.384 42.8104 23.703 43.2008C24.1806 43.5135 24.66 43.7485 25.2169 43.9039C25.6946 43.2008 26.0136 42.4977 26.493 41.8723C26.9706 41.1692 27.45 40.5438 27.9276 39.9184C28.4052 39.3708 28.9639 38.9026 29.4415 38.3568L29.6001 38.5122C29.1225 39.0599 28.6431 39.6058 28.1655 40.2311C26.8895 42.1055 26.8102 41.6374 28.3241 43.1213C28.4034 43.1991 28.4827 43.2768 28.4827 43.3563C28.0844 43.3563 27.7654 43.2785 27.4464 43.1213C26.8084 42.6532 26.4894 43.1213 26.2515 43.5117C25.9324 43.9022 25.8532 44.4498 26.4912 44.7625C27.8465 45.4656 29.4397 45.6211 30.9554 45.3102C31.433 45.2324 31.9124 45.0752 32.39 44.842L31.752 44.3738C29.5208 42.6549 29.9984 41.0137 32.6279 39.8425C35.8954 38.2808 39.482 37.265 43.0685 36.7951C44.5031 36.5601 46.017 36.4046 47.5327 36.2474C47.5327 35.9347 47.3741 35.6998 47.293 35.5443C46.7343 34.2158 45.6998 34.1381 47.293 34.0603H49.7639C49.7639 34.0603 54.1471 34.2953 54.1471 34.2158V34.1381H54.3057V33.8254C54.3057 33.7477 54.2264 33.7477 54.2264 33.6699C53.4298 32.0287 53.1107 30.2321 53.2693 28.5132C53.3486 27.9655 53.428 27.3419 53.5091 26.7943C53.6677 26.1689 53.2693 26.1689 52.7917 26.2466C51.9951 26.4021 53.1107 25.7785 53.2693 25.6212V25.3863C53.3486 25.2308 53.3486 25.0736 53.2693 24.9181C52.871 23.98 52.552 23.0437 52.3934 22.0279C52.2348 21.4025 52.2348 20.7772 52.3934 20.2313C52.552 19.6059 52.871 19.1377 53.3505 18.6696C53.1108 19.2172 52.8728 19.6854 52.7124 20.3108C52.5538 21.717 52.9522 23.0455 53.8281 24.139C54.2264 24.6867 54.4661 25.3103 54.5454 25.9357C54.6247 26.5611 54.5454 27.2642 54.3057 27.8896C53.9867 28.8276 53.9867 29.9212 54.3057 30.8592C54.9437 30.5465 55.661 30.3116 56.3783 30.2339C59.8062 30.0784 63.2323 31.0924 66.0222 33.0463C69.9278 36.0937 72.5573 40.5474 73.435 45.3897C73.5936 46.0928 73.6747 46.7181 73.6747 47.4213V52.0304C75.5076 46.0928 75.1886 39.687 72.8781 33.8272C73.5954 35.2334 74.1541 36.7173 74.6317 38.2031C75.987 41.8759 76.3853 45.7818 75.9077 49.6101C75.4301 53.4384 74.0748 57.1111 71.9229 60.3918C66.3431 69.0641 57.6561 72.032 47.5327 72.032C53.9885 74.6095 61.2426 74.7667 67.857 72.4224C72.4798 70.8607 76.625 68.126 79.8925 64.4532C78.2182 69.0623 75.668 73.281 72.2401 76.7965C68.8122 80.3121 64.6687 83.0468 60.0459 84.9212C55.4231 86.7179 50.4812 87.5782 45.5394 87.3432C40.5976 87.1083 35.735 85.8593 31.2726 83.6704H31.3519C25.6135 80.858 20.7509 76.4821 17.4041 71.1699C13.9762 65.8577 12.2226 59.6851 12.1433 53.3571C12.064 47.0291 13.8176 40.8565 17.1644 35.4666C20.5112 30.0766 25.2151 25.7007 30.9536 22.8105C31.4312 18.5141 36.373 13.2796 42.5909 10.4672C34.3022 11.248 26.4912 14.3732 19.9543 19.4522C13.4193 24.5312 8.55673 31.2497 5.76681 38.9062C3.05619 46.5627 2.57858 54.9223 4.4908 62.8138C6.40301 70.7052 10.5482 77.9696 16.5264 83.674L16.6057 83.7517C22.2648 89.2211 29.1982 93.0494 36.9299 94.8461C44.6617 96.6427 52.7918 96.33 60.3631 93.9875C67.9345 91.5654 74.7092 87.1913 79.97 81.3314C85.2309 75.4716 88.657 68.285 90.0123 60.549C90.1709 60.2363 90.3313 60.0808 90.8882 60.314V57.0334L91.1279 56.9557L92.1642 58.5174C92.4039 56.4858 92.3228 54.3764 91.9245 52.3448C92.4832 52.9702 92.8004 53.4384 93.1194 53.8288C93.5177 51.564 93.3591 49.2197 92.6418 47.0326L92.649 47.0308Z" fill="url(#paint0_linear_7635_4963)"/>
<defs>
<linearGradient id="paint0_linear_7635_4963" x1="3.36618" y1="13.3468" x2="112.896" y2="94.7923" gradientUnits="userSpaceOnUse">
<stop stop-color="#EC4125"/>
<stop offset="1" stop-color="#EC4424"/>
</linearGradient>
</defs>
</svg>
