<svg width="118" height="40" viewBox="0 0 118 40" fill="none" xmlns="http://www.w3.org/2000/svg">
<path d="M20.6428 12.9874V10.0421C20.6428 9.50912 20.4745 9.00421 20.194 8.5554C19.9135 8.10659 19.4927 7.76999 18.9878 7.57363L0.58667 0V1.62693L16.9682 8.35905C17.1365 8.4432 17.2767 8.5554 17.3328 8.7237C17.3889 8.89201 17.3889 9.08836 17.3328 9.25666C17.3048 9.34081 17.2487 9.42496 17.1926 9.48107C17.1365 9.53717 17.0523 9.59327 16.9682 9.62132L0.58667 16.3815V23.0014L10.4604 18.9341L16.9401 21.5989C17.0243 21.6269 17.1084 21.683 17.1645 21.7391C17.2206 21.7952 17.2767 21.8794 17.3048 21.9635C17.3328 22.0477 17.3609 22.1318 17.3609 22.216C17.3609 22.3001 17.3328 22.3843 17.3048 22.4684C17.2767 22.5526 17.2206 22.6367 17.1645 22.6928C17.1084 22.7489 17.0243 22.805 16.9401 22.8331L0.58667 29.5652V40L18.9597 32.4544C19.4366 32.2581 19.8574 31.9215 20.1659 31.4727C20.4464 31.0238 20.6147 30.5189 20.6147 29.986V23.1978C20.6147 22.6648 20.4464 22.1599 20.1659 21.7111C19.8854 21.2623 19.4646 20.9257 18.9597 20.7293L12.452 18.0365L18.9597 15.3717C19.4646 15.1753 19.8854 14.8387 20.1659 14.4179C20.5025 14.0252 20.6428 13.5203 20.6428 12.9874Z" fill="#010202"/>
<path d="M39.4366 11.8655L40.6147 16.2694L41.7648 11.8655H42.8588L41.1477 17.8402H40.222L38.9037 13.0436L37.6414 17.8402H36.7157L35.0046 11.8655H36.0986L37.2487 16.2694L38.4268 11.8655H39.4366Z" fill="#010202"/>
<path d="M46.0286 17.0828C46.3652 17.1108 46.7018 17.0267 47.0103 16.8584C47.2908 16.6901 47.5433 16.4096 47.6555 16.101H48.6933C48.4128 17.1389 47.4591 17.9804 46.0286 17.9804C44.1492 17.9804 43.0833 16.634 43.0833 14.8668C43.0833 12.9874 44.3455 11.7812 45.9725 11.7812C47.7957 11.7812 48.8897 13.324 48.7494 15.2034H44.1772C44.1772 15.4559 44.2053 15.7083 44.2894 15.9327C44.3736 16.1571 44.5138 16.3815 44.6821 16.5498C44.8504 16.7181 45.0468 16.8584 45.2712 16.9706C45.5517 17.0547 45.8041 17.0828 46.0286 17.0828ZM47.7116 14.3058C47.6555 13.857 47.4591 13.4643 47.1506 13.1838C46.814 12.9033 46.3932 12.735 45.9725 12.735C45.5236 12.735 45.1029 12.9033 44.7943 13.1838C44.4577 13.4643 44.2614 13.885 44.2333 14.3058H47.7116Z" fill="#010202"/>
<path d="M50.8531 12.819C51.0494 12.4824 51.3299 12.2019 51.6946 12.0336C52.0312 11.8373 52.4239 11.7531 52.8166 11.7812C54.1911 11.7812 55.3692 12.9312 55.3692 14.8948C55.3692 16.8583 54.1911 18.0084 52.8166 18.0084C52.4239 18.0364 52.0312 17.9523 51.6946 17.7559C51.358 17.5596 51.0494 17.3071 50.8531 16.9705V17.8681H49.8433V9.81763H50.8531V12.819ZM54.2472 14.8667C54.2472 13.4361 53.574 12.6227 52.5361 12.6227C51.6385 12.6227 50.797 13.2959 50.797 14.8667C50.797 16.4375 51.6385 17.1108 52.5361 17.1108C53.574 17.1108 54.2472 16.2973 54.2472 14.8667Z" fill="#010202"/>
<path d="M58.4268 14.0533H58.2585V13.1277H58.3987C59.8013 13.1277 60.5306 12.735 60.5306 11.7813C60.5306 10.9117 59.8293 10.4629 58.9598 10.4629C58.7353 10.4348 58.5109 10.4629 58.3146 10.547C58.1182 10.6031 57.9219 10.7153 57.7536 10.8836C57.5853 11.0239 57.445 11.2202 57.3609 11.4166C57.2767 11.6129 57.2206 11.8374 57.2206 12.0618H56.1828C56.295 10.6312 57.3048 9.64941 59.0159 9.64941C60.4184 9.64941 61.6246 10.2104 61.6246 11.6971C61.6246 12.1179 61.5124 12.5106 61.2599 12.8472C61.0355 13.1838 60.6989 13.4362 60.3062 13.5765C61.5124 13.9411 61.849 14.7546 61.849 15.5961C61.849 17.2231 60.4745 18.0085 58.9317 18.0085C57.0523 18.0085 56.1828 16.8303 56.0706 15.4839H57.1084C57.2206 16.4657 57.8097 17.1669 58.9317 17.1669C59.9976 17.1669 60.755 16.6059 60.755 15.6242C60.755 14.418 59.7171 14.0533 58.4268 14.0533Z" fill="#010202"/>
<path d="M67.5713 9.78955H68.1042V10.6311H67.5993C67.0663 10.6311 66.9822 10.7433 66.9822 11.3604V11.8372H68.1042V12.6507H66.9822V17.812H65.9724V12.6507H65.1309V11.8372H65.9724V11.4165C65.9724 10.1823 66.2248 9.78955 67.5713 9.78955Z" fill="#010202"/>
<path d="M71.3301 17.9804C69.9557 17.9804 68.469 17.0267 68.469 14.8668C68.469 12.7069 69.9276 11.7812 71.3301 11.7812C72.7327 11.7812 74.1913 12.735 74.1913 14.8949C74.1913 17.0547 72.7046 17.9804 71.3301 17.9804ZM73.1254 14.8668C73.1254 13.2679 72.2558 12.6508 71.3301 12.6508C70.4045 12.6508 69.5349 13.2399 69.5349 14.8668C69.5349 16.4937 70.4045 17.0828 71.3301 17.0828C72.2278 17.0828 73.1254 16.4096 73.1254 14.8668Z" fill="#010202"/>
<path d="M77.1084 17.9805C75.7339 17.9805 75.2009 17.0548 75.2009 15.6803V11.8655H76.2107V15.3718C76.2107 16.2974 76.379 17.0828 77.473 17.0828C78.4267 17.0828 78.9877 16.4096 78.9877 15.1193V11.8374H79.9976V17.8122H78.9877V16.9426C78.7914 17.2792 78.5109 17.5317 78.2023 17.7C77.8657 17.9244 77.473 18.0085 77.1084 17.9805Z" fill="#010202"/>
<path d="M84.3455 11.7812C85.8041 11.7812 86.309 12.7068 86.309 14.0813V17.8681H85.2992V14.3899C85.2992 13.4642 85.1309 12.6788 83.9808 12.6788C82.9991 12.6788 82.41 13.352 82.41 14.6423V17.8962H81.4282V11.9214H82.438V12.819C82.6344 12.4824 82.9149 12.23 83.2515 12.0617C83.5881 11.8934 83.9808 11.7531 84.3455 11.7812Z" fill="#010202"/>
<path d="M92.8448 9.78952V17.84H91.835V16.9424C91.6386 17.279 91.3581 17.5595 90.9935 17.7278C90.6569 17.9242 90.2642 18.0083 89.8714 17.9803C88.497 17.9803 87.3188 16.8582 87.3188 14.8667C87.3188 12.9031 88.497 11.7531 89.8714 11.7531C90.2642 11.725 90.6569 11.8092 90.9935 12.0055C91.3301 12.2019 91.6386 12.4543 91.835 12.7909V9.76147L92.8448 9.78952ZM88.4128 14.8667C88.4128 16.2972 89.086 17.1107 90.1239 17.1107C91.0215 17.1107 91.863 16.4375 91.863 14.8667C91.863 13.2958 91.0215 12.6226 90.1239 12.6226C89.086 12.6226 88.4128 13.4641 88.4128 14.8667Z" fill="#010202"/>
<path d="M97.95 14.1655V14.0252C97.95 12.9313 97.3328 12.5666 96.6035 12.5666C95.762 12.5666 95.2852 13.0154 95.2291 13.7447H94.1912C94.3034 12.4544 95.4254 11.7251 96.6035 11.7251C98.2585 11.7251 98.9878 12.5105 98.9878 14.1935V15.568C98.9598 16.3254 99.0159 17.0827 99.1561 17.8121H98.1463C98.0902 17.5315 98.0902 17.251 98.0622 16.9986C97.6975 17.6157 97.0804 17.9523 96.0145 17.9523C94.8925 17.9523 93.9668 17.3352 93.9668 16.2412C93.8826 14.8667 95.4815 14.446 97.95 14.1655ZM95.0047 16.2412C95.0047 16.8022 95.4254 17.1949 96.1547 17.1949C97.1084 17.1949 98.0061 16.7742 98.0061 15.3436V14.979C96.1828 15.1473 95.0047 15.4278 95.0047 16.2412Z" fill="#010202"/>
<path d="M101.54 10.3787V11.8653H102.662V12.6788H101.54V16.2132C101.54 16.8303 101.597 16.9986 102.158 16.9986H102.662V17.8401H101.933C100.783 17.8401 100.531 17.5876 100.531 16.3534V12.6788H99.5769V11.8653H100.531V10.3787H101.54Z" fill="#010202"/>
<path d="M104.654 11.0238H103.644V9.78955H104.654V11.0238ZM104.654 17.84H103.644V11.8653H104.654V17.84Z" fill="#010202"/>
<path d="M108.581 17.9804C107.179 17.9804 105.72 17.0267 105.72 14.8668C105.72 12.7069 107.207 11.7532 108.581 11.7532C109.984 11.7532 111.442 12.7069 111.442 14.8668C111.442 17.0267 109.984 17.9804 108.581 17.9804ZM110.376 14.8668C110.376 13.2679 109.507 12.6508 108.581 12.6508C107.655 12.6508 106.786 13.2399 106.786 14.8668C106.786 16.4937 107.655 17.0828 108.581 17.0828C109.507 17.0828 110.376 16.4096 110.376 14.8668Z" fill="#010202"/>
<path d="M115.481 11.7811C116.94 11.7811 117.445 12.7067 117.445 14.0812V17.868H116.435V14.3898C116.435 13.4641 116.267 12.6787 115.117 12.6787C114.135 12.6787 113.546 13.3519 113.546 14.6422V17.8961H112.536V11.9213H113.546V12.8189C113.742 12.4823 114.023 12.2299 114.359 12.0335C114.696 11.8091 115.089 11.753 115.481 11.7811Z" fill="#010202"/>
<path d="M40.755 24.2357V29.397C40.755 30.6312 40.5306 31.108 40.194 31.5008C39.9135 31.7813 39.6049 31.9776 39.2403 32.1179C38.8756 32.2581 38.511 32.3142 38.1183 32.2862C36.7718 32.2862 35.8462 31.6691 35.6779 30.4629H36.7438C36.884 30.9958 37.1926 31.4166 38.1183 31.4166C38.3427 31.4447 38.5671 31.3886 38.7634 31.3325C38.9878 31.2483 39.1561 31.1361 39.3244 30.9678C39.5488 30.7434 39.7171 30.4629 39.7171 29.6494V29.0884C39.5208 29.425 39.2403 29.7055 38.9037 29.8738C38.5671 30.0702 38.1744 30.1263 37.8097 30.1263C36.4913 30.1263 35.2852 29.0604 35.2852 27.1529C35.2852 25.2455 36.4913 24.1796 37.8097 24.1796C38.2024 24.1515 38.5671 24.2357 38.9037 24.432C39.2403 24.6284 39.5208 24.8808 39.6891 25.2174V24.2637H40.755V24.2357ZM36.4072 27.1249C36.4072 28.4994 37.1084 29.2567 38.0902 29.2567C38.9878 29.2567 39.7732 28.6396 39.7732 27.1249C39.7732 25.6102 38.9878 24.993 38.0902 24.993C37.1084 24.993 36.4072 25.7504 36.4072 27.1249Z" fill="#010202"/>
<path d="M44.5698 25.2454C43.6441 25.2454 43.1673 25.7783 43.1673 27.0687V30.2103H42.1575V24.2356H43.1392V25.2734C43.2795 24.9368 43.5319 24.6844 43.8124 24.488C44.121 24.2917 44.4576 24.2075 44.8223 24.2075C44.9345 24.2075 45.0186 24.2075 45.1308 24.2075V25.2734C44.9625 25.2454 44.7662 25.2454 44.5698 25.2454Z" fill="#010202"/>
<path d="M49.5911 26.5358V26.3675C49.5911 25.2736 48.974 24.9089 48.2446 24.9089C47.4031 24.9089 46.9263 25.3577 46.8702 26.087H45.8323C45.9445 24.7967 47.0665 24.0674 48.2446 24.0674C49.8996 24.0674 50.6289 24.8528 50.6289 26.5358V27.9103C50.6009 28.6677 50.657 29.425 50.7972 30.1543H49.7874C49.7313 29.8738 49.7033 29.6214 49.7033 29.3409C49.3386 29.958 48.7215 30.2946 47.6556 30.2946C46.5336 30.2946 45.6079 29.6775 45.6079 28.5835C45.5518 27.209 47.1226 26.8163 49.5911 26.5358ZM46.6738 28.6116C46.6738 29.1726 47.0946 29.5653 47.8239 29.5653C48.7776 29.5653 49.6752 29.1445 49.6752 27.7139V27.3493C47.8239 27.5176 46.6738 27.77 46.6738 28.6116Z" fill="#010202"/>
<path d="M54.8926 24.1234C56.3231 24.1234 56.8561 25.0491 56.8561 26.4236V30.2104H55.8463V26.7321C55.8463 25.8065 55.678 25.021 54.5279 25.021C53.5461 25.021 52.9571 25.6943 52.9571 26.9846V30.2384H51.9473V24.2637H52.9571V25.1613C53.1534 24.8247 53.4339 24.5722 53.7705 24.3759C54.1072 24.1795 54.4999 24.0954 54.8926 24.1234Z" fill="#010202"/>
<path d="M59.4648 22.7209V24.2076H60.5868V25.0211H59.4648V28.5554C59.4648 29.1726 59.5209 29.3409 60.0819 29.3409H60.5868V30.1824H59.8575C58.7074 30.1824 58.4549 29.9299 58.4549 28.6957V25.0491H57.5012V24.2357H58.4549V22.7209H59.4648Z" fill="#010202"/>
<path d="M63.5881 24.9929C62.999 24.9929 62.3258 25.1892 62.3258 25.7502C62.3258 26.2271 62.6624 26.4515 63.2515 26.5637L64.093 26.732C65.187 26.9564 66.1407 27.3491 66.1407 28.4992C66.1407 29.6493 65.0748 30.3505 63.7003 30.3505C62.1295 30.3505 61.2319 29.3127 61.1477 28.2748H62.2136C62.2697 28.6394 62.438 28.9761 62.7185 29.2005C62.999 29.4249 63.3637 29.5371 63.7283 29.509C64.4857 29.509 65.1028 29.1724 65.1028 28.6114C65.1028 28.0504 64.5418 27.7418 63.8966 27.6296L62.999 27.4613C62.1856 27.293 61.316 26.9284 61.316 25.8063C61.316 24.7404 62.3819 24.1514 63.7003 24.1514C65.0187 24.1514 65.8602 24.8807 66.0565 26.0027H64.9906C64.8504 25.2734 64.2894 24.9929 63.5881 24.9929Z" fill="#010202"/>
<path d="M71.0215 25.1613C71.2179 24.8247 71.4984 24.5442 71.8631 24.3478C72.1997 24.1515 72.5924 24.0673 72.9851 24.0953C74.3595 24.0953 75.5377 25.2454 75.5377 27.209C75.5377 29.1725 74.3595 30.3226 72.9851 30.3226C72.5924 30.3506 72.1997 30.2665 71.8631 30.0701C71.5264 29.8738 71.2179 29.6213 71.0215 29.2566V32.0897H70.0117V24.1795H71.0215V25.1613ZM74.4156 27.237C74.4156 25.8064 73.7424 24.993 72.7046 24.993C71.807 24.993 70.9654 25.6662 70.9654 27.237C70.9654 28.8078 71.807 29.481 72.7046 29.481C73.7424 29.481 74.4156 28.6676 74.4156 27.237Z" fill="#010202"/>
<path d="M78.9878 25.2454C78.0621 25.2454 77.5853 25.7783 77.5853 27.0687V30.2103H76.5754V24.2356H77.5572V25.2734C77.6975 24.9368 77.9499 24.6844 78.2304 24.488C78.539 24.2917 78.8756 24.2075 79.2402 24.2075C79.3524 24.2075 79.4366 24.2075 79.5488 24.2075V25.2734C79.3805 25.2454 79.1841 25.2454 78.9878 25.2454Z" fill="#010202"/>
<path d="M82.8028 30.3507C81.4003 30.3507 79.9417 29.397 79.9417 27.2371C79.9417 25.0773 81.4283 24.1235 82.8028 24.1235C84.2053 24.1235 85.6639 25.0773 85.6639 27.2371C85.6639 29.397 84.2053 30.3507 82.8028 30.3507ZM84.598 27.2371C84.598 25.6383 83.7285 25.0211 82.8028 25.0211C81.9052 25.0211 81.0076 25.6102 81.0076 27.2371C81.0076 28.8641 81.8771 29.4531 82.8028 29.4531C83.7285 29.4531 84.598 28.7799 84.598 27.2371Z" fill="#010202"/>
<path d="M91.8351 24.2357V29.397C91.8351 30.6312 91.6107 31.108 91.2741 31.5008C90.9936 31.7813 90.685 31.9776 90.3204 32.1179C89.9557 32.2581 89.591 32.3142 89.1983 32.2862C87.8519 32.2862 86.9262 31.6691 86.7299 30.4629H87.8239C87.9641 30.9958 88.2727 31.4166 89.1983 31.4166C89.4227 31.4447 89.6471 31.3886 89.8435 31.3325C90.0679 31.2483 90.2362 31.1361 90.4045 30.9678C90.6289 30.7434 90.7972 30.4629 90.7972 29.6494V29.0884C90.6009 29.425 90.3204 29.7055 89.9837 29.8738C89.6471 30.0702 89.2544 30.1263 88.8898 30.1263C87.5714 30.1263 86.3652 29.0604 86.3652 27.1529C86.3652 25.2455 87.5714 24.1796 88.8898 24.1796C89.2825 24.1515 89.6471 24.2357 89.9837 24.432C90.3204 24.6284 90.6009 24.8808 90.7692 25.2455V24.2918H91.8351V24.2357ZM87.4873 27.1249C87.4873 28.4994 88.1885 29.2567 89.1703 29.2567C90.0679 29.2567 90.8533 28.6396 90.8533 27.1249C90.8533 25.6102 90.0679 24.993 89.1703 24.993C88.1885 24.993 87.4873 25.7504 87.4873 27.1249Z" fill="#010202"/>
<path d="M95.6499 25.2454C94.7242 25.2454 94.2474 25.7783 94.2474 27.0687V30.2103H93.2375V24.2356H94.2193V25.2734C94.3596 24.9368 94.612 24.6844 94.8925 24.488C95.2011 24.2917 95.5377 24.2075 95.9023 24.2075C96.0145 24.2075 96.0987 24.2075 96.2109 24.2075V25.2734C96.0426 25.2454 95.8462 25.2454 95.6499 25.2454Z" fill="#010202"/>
<path d="M100.671 26.5358V26.3675C100.671 25.2736 100.054 24.9089 99.3245 24.9089C98.483 24.9089 98.0061 25.3577 97.95 26.087H96.9121C97.0243 24.7967 98.1464 24.0674 99.3245 24.0674C100.979 24.0674 101.709 24.8528 101.709 26.5358V27.9103C101.681 28.6677 101.737 29.425 101.877 30.1543H100.867C100.811 29.8738 100.811 29.6214 100.783 29.3409C100.418 29.958 99.8013 30.2946 98.7354 30.2946C97.6134 30.2946 96.6877 29.6775 96.6877 28.5835C96.6316 27.209 98.2025 26.8163 100.671 26.5358ZM97.7256 28.6116C97.7256 29.1726 98.1464 29.5653 98.8757 29.5653C99.8294 29.5653 100.727 29.1445 100.727 27.7139V27.3493C98.9037 27.5176 97.7256 27.77 97.7256 28.6116Z" fill="#010202"/>
<path d="M103.027 30.2104V24.2356H104.037V25.1332C104.205 24.8247 104.486 24.5442 104.794 24.3759C105.103 24.2076 105.467 24.1234 105.832 24.1234C106.758 24.1234 107.291 24.5161 107.543 25.1893C107.768 24.8527 108.048 24.5722 108.413 24.3759C108.777 24.1795 109.17 24.0954 109.563 24.1234C110.965 24.1234 111.498 25.0491 111.498 26.4236V30.1823H110.489V26.7321C110.489 25.8065 110.32 25.021 109.226 25.021C108.357 25.021 107.768 25.6943 107.768 26.9846V30.2384H106.758V26.7602C106.758 25.8345 106.59 25.0491 105.496 25.0491C104.626 25.0491 104.065 25.7223 104.065 27.0126V30.2665H103.027V30.2104Z" fill="#010202"/>
</svg>
