<svg width="440" height="280" viewBox="0 0 440 280" fill="none" xmlns="http://www.w3.org/2000/svg">
<g filter="url(#filter0_b_6912_2970)">
<g clip-path="url(#clip0_6912_2970)">
<rect width="440" height="280" rx="16" fill="white" fill-opacity="0.3"/>
<mask id="path-3-inside-1_6912_2970" fill="white">
<path d="M0 0H190V280H0V0Z"/>
</mask>
<path d="M0 0H190V280H0V0Z" fill="white" fill-opacity="0.3"/>
<path d="M189 0V280H191V0H189Z" fill="white" mask="url(#path-3-inside-1_6912_2970)"/>
<mask id="path-5-inside-2_6912_2970" fill="white">
<path d="M0 0H190V56H0V0Z"/>
</mask>
<path d="M190 55H0V57H190V55Z" fill="white" mask="url(#path-5-inside-2_6912_2970)"/>
<g clip-path="url(#clip1_6912_2970)">
<path d="M32.6845 22.1123L18.4135 30.4283L23.3105 33.8724L37.5824 25.557L32.6845 22.1123Z" fill="#CA2128"/>
<path d="M18.4135 25.5571V30.4284L22.5933 27.9926L18.4135 25.5571Z" fill="#8A1A1C"/>
<path d="M33.402 27.9927C33.402 27.9927 37.6392 25.3013 37.5818 25.5572C37.5245 25.8128 37.5818 30.4285 37.5818 30.4285L33.402 27.993V27.9927Z" fill="#8A1A1C"/>
<path d="M22.5934 27.9926L22.085 28.2889L27.2615 31.5707L33.962 27.6393L28.3734 24.6245L22.5934 27.9926Z" fill="#8A1A1C"/>
<path d="M18.4135 25.557L32.6845 33.8724L37.5824 30.4283L23.3105 22.1123L18.4135 25.557Z" fill="#FD4A35"/>
</g>
<path d="M44.2416 31.8192L48.4032 26.808H44.4144V25.4544H50.4768V26.6352L46.344 31.6464H50.5488V33H44.2416V31.8192ZM57.0023 33L54.7991 29.7456L53.7767 30.7536V33H51.8471V22.488H53.7767V28.8528L56.8151 25.4688H58.8599L56.0519 28.6656L59.0615 33H57.0023ZM60.064 33V22.776H63.7792C64.8928 22.776 65.824 23.0064 66.5728 23.4672C67.3216 23.9184 67.8832 24.5328 68.2576 25.3104C68.632 26.0784 68.8192 26.9328 68.8192 27.8736C68.8192 28.9104 68.6128 29.8128 68.2 30.5808C67.7872 31.3488 67.2016 31.944 66.4432 32.3664C65.6944 32.7888 64.8064 33 63.7792 33H60.064ZM66.8176 27.8736C66.8176 27.2112 66.6976 26.6304 66.4576 26.1312C66.2176 25.6224 65.872 25.2288 65.4208 24.9504C64.9696 24.6624 64.4224 24.5184 63.7792 24.5184H62.0512V31.2576H63.7792C64.432 31.2576 64.984 31.1136 65.4352 30.8256C65.8864 30.528 66.2272 30.1248 66.4576 29.616C66.6976 29.0976 66.8176 28.5168 66.8176 27.8736ZM69.5678 30.768C69.5678 30.2784 69.7022 29.8512 69.971 29.4864C70.2494 29.112 70.6334 28.824 71.123 28.6224C71.6126 28.4208 72.1742 28.32 72.8078 28.32C73.1246 28.32 73.4462 28.344 73.7726 28.392C74.099 28.44 74.3822 28.5168 74.6222 28.6224V28.2192C74.6222 27.7392 74.4782 27.3696 74.1902 27.1104C73.9118 26.8512 73.4942 26.7216 72.9374 26.7216C72.5246 26.7216 72.131 26.7936 71.7566 26.9376C71.3822 27.0816 70.9886 27.2928 70.5758 27.5712L69.9566 26.304C70.4558 25.9776 70.9646 25.7328 71.483 25.5696C72.011 25.4064 72.563 25.3248 73.139 25.3248C74.2142 25.3248 75.0494 25.5936 75.6446 26.1312C76.2494 26.6688 76.5518 27.4368 76.5518 28.4352V30.84C76.5518 31.0416 76.5854 31.1856 76.6526 31.272C76.7294 31.3584 76.8494 31.4112 77.0126 31.4304V33C76.8398 33.0288 76.6814 33.0528 76.5374 33.072C76.403 33.0912 76.2878 33.1008 76.1918 33.1008C75.8078 33.1008 75.515 33.0144 75.3134 32.8416C75.1214 32.6688 75.0014 32.4576 74.9534 32.208L74.9102 31.8192C74.5838 32.2416 74.1758 32.568 73.6862 32.7984C73.1966 33.0288 72.6974 33.144 72.1886 33.144C71.6894 33.144 71.2382 33.0432 70.835 32.8416C70.4414 32.6304 70.1294 32.3472 69.899 31.992C69.6782 31.6272 69.5678 31.2192 69.5678 30.768ZM74.2622 31.1568C74.3678 31.0416 74.4542 30.9264 74.5214 30.8112C74.5886 30.696 74.6222 30.5904 74.6222 30.4944V29.7312C74.3918 29.6352 74.1422 29.5632 73.8734 29.5152C73.6046 29.4576 73.3502 29.4288 73.1102 29.4288C72.611 29.4288 72.1982 29.5392 71.8718 29.76C71.555 29.9712 71.3966 30.2544 71.3966 30.6096C71.3966 30.8016 71.4494 30.984 71.555 31.1568C71.6606 31.3296 71.8142 31.4688 72.0158 31.5744C72.2174 31.68 72.4574 31.7328 72.7358 31.7328C73.0238 31.7328 73.307 31.68 73.5854 31.5744C73.8638 31.4592 74.0894 31.32 74.2622 31.1568ZM82.8062 32.6112C82.643 32.6784 82.4462 32.7552 82.2158 32.8416C81.9854 32.928 81.7358 32.9952 81.467 33.0432C81.2078 33.1008 80.9438 33.1296 80.675 33.1296C80.3198 33.1296 79.9934 33.0672 79.6958 32.9424C79.3982 32.8176 79.1582 32.6208 78.9758 32.352C78.803 32.0736 78.7166 31.7136 78.7166 31.272V26.9376H77.723V25.4544H78.7166V23.0064H80.6462V25.4544H82.2302V26.9376H80.6462V30.624C80.6558 30.8832 80.7278 31.0704 80.8622 31.1856C80.9966 31.3008 81.1646 31.3584 81.3662 31.3584C81.5678 31.3584 81.7646 31.3248 81.9566 31.2576C82.1486 31.1904 82.3022 31.1328 82.4174 31.0848L82.8062 32.6112ZM83.2928 30.768C83.2928 30.2784 83.4272 29.8512 83.696 29.4864C83.9744 29.112 84.3584 28.824 84.848 28.6224C85.3376 28.4208 85.8992 28.32 86.5328 28.32C86.8496 28.32 87.1712 28.344 87.4976 28.392C87.824 28.44 88.1072 28.5168 88.3472 28.6224V28.2192C88.3472 27.7392 88.2032 27.3696 87.9152 27.1104C87.6368 26.8512 87.2192 26.7216 86.6624 26.7216C86.2496 26.7216 85.856 26.7936 85.4816 26.9376C85.1072 27.0816 84.7136 27.2928 84.3008 27.5712L83.6816 26.304C84.1808 25.9776 84.6896 25.7328 85.208 25.5696C85.736 25.4064 86.288 25.3248 86.864 25.3248C87.9392 25.3248 88.7744 25.5936 89.3696 26.1312C89.9744 26.6688 90.2768 27.4368 90.2768 28.4352V30.84C90.2768 31.0416 90.3104 31.1856 90.3776 31.272C90.4544 31.3584 90.5744 31.4112 90.7376 31.4304V33C90.5648 33.0288 90.4064 33.0528 90.2624 33.072C90.128 33.0912 90.0128 33.1008 89.9168 33.1008C89.5328 33.1008 89.24 33.0144 89.0384 32.8416C88.8464 32.6688 88.7264 32.4576 88.6784 32.208L88.6352 31.8192C88.3088 32.2416 87.9008 32.568 87.4112 32.7984C86.9216 33.0288 86.4224 33.144 85.9136 33.144C85.4144 33.144 84.9632 33.0432 84.56 32.8416C84.1664 32.6304 83.8544 32.3472 83.624 31.992C83.4032 31.6272 83.2928 31.2192 83.2928 30.768ZM87.9872 31.1568C88.0928 31.0416 88.1792 30.9264 88.2464 30.8112C88.3136 30.696 88.3472 30.5904 88.3472 30.4944V29.7312C88.1168 29.6352 87.8672 29.5632 87.5984 29.5152C87.3296 29.4576 87.0752 29.4288 86.8352 29.4288C86.336 29.4288 85.9232 29.5392 85.5968 29.76C85.28 29.9712 85.1216 30.2544 85.1216 30.6096C85.1216 30.8016 85.1744 30.984 85.28 31.1568C85.3856 31.3296 85.5392 31.4688 85.7408 31.5744C85.9424 31.68 86.1824 31.7328 86.4608 31.7328C86.7488 31.7328 87.032 31.68 87.3104 31.5744C87.5888 31.4592 87.8144 31.32 87.9872 31.1568ZM96.3711 33.144C95.7951 33.144 95.2815 33.0144 94.8303 32.7552C94.3791 32.496 94.0239 32.1408 93.7647 31.6896V33H92.0799V22.488H94.0095V26.7792C94.2783 26.328 94.6287 25.9728 95.0607 25.7136C95.5023 25.4544 96.0159 25.3248 96.6015 25.3248C97.0911 25.3248 97.5375 25.4304 97.9407 25.6416C98.3439 25.8432 98.6895 26.1264 98.9775 26.4912C99.2751 26.856 99.5007 27.2736 99.6543 27.744C99.8175 28.2144 99.8991 28.7184 99.8991 29.256C99.8991 29.7936 99.8079 30.2976 99.6255 30.768C99.4527 31.2384 99.2079 31.656 98.8911 32.0208C98.5743 32.376 98.1999 32.6544 97.7679 32.856C97.3455 33.048 96.8799 33.144 96.3711 33.144ZM95.8383 31.5024C96.1455 31.5024 96.4239 31.4448 96.6735 31.3296C96.9327 31.2048 97.1535 31.0416 97.3359 30.84C97.5279 30.6384 97.6719 30.4032 97.7679 30.1344C97.8735 29.856 97.9263 29.568 97.9263 29.2704C97.9263 28.8576 97.8399 28.4784 97.6671 28.1328C97.5039 27.7776 97.2735 27.4944 96.9759 27.2832C96.6879 27.072 96.3471 26.9664 95.9535 26.9664C95.6751 26.9664 95.4063 27.0336 95.1471 27.168C94.8975 27.2928 94.6719 27.4656 94.4703 27.6864C94.2783 27.9072 94.1247 28.1568 94.0095 28.4352V30.2352C94.0671 30.4272 94.1583 30.6 94.2831 30.7536C94.4175 30.9072 94.5711 31.0416 94.7439 31.1568C94.9167 31.2624 95.0943 31.3488 95.2767 31.416C95.4687 31.4736 95.6559 31.5024 95.8383 31.5024ZM100.688 30.768C100.688 30.2784 100.823 29.8512 101.091 29.4864C101.37 29.112 101.754 28.824 102.243 28.6224C102.733 28.4208 103.295 28.32 103.928 28.32C104.245 28.32 104.567 28.344 104.893 28.392C105.219 28.44 105.503 28.5168 105.743 28.6224V28.2192C105.743 27.7392 105.599 27.3696 105.311 27.1104C105.032 26.8512 104.615 26.7216 104.058 26.7216C103.645 26.7216 103.251 26.7936 102.877 26.9376C102.503 27.0816 102.109 27.2928 101.696 27.5712L101.077 26.304C101.576 25.9776 102.085 25.7328 102.603 25.5696C103.131 25.4064 103.683 25.3248 104.259 25.3248C105.335 25.3248 106.17 25.5936 106.765 26.1312C107.37 26.6688 107.672 27.4368 107.672 28.4352V30.84C107.672 31.0416 107.706 31.1856 107.773 31.272C107.85 31.3584 107.97 31.4112 108.133 31.4304V33C107.96 33.0288 107.802 33.0528 107.658 33.072C107.523 33.0912 107.408 33.1008 107.312 33.1008C106.928 33.1008 106.635 33.0144 106.434 32.8416C106.242 32.6688 106.122 32.4576 106.074 32.208L106.031 31.8192C105.704 32.2416 105.296 32.568 104.807 32.7984C104.317 33.0288 103.818 33.144 103.309 33.144C102.81 33.144 102.359 33.0432 101.955 32.8416C101.562 32.6304 101.25 32.3472 101.019 31.992C100.799 31.6272 100.688 31.2192 100.688 30.768ZM105.383 31.1568C105.488 31.0416 105.575 30.9264 105.642 30.8112C105.709 30.696 105.743 30.5904 105.743 30.4944V29.7312C105.512 29.6352 105.263 29.5632 104.994 29.5152C104.725 29.4576 104.471 29.4288 104.231 29.4288C103.731 29.4288 103.319 29.5392 102.992 29.76C102.675 29.9712 102.517 30.2544 102.517 30.6096C102.517 30.8016 102.57 30.984 102.675 31.1568C102.781 31.3296 102.935 31.4688 103.136 31.5744C103.338 31.68 103.578 31.7328 103.856 31.7328C104.144 31.7328 104.427 31.68 104.706 31.5744C104.984 31.4592 105.21 31.32 105.383 31.1568ZM112.254 33.144C111.611 33.144 110.997 33.0384 110.411 32.8272C109.826 32.616 109.322 32.304 108.899 31.8912L109.59 30.6384C110.042 31.0032 110.483 31.272 110.915 31.4448C111.357 31.6176 111.779 31.704 112.182 31.704C112.557 31.704 112.854 31.6368 113.075 31.5024C113.306 31.368 113.421 31.1664 113.421 30.8976C113.421 30.7152 113.358 30.576 113.234 30.48C113.109 30.3744 112.926 30.2832 112.686 30.2064C112.456 30.1296 112.173 30.0432 111.837 29.9472C111.28 29.7648 110.814 29.5872 110.44 29.4144C110.066 29.2416 109.782 29.0256 109.59 28.7664C109.408 28.4976 109.317 28.1568 109.317 27.744C109.317 27.2448 109.442 26.8176 109.691 26.4624C109.95 26.0976 110.306 25.8144 110.757 25.6128C111.218 25.4112 111.755 25.3104 112.37 25.3104C112.907 25.3104 113.416 25.3968 113.896 25.5696C114.376 25.7328 114.813 26.0016 115.206 26.376L114.429 27.6C114.045 27.3024 113.68 27.0864 113.334 26.952C112.989 26.808 112.638 26.736 112.283 26.736C112.082 26.736 111.89 26.76 111.707 26.808C111.534 26.856 111.39 26.9376 111.275 27.0528C111.17 27.1584 111.117 27.312 111.117 27.5136C111.117 27.696 111.165 27.84 111.261 27.9456C111.366 28.0416 111.52 28.128 111.722 28.2048C111.933 28.2816 112.187 28.368 112.485 28.464C113.09 28.6368 113.598 28.8144 114.011 28.9968C114.434 29.1792 114.75 29.4048 114.962 29.6736C115.173 29.9328 115.278 30.2928 115.278 30.7536C115.278 31.5024 115.005 32.088 114.458 32.5104C113.91 32.9328 113.176 33.144 112.254 33.144ZM120.09 33.144C119.485 33.144 118.938 33.0432 118.448 32.8416C117.959 32.6304 117.541 32.3472 117.196 31.992C116.85 31.6272 116.581 31.2144 116.389 30.7536C116.207 30.2832 116.116 29.7888 116.116 29.2704C116.116 28.5504 116.274 27.8928 116.591 27.2976C116.917 26.7024 117.378 26.2272 117.973 25.872C118.578 25.5072 119.288 25.3248 120.104 25.3248C120.93 25.3248 121.636 25.5072 122.221 25.872C122.807 26.2272 123.253 26.7024 123.56 27.2976C123.877 27.8832 124.036 28.5168 124.036 29.1984C124.036 29.3136 124.031 29.4336 124.021 29.5584C124.012 29.6736 124.002 29.7696 123.992 29.8464H118.16C118.199 30.2304 118.309 30.5664 118.492 30.8544C118.684 31.1424 118.924 31.3632 119.212 31.5168C119.509 31.6608 119.826 31.7328 120.162 31.7328C120.546 31.7328 120.906 31.6416 121.242 31.4592C121.588 31.2672 121.823 31.0176 121.948 30.7104L123.604 31.1712C123.421 31.5552 123.157 31.896 122.812 32.1936C122.476 32.4912 122.077 32.7264 121.616 32.8992C121.156 33.0624 120.647 33.144 120.09 33.144ZM118.117 28.6224H122.063C122.024 28.2384 121.914 27.9072 121.732 27.6288C121.559 27.3408 121.328 27.12 121.04 26.9664C120.752 26.8032 120.431 26.7216 120.076 26.7216C119.73 26.7216 119.413 26.8032 119.125 26.9664C118.847 27.12 118.616 27.3408 118.434 27.6288C118.261 27.9072 118.156 28.2384 118.117 28.6224Z" fill="black"/>
<rect x="16" y="72" width="100" height="16" rx="8" fill="#86C1ED" fill-opacity="0.1"/>
<rect x="16" y="100" width="120" height="16" rx="8" fill="#86C1ED" fill-opacity="0.1"/>
<rect x="16" y="128" width="80" height="16" rx="8" fill="#86C1ED" fill-opacity="0.1"/>
<rect x="36" y="152" width="83" height="16" rx="8" fill="#86C1ED" fill-opacity="0.5"/>
<rect x="36" y="172" width="100" height="16" rx="8" fill="#86C1ED" fill-opacity="0.1"/>
<rect x="36" y="192" width="57" height="16" rx="8" fill="#86C1ED" fill-opacity="0.1"/>
<rect x="36" y="212" width="79" height="16" rx="8" fill="#86C1ED" fill-opacity="0.1"/>
<rect x="36" y="232" width="114" height="16" rx="8" fill="#86C1ED" fill-opacity="0.1"/>
<rect x="36" y="252" width="79" height="16" rx="8" fill="#86C1ED" fill-opacity="0.1"/>
<rect x="36" y="272" width="79" height="16" rx="8" fill="#86C1ED" fill-opacity="0.1"/>
<rect width="250" height="280" transform="translate(190)" fill="white" fill-opacity="0.7"/>
<rect x="206" y="16" width="80" height="16" rx="8" fill="#86C1ED" fill-opacity="0.1"/>
<rect x="206" y="55" width="24" height="12" rx="6" fill="#86C1ED" fill-opacity="0.5"/>
<rect x="238" y="55" width="24" height="12" rx="6" fill="#86C1ED" fill-opacity="0.5"/>
<rect x="270" y="55" width="24" height="12" rx="6" fill="#86C1ED" fill-opacity="0.5"/>
<rect x="400" y="55" width="24" height="12" rx="6" fill="#86C1ED" fill-opacity="0.1"/>
<rect x="206" y="90" width="12" height="12" rx="6" fill="#86C1ED" fill-opacity="0.1"/>
<rect x="222" y="90" width="24" height="12" rx="6" fill="#86C1ED" fill-opacity="0.1"/>
<rect x="258" y="90" width="24" height="12" rx="6" fill="#86C1ED" fill-opacity="0.1"/>
<rect x="392" y="90" width="12" height="12" rx="6" fill="#86C1ED" fill-opacity="0.1"/>
<rect x="206" y="110" width="12" height="12" rx="6" fill="#86C1ED" fill-opacity="0.1"/>
<rect x="222" y="110" width="32" height="12" rx="6" fill="#86C1ED" fill-opacity="0.5"/>
<rect x="258" y="110" width="130" height="12" rx="6" fill="#86C1ED" fill-opacity="0.5"/>
<rect x="392" y="110" width="32" height="12" rx="6" fill="#86C1ED" fill-opacity="0.5"/>
<rect x="206" y="130" width="12" height="12" rx="6" fill="#86C1ED" fill-opacity="0.1"/>
<rect x="222" y="130" width="32" height="12" rx="6" fill="#86C1ED" fill-opacity="0.5"/>
<rect x="258" y="130" width="130" height="12" rx="6" fill="#86C1ED" fill-opacity="0.5"/>
<rect x="392" y="130" width="32" height="12" rx="6" fill="#86C1ED" fill-opacity="0.5"/>
<rect x="206" y="150" width="12" height="12" rx="6" fill="#86C1ED" fill-opacity="0.1"/>
<rect x="222" y="150" width="32" height="12" rx="6" fill="#86C1ED" fill-opacity="0.5"/>
<rect x="258" y="150" width="130" height="12" rx="6" fill="#86C1ED" fill-opacity="0.5"/>
<rect x="392" y="150" width="32" height="12" rx="6" fill="#86C1ED" fill-opacity="0.5"/>
<rect x="206" y="170" width="12" height="12" rx="6" fill="#86C1ED" fill-opacity="0.1"/>
<rect x="222" y="170" width="32" height="12" rx="6" fill="#86C1ED" fill-opacity="0.5"/>
<rect x="258" y="170" width="130" height="12" rx="6" fill="#86C1ED" fill-opacity="0.5"/>
<rect x="392" y="170" width="32" height="12" rx="6" fill="#86C1ED" fill-opacity="0.5"/>
<rect x="206" y="190" width="12" height="12" rx="6" fill="#86C1ED" fill-opacity="0.1"/>
<rect x="222" y="190" width="32" height="12" rx="6" fill="#86C1ED" fill-opacity="0.5"/>
<rect x="258" y="190" width="130" height="12" rx="6" fill="#86C1ED" fill-opacity="0.5"/>
<rect x="392" y="190" width="32" height="12" rx="6" fill="#86C1ED" fill-opacity="0.5"/>
<rect x="206" y="210" width="12" height="12" rx="6" fill="#86C1ED" fill-opacity="0.1"/>
<rect x="222" y="210" width="32" height="12" rx="6" fill="#86C1ED" fill-opacity="0.5"/>
<rect x="258" y="210" width="130" height="12" rx="6" fill="#86C1ED" fill-opacity="0.5"/>
<rect x="392" y="210" width="32" height="12" rx="6" fill="#86C1ED" fill-opacity="0.5"/>
<rect x="206" y="230" width="12" height="12" rx="6" fill="#86C1ED" fill-opacity="0.1"/>
<rect x="222" y="230" width="32" height="12" rx="6" fill="#86C1ED" fill-opacity="0.5"/>
<rect x="258" y="230" width="130" height="12" rx="6" fill="#86C1ED" fill-opacity="0.5"/>
<rect x="392" y="230" width="32" height="12" rx="6" fill="#86C1ED" fill-opacity="0.5"/>
<rect x="206" y="250" width="12" height="12" rx="6" fill="#86C1ED" fill-opacity="0.1"/>
<rect x="222" y="250" width="32" height="12" rx="6" fill="#86C1ED" fill-opacity="0.5"/>
<rect x="258" y="250" width="130" height="12" rx="6" fill="#86C1ED" fill-opacity="0.5"/>
<rect x="392" y="250" width="32" height="12" rx="6" fill="#86C1ED" fill-opacity="0.5"/>
<rect x="206" y="270" width="12" height="12" rx="6" fill="#86C1ED" fill-opacity="0.1"/>
<rect x="222" y="270" width="32" height="12" rx="6" fill="#86C1ED" fill-opacity="0.5"/>
<rect x="258" y="270" width="130" height="12" rx="6" fill="#86C1ED" fill-opacity="0.5"/>
<rect x="392" y="270" width="32" height="12" rx="6" fill="#86C1ED" fill-opacity="0.5"/>
</g>
<rect x="0.5" y="0.5" width="439" height="279" rx="15.5" stroke="white"/>
</g>
<defs>
<filter id="filter0_b_6912_2970" x="-100" y="-100" width="640" height="480" filterUnits="userSpaceOnUse" color-interpolation-filters="sRGB">
<feFlood flood-opacity="0" result="BackgroundImageFix"/>
<feGaussianBlur in="BackgroundImageFix" stdDeviation="50"/>
<feComposite in2="SourceAlpha" operator="in" result="effect1_backgroundBlur_6912_2970"/>
<feBlend mode="normal" in="SourceGraphic" in2="effect1_backgroundBlur_6912_2970" result="shape"/>
</filter>
<clipPath id="clip0_6912_2970">
<rect width="440" height="280" rx="16" fill="white"/>
</clipPath>
<clipPath id="clip1_6912_2970">
<rect width="19.2" height="11.7827" fill="white" transform="translate(18.4001 22.1089)"/>
</clipPath>
</defs>
</svg>
