<svg width="16" height="16" viewBox="0 0 16 16" fill="none" xmlns="http://www.w3.org/2000/svg">
<path opacity="0.2" d="M15.9566 8.00028C15.9566 12.3953 12.3938 15.9582 7.99886 15.9582C3.60384 15.9582 0.0410156 12.3953 0.0410156 8.00028C0.0410156 3.60531 3.60384 0.0424805 7.99886 0.0424805C12.3938 0.0424805 15.9566 3.60531 15.9566 8.00028" fill="#505050"/>
<g opacity="0.8">
<path d="M7.97347 4.30762L7.92432 4.47468V9.32256L7.97347 9.37163L10.2238 8.04146L7.97347 4.30762Z" fill="white"/>
<path d="M7.97348 4.30762L5.72314 8.04146L7.97348 9.37164V7.01863V4.30762Z" fill="white"/>
<path d="M7.9735 10.1039L7.9458 10.1377V11.8646L7.9735 11.9455L10.2252 8.77441L7.9735 10.1039Z" fill="white"/>
<path d="M7.97348 11.9455V10.1039L5.72314 8.77441L7.97348 11.9455Z" fill="white"/>
<path d="M7.97363 9.37153L10.2239 8.04139L7.97363 7.01855V9.37153Z" fill="white"/>
<path d="M5.72314 8.04139L7.97344 9.37155V7.01855L5.72314 8.04139Z" fill="white"/>
</g>
</svg>