<svg width="24" height="24" viewBox="0 0 24 24" fill="none" xmlns="http://www.w3.org/2000/svg">
<g clip-path="url(#clip0_8733_11537)">
<path d="M15.3034 10.9997L9.90152 16.4018C9.55472 16.7564 9.14102 17.0386 8.68438 17.2322C8.22774 17.4258 7.73722 17.5269 7.24124 17.5297C6.74526 17.5324 6.25367 17.4367 5.79492 17.2482C5.33617 17.0596 4.91939 16.7819 4.56871 16.4311C4.21802 16.0804 3.9404 15.6636 3.75192 15.2048C3.56343 14.746 3.46783 14.2544 3.47065 13.7584C3.47347 13.2624 3.57465 12.7719 3.76834 12.3153C3.96203 11.8587 4.24437 11.4451 4.59902 11.0983L10 5.69725C10.1407 5.55652 10.2198 5.36565 10.2198 5.16662C10.2198 4.9676 10.1407 4.77673 10 4.636C9.85927 4.49527 9.6684 4.4162 9.46938 4.4162C9.27035 4.4162 9.07948 4.49527 8.93875 4.636L3.53777 10.038C2.55315 11.0226 2 12.3581 2 13.7505C2 15.143 2.55315 16.4784 3.53777 17.463C4.52238 18.4476 5.85781 19.0008 7.25027 19.0008C8.64273 19.0008 9.97815 18.4476 10.9628 17.463L16.3647 12.0601C16.5053 11.9193 16.5842 11.7285 16.5841 11.5296C16.5841 11.3306 16.5049 11.1399 16.3642 10.9993C16.2235 10.8587 16.0327 10.7797 15.8337 10.7798C15.6348 10.7799 15.444 10.859 15.3034 10.9997Z" fill="#27272A"/>
<path d="M18.7594 5.39968C19.3964 5.66355 19.9752 6.05031 20.4627 6.53788C20.9502 7.02539 21.337 7.60417 21.6009 8.24117C21.8647 8.87816 22.0006 9.56089 22.0006 10.2504C22.0006 10.9399 21.8647 11.6226 21.6009 12.2596C21.337 12.8966 20.9502 13.4754 20.4627 13.9629L15.1539 19.2757C15.0131 19.4163 14.8223 19.4952 14.6234 19.4952C14.4244 19.4951 14.2337 19.416 14.0931 19.2752C13.9525 19.1345 13.8735 18.9437 13.8736 18.7447C13.8737 18.5458 13.9528 18.355 14.0935 18.2144L19.4024 12.9063C20.0926 12.2004 20.4765 11.2507 20.4709 10.2634C20.4653 9.27615 20.0706 8.33092 19.3724 7.63286C18.6742 6.9348 17.7289 6.54024 16.7416 6.5348C15.7544 6.52936 14.8048 6.91349 14.0989 7.60382L8.79104 12.9063C8.65031 13.047 8.45944 13.1261 8.26042 13.1261C8.06139 13.1261 7.87052 13.047 7.72979 12.9063C7.58906 12.7656 7.51 12.5747 7.51 12.3757C7.51 12.1767 7.58906 11.9858 7.72979 11.8451L13.0377 6.53788C13.5252 6.05031 14.104 5.66355 14.741 5.39968C15.378 5.13581 16.0607 5 16.7502 5C17.4397 5 18.1224 5.13581 18.7594 5.39968Z" fill="#FD4A35"/>
</g>
<defs>
<clipPath id="clip0_8733_11537">
<rect width="20" height="20" fill="white" transform="translate(2 2)"/>
</clipPath>
</defs>
</svg>
