<svg width="24" height="24" viewBox="0 0 24 24" fill="none" xmlns="http://www.w3.org/2000/svg">
<path d="M20.974 3.88014C21.0074 3.76171 21.0086 3.63652 20.9775 3.51747C20.9465 3.39841 20.8842 3.28979 20.7972 3.20278C20.7102 3.11578 20.6016 3.05353 20.4826 3.02245C20.3635 2.99137 20.2383 2.99258 20.1199 3.02595L3.50428 8.06454C3.36862 8.10282 3.24789 8.18161 3.15821 8.29035C3.06853 8.3991 3.01417 8.53263 3.00241 8.6731C2.99065 8.81356 3.02205 8.95427 3.0924 9.07642C3.16275 9.19857 3.2687 9.29633 3.3961 9.35664L10.9623 13.0382L14.6437 20.6039C14.704 20.7313 14.8017 20.8372 14.9239 20.9076C15.046 20.978 15.1867 21.0093 15.3272 20.9976C15.4676 20.9858 15.6012 20.9315 15.7099 20.8418C15.8186 20.7521 15.8974 20.6314 15.9357 20.4957L20.974 3.88014Z" stroke="#27272A" stroke-width="1.4" stroke-linecap="round" stroke-linejoin="round"/>
<path d="M8 16L16 8" stroke="#FD4A35" stroke-width="1.4" stroke-linecap="round" stroke-linejoin="round"/>
</svg>
