<svg width="32" height="33" viewBox="0 0 32 33" fill="none" xmlns="http://www.w3.org/2000/svg">
<path d="M29.3331 20.9594V23.9588C29.3331 24.4891 29.1324 24.9977 28.7752 25.3727C28.418 25.7477 27.9335 25.9584 27.4284 25.9584H4.57127C4.06609 25.9584 3.58161 25.7477 3.2244 25.3727C2.86719 24.9977 2.66651 24.4891 2.66651 23.9588V21.1007C2.66481 19.1734 3.03768 17.2659 3.76229 15.4951C4.48691 13.7242 5.54804 12.1272 6.88079 10.8016L3.89746 7.66981C3.71875 7.48221 3.61836 7.22777 3.61836 6.96246C3.61836 6.69716 3.71875 6.44272 3.89746 6.25512C4.07616 6.06752 4.31854 5.96212 4.57127 5.96212C4.82399 5.96212 5.06637 6.06752 5.24508 6.25512L8.35935 9.52441C10.5955 7.86161 13.2673 6.96659 16.0075 6.96234C18.7478 6.95808 21.4221 7.84481 23.6629 9.50067L26.7581 6.25137C26.9368 6.06377 27.1792 5.95837 27.4319 5.95837C27.6847 5.95837 27.927 6.06377 28.1057 6.25137C28.2844 6.43897 28.3848 6.69341 28.3848 6.95871C28.3848 7.22402 28.2844 7.47846 28.1057 7.66606L25.145 10.7741C25.2343 10.8629 25.3236 10.9529 25.4117 11.0453C26.6586 12.3426 27.6474 13.8871 28.3206 15.5891C28.9938 17.2911 29.338 19.1166 29.3331 20.9594ZM27.4284 20.9594C27.4284 17.7775 26.2243 14.7259 24.081 12.476C21.9377 10.226 19.0309 8.96203 15.9998 8.96203H15.9593C9.67959 8.98453 4.57127 14.4296 4.57127 21.1007V23.9588H27.4284V20.9594Z" fill="#86C1ED"/>
<path d="M22 20.625C23.1046 20.625 24 19.7296 24 18.625C24 17.5204 23.1046 16.625 22 16.625C20.8954 16.625 20 17.5204 20 18.625C20 19.7296 20.8954 20.625 22 20.625Z" fill="#FD4A35"/>
<path d="M12.6665 20.625C13.7711 20.625 14.6665 19.7296 14.6665 18.625C14.6665 17.5204 13.7711 16.625 12.6665 16.625C11.5619 16.625 10.6665 17.5204 10.6665 18.625C10.6665 19.7296 11.5619 20.625 12.6665 20.625Z" fill="#FD4A35"/>
</svg>
