<svg width="24" height="24" viewBox="0 0 24 24" fill="none" xmlns="http://www.w3.org/2000/svg">
<path d="M4 13.7H10C10.1657 13.7 10.3 13.8343 10.3 14V20C10.3 20.1657 10.1657 20.3 10 20.3H4C3.83431 20.3 3.7 20.1657 3.7 20V14C3.7 13.8343 3.83431 13.7 4 13.7Z" stroke="#27272A" stroke-width="1.4" stroke-linecap="round" stroke-linejoin="round"/>
<path d="M14 3.7H20C20.1657 3.7 20.3 3.83431 20.3 4V10C20.3 10.1657 20.1657 10.3 20 10.3H14C13.8343 10.3 13.7 10.1657 13.7 10V4C13.7 3.83431 13.8343 3.7 14 3.7Z" stroke="#27272A" stroke-width="1.4" stroke-linecap="round" stroke-linejoin="round"/>
<path d="M4 3.7H10C10.1657 3.7 10.3 3.83431 10.3 4V10C10.3 10.1657 10.1657 10.3 10 10.3H4C3.83431 10.3 3.7 10.1657 3.7 10V4C3.7 3.83431 3.83431 3.7 4 3.7Z" stroke="#27272A" stroke-width="1.4" stroke-linecap="round" stroke-linejoin="round"/>
<path d="M13 17L15.6667 20L21 14" stroke="#FD4A35" stroke-width="1.4" stroke-linecap="round" stroke-linejoin="round"/>
</svg>
