<svg width="32" height="33" viewBox="0 0 32 33" fill="none" xmlns="http://www.w3.org/2000/svg">
<path d="M21.3332 28.625C22.8059 28.625 23.9998 27.4311 23.9998 25.9583C23.9998 24.4855 22.8059 23.2916 21.3332 23.2916C19.8604 23.2916 18.6665 24.4855 18.6665 25.9583C18.6665 27.4311 19.8604 28.625 21.3332 28.625Z" fill="#86C1ED"/>
<path d="M10.6667 28.625C12.1394 28.625 13.3333 27.4311 13.3333 25.9583C13.3333 24.4855 12.1394 23.2916 10.6667 23.2916C9.19391 23.2916 8 24.4855 8 25.9583C8 27.4311 9.19391 28.625 10.6667 28.625Z" fill="#FD4A35"/>
<path d="M26.6667 19.2917C28.1394 19.2917 29.3333 18.0978 29.3333 16.625C29.3333 15.1523 28.1394 13.9584 26.6667 13.9584C25.1939 13.9584 24 15.1523 24 16.625C24 18.0978 25.1939 19.2917 26.6667 19.2917Z" fill="#FD4A35"/>
<path d="M16.0002 19.2917C17.4729 19.2917 18.6668 18.0978 18.6668 16.625C18.6668 15.1523 17.4729 13.9584 16.0002 13.9584C14.5274 13.9584 13.3335 15.1523 13.3335 16.625C13.3335 18.0978 14.5274 19.2917 16.0002 19.2917Z" fill="#86C1ED"/>
<path d="M5.33317 19.2917C6.80593 19.2917 7.99984 18.0978 7.99984 16.625C7.99984 15.1523 6.80593 13.9584 5.33317 13.9584C3.86041 13.9584 2.6665 15.1523 2.6665 16.625C2.6665 18.0978 3.86041 19.2917 5.33317 19.2917Z" fill="#86C1ED"/>
<path d="M21.3332 9.95833C22.8059 9.95833 23.9998 8.76443 23.9998 7.29167C23.9998 5.81891 22.8059 4.625 21.3332 4.625C19.8604 4.625 18.6665 5.81891 18.6665 7.29167C18.6665 8.76443 19.8604 9.95833 21.3332 9.95833Z" fill="#86C1ED"/>
<path d="M10.6667 9.95833C12.1394 9.95833 13.3333 8.76443 13.3333 7.29167C13.3333 5.81891 12.1394 4.625 10.6667 4.625C9.19391 4.625 8 5.81891 8 7.29167C8 8.76443 9.19391 9.95833 10.6667 9.95833Z" fill="#86C1ED"/>
</svg>
