<svg width="109" height="33" viewBox="0 0 109 33" fill="none" xmlns="http://www.w3.org/2000/svg">
<g clip-path="url(#clip0_6740_145799)">
<path d="M30.6062 16.2415C30.4149 15.679 30.0746 15.1373 29.6286 14.6996C29.6286 14.6581 29.6286 14.6162 29.5863 14.5748C30.0112 14.7623 30.4154 15.0539 30.7129 15.4081C30.7129 14.8042 30.5216 14.1998 30.1602 13.7207C29.7988 13.2416 29.31 12.8458 28.7573 12.575C29.0759 12.5957 29.3951 12.6583 29.6925 12.7832C29.99 12.908 30.2664 13.0541 30.5216 13.2208C30.3726 12.5542 30.0117 11.971 29.4801 11.5126C28.9702 11.075 28.3113 10.7834 27.6312 10.7207C28.2901 10.5959 28.9913 10.7207 29.5652 11.075C29.2249 10.471 28.7361 9.99146 28.1412 9.63766C27.5462 9.30413 26.8661 9.11663 26.1644 9.13783H26.1433C26.8022 8.99179 27.4822 8.99179 28.12 9.13783C27.6951 8.74211 27.2059 8.4505 26.6748 8.2418C26.1433 8.0543 25.5694 7.95019 24.9956 7.97092C25.2931 7.72077 25.6545 7.5752 26.0371 7.53327C26.5047 7.47062 26.9723 7.57473 27.3549 7.82488C26.5258 6.97078 25.9097 6.65797 24.8682 6.72063C24.3583 6.78328 23.8907 6.94958 23.4865 7.22046C24.1454 6.53313 24.6342 5.69976 24.8682 4.783C24.762 4.92904 24.4434 5.32477 24.3794 5.40815C23.9546 5.88726 23.4019 6.24152 22.7853 6.42902C22.1691 6.59579 21.8289 6.5124 21.1911 6.67917L21.1488 6.63772C22.1903 5.47081 23.423 4.47114 24.7832 3.69995C23.189 4.1164 21.7015 4.88759 20.426 5.92918C21.2762 5.09581 22.2326 4.36655 23.2952 3.80406H23.1462C23.1039 3.80406 23.0611 3.82479 22.9972 3.84552C21.5309 4.28317 20.1491 5.01243 18.9803 5.99137C18.2363 6.59532 17.5774 7.30385 17.0036 8.05383C16.9613 8.09529 16.77 8.05383 16.7484 8.05383C16.5571 7.86634 16.6633 7.3453 16.5994 7.47061C16.4504 7.7415 16.238 8.84575 16.0467 9.05397C15.3027 9.82469 14.75 10.3038 13.9849 11.075C13.8359 11.221 13.8359 11.45 13.8148 11.6167L13.6874 12.3041L14.4102 11.7209C14.5164 11.6375 14.6866 11.4919 14.8351 11.3873C14.8139 11.1372 14.9201 11.0123 15.3239 10.9497C15.2599 11.1372 15.2599 11.3454 15.1537 11.4495C14.7923 11.8452 14.3247 12.1368 13.8359 12.3243C13.7085 12.3658 13.5807 12.4077 13.4745 12.5118C13.1342 12.8034 12.8156 13.095 12.4753 13.3867C12.135 13.6575 12.0927 13.5949 11.9865 13.2825C11.9654 13.2411 11.9654 13.1784 11.9865 13.1365C11.5828 13.6575 11.5828 14.824 11.9865 15.0534L12.2417 14.2827C12.5604 14.4702 12.5181 14.4075 12.3056 14.5743C12.2206 14.6577 12.1567 14.7411 12.1144 14.8452C12.0932 14.97 12.1355 15.1161 12.2206 15.2202C12.3479 15.3036 12.4758 15.3662 12.6243 15.4077C12.7517 15.2202 12.8367 15.0327 12.9646 14.8659C13.0919 14.6784 13.2198 14.5116 13.3471 14.3449C13.4745 14.1988 13.6235 14.074 13.7508 13.9284L13.7931 13.9699C13.6658 14.1159 13.5379 14.2615 13.4106 14.4283C13.0703 14.9281 13.0491 14.8032 13.4529 15.199C13.474 15.2197 13.4952 15.2404 13.4952 15.2616C13.3889 15.2616 13.3039 15.2409 13.2188 15.199C13.0487 15.0741 12.9636 15.199 12.9002 15.3031C12.8151 15.4072 12.7939 15.5532 12.9641 15.6366C13.3255 15.8241 13.7504 15.8656 14.1545 15.7827C14.2819 15.7619 14.4097 15.72 14.5371 15.6578L14.367 15.533C13.772 15.0746 13.8993 14.6369 14.6005 14.3246C15.4719 13.9082 16.4283 13.6373 17.3847 13.512C17.7673 13.4493 18.171 13.4079 18.5752 13.3659C18.5752 13.2825 18.5329 13.2199 18.5112 13.1784C18.3623 12.8242 18.0864 12.8034 18.5112 12.7827H19.1702C19.1702 12.7827 20.339 12.8454 20.339 12.8242V12.8034H20.3813V12.7201C20.3813 12.6993 20.3601 12.6993 20.3601 12.6786C20.1477 12.2409 20.0626 11.7618 20.1049 11.3035C20.1261 11.1574 20.1472 10.9911 20.1689 10.8451C20.2111 10.6783 20.1049 10.6783 19.9776 10.699C19.7651 10.7405 20.0626 10.5742 20.1049 10.5323V10.4696C20.1261 10.4282 20.1261 10.3862 20.1049 10.3448C19.9987 10.0946 19.9137 9.84495 19.8714 9.57406C19.8291 9.4073 19.8291 9.24053 19.8714 9.09496C19.9137 8.92819 19.9987 8.80335 20.1266 8.67851C20.0626 8.82455 19.9992 8.94939 19.9564 9.11616C19.9141 9.49115 20.0203 9.84542 20.2539 10.137C20.3601 10.2831 20.4241 10.4494 20.4452 10.6161C20.4663 10.7829 20.4452 10.9704 20.3813 11.1372C20.2962 11.3873 20.2962 11.6789 20.3813 11.9291C20.5514 11.8457 20.7427 11.783 20.934 11.7623C21.8481 11.7209 22.7617 11.9913 23.5057 12.5123C24.5472 13.3249 25.2484 14.5126 25.4824 15.8039C25.5247 15.9914 25.5464 16.1581 25.5464 16.3456V17.5747C26.0351 15.9914 25.9501 14.2832 25.3339 12.7205C25.5252 13.0955 25.6742 13.4912 25.8016 13.8874C26.163 14.8668 26.2692 15.9084 26.1418 16.9293C26.0145 17.9502 25.6531 18.9296 25.0792 19.8044C23.5913 22.117 21.2747 22.9085 18.5752 22.9085C20.2967 23.5958 22.2311 23.6377 23.995 23.0126C25.2277 22.5961 26.3331 21.8669 27.2044 20.8875C26.758 22.1166 26.0779 23.2415 25.1638 24.179C24.2497 25.1165 23.1448 25.8458 21.912 26.3456C20.6793 26.8247 19.3614 27.0541 18.0436 26.9915C16.7258 26.9288 15.4291 26.5958 14.2391 26.0121H14.2603C12.73 25.2621 11.4333 24.0952 10.5409 22.6786C9.62675 21.262 9.15912 19.616 9.13797 17.9285C9.11683 16.241 9.58446 14.595 10.4769 13.1577C11.3694 11.7204 12.6238 10.5535 14.1541 9.78276C14.2814 8.63705 15.5992 7.24119 17.2573 6.4912C15.047 6.69943 12.9641 7.5328 11.2209 8.88721C9.47824 10.2416 8.18157 12.0332 7.43759 14.0749C6.71475 16.1167 6.58739 18.3459 7.09732 20.4503C7.60724 22.5547 8.71264 24.4918 10.3068 26.013L10.328 26.0337C11.8371 27.4923 13.686 28.5131 15.7478 28.9922C17.8096 29.4713 19.9776 29.388 21.9966 28.7633C24.0156 28.1174 25.8222 26.951 27.2251 25.3883C28.628 23.8257 29.5416 21.9093 29.9031 19.8463C29.9453 19.763 29.9881 19.7215 30.1366 19.7837V18.9089L30.2006 18.8881L30.4769 19.3046C30.5408 18.7628 30.5192 18.2003 30.413 17.6586C30.562 17.8253 30.6466 17.9502 30.7316 18.0543C30.8378 17.4503 30.7955 16.8252 30.6043 16.242L30.6062 16.2415Z" fill="url(#paint0_linear_6740_145799)"/>
<path d="M44.6786 24.1158C43.675 24.1158 42.6975 23.9354 41.7451 23.6014C40.87 23.2925 40.0724 22.8038 39.3777 22.1603C38.7086 21.543 38.1425 20.7965 37.7567 19.9732C37.371 19.0982 37.165 18.1463 37.1906 17.1689C37.165 16.2426 37.371 15.3419 37.7311 14.4931C38.0913 13.6442 38.6574 12.8977 39.3521 12.2804C40.0468 11.6631 40.8444 11.2 41.7195 10.891C42.6713 10.5565 43.6494 10.3767 44.653 10.4023C45.6566 10.4023 46.6341 10.5565 47.5865 10.891C48.4616 11.2 49.2593 11.6631 49.9796 12.2804C50.6486 12.8721 51.1892 13.5924 51.5493 14.3901C51.935 15.239 52.141 16.1652 52.141 17.0921C52.141 17.7611 52.0636 18.4041 51.8838 19.0475C51.5493 20.231 50.9058 21.312 49.9796 22.1353C49.5164 22.521 49.0015 22.8555 48.4616 23.1133C47.8955 23.3961 47.2782 23.6276 46.6603 23.7568C45.9912 23.9883 45.3483 24.0913 44.6792 24.1169L44.6786 24.1158ZM44.6786 23.0091C45.2703 23.0091 45.862 22.8806 46.3769 22.5716C46.8657 22.2627 47.3032 21.8513 47.6121 21.362C47.9723 20.7959 48.2038 20.1786 48.358 19.5351C48.5384 18.763 48.6152 17.9915 48.6152 17.1939C48.6152 16.3962 48.5378 15.6503 48.358 14.9038C48.2038 14.2865 47.9723 13.6686 47.6121 13.1287C47.3032 12.6656 46.8662 12.2537 46.3769 11.9709C45.8626 11.6881 45.2703 11.5334 44.6786 11.559C44.0869 11.5334 43.4952 11.6875 42.9803 11.9709C42.4916 12.2537 42.054 12.64 41.7451 13.1287C41.3849 13.6692 41.1534 14.2865 40.9992 14.9038C40.8188 15.6497 40.742 16.4218 40.742 17.1939C40.742 17.9659 40.8194 18.7636 40.9992 19.5351C41.1278 20.1786 41.3849 20.7959 41.7451 21.362C42.054 21.8507 42.4654 22.2883 42.9803 22.5716C43.4946 22.8806 44.0869 23.0347 44.6786 23.0091Z" fill="black"/>
<path d="M61.3525 15.9846L60.9924 15.7018C60.8894 15.6244 60.7864 15.5476 60.6578 15.4958C60.5548 15.4446 60.4262 15.4185 60.2977 15.3673H59.8857C59.6798 15.3673 59.4738 15.3929 59.2684 15.4702C59.0625 15.5476 58.8827 15.6244 58.7023 15.753C58.522 15.8816 58.3678 16.0102 58.2392 16.1649C58.1106 16.3197 57.982 16.4739 57.9046 16.6793V23.8321H54.9199V14.8006L57.004 13.6939L57.9046 14.672C58.2136 14.3374 58.5993 14.0547 59.0113 13.8231C59.397 13.6171 59.8345 13.5142 60.2721 13.5142C60.684 13.5142 61.0697 13.5915 61.4555 13.7713C61.79 13.9255 62.0728 14.1315 62.3561 14.363L61.3525 15.984V15.9846Z" fill="black"/>
<path d="M68.1966 24.0121C67.4507 24.0121 66.7043 23.8835 66.0096 23.6264C65.3661 23.3948 64.7744 23.0347 64.2856 22.5715C63.7969 22.1084 63.4106 21.5679 63.1278 20.9506C62.8451 20.3333 62.7159 19.6642 62.7421 18.9951C62.7421 18.2748 62.8707 17.5539 63.154 16.8854C63.4112 16.2681 63.7975 15.702 64.2862 15.2127C64.775 14.7496 65.3667 14.3638 66.0102 14.1323C66.7048 13.8751 67.4513 13.7203 68.1972 13.7465C68.9431 13.7465 69.6896 13.8751 70.3843 14.1323C71.0278 14.3638 71.6195 14.724 72.1338 15.1871C72.6225 15.6246 73.0088 16.1907 73.266 16.7825C73.5488 17.3998 73.6779 18.0689 73.6779 18.7379C73.6779 19.4582 73.5494 20.1529 73.266 20.7964C73.0088 21.4399 72.6225 22.006 72.1338 22.4947C71.6195 22.9835 71.0534 23.3698 70.3843 23.627C69.6896 23.8841 68.9431 24.0127 68.1972 24.0127L68.1966 24.0121ZM68.5312 22.8025C68.8139 22.8025 69.0717 22.6995 69.2771 22.5454C69.5342 22.3394 69.7402 22.1078 69.8944 21.8251C70.0747 21.4905 70.2033 21.156 70.3063 20.7958C70.4093 20.3839 70.4349 19.9726 70.4349 19.5606C70.4349 18.9689 70.3837 18.351 70.3063 17.7593C70.2289 17.245 70.0747 16.7557 69.8432 16.2926C69.6372 15.9068 69.3544 15.5723 69.0199 15.3145C68.6598 15.0574 68.2222 14.9288 67.7847 14.9544C67.5275 14.9544 67.296 15.0574 67.09 15.2115C66.8584 15.4175 66.6525 15.6491 66.4983 15.9062C66.3179 16.2152 66.1894 16.5497 66.0864 16.8843C65.9834 17.27 65.9322 17.6819 65.9322 18.0939C65.9322 18.7112 65.9834 19.3035 66.1126 19.8952C66.2155 20.4095 66.3953 20.9244 66.6269 21.3875C66.8328 21.7733 67.09 22.1078 67.4246 22.3656C67.7591 22.6227 68.1448 22.7775 68.5312 22.8031V22.8025Z" fill="black"/>
<path d="M82.7061 16.8342L82.5519 16.3967C82.449 16.1651 82.3204 15.9592 82.1662 15.7532C81.9858 15.5216 81.7543 15.3157 81.4715 15.1871C81.1626 15.0067 80.8024 14.9299 80.4167 14.9299C80.1077 14.9299 79.7994 15.0073 79.5416 15.1615C79.2844 15.3419 79.0529 15.5472 78.8981 15.805C78.6922 16.1139 78.5636 16.4485 78.4862 16.783C78.3832 17.1432 78.332 17.5289 78.332 17.9152C78.332 18.4557 78.3832 18.9701 78.538 19.5106C78.641 19.9737 78.8207 20.4368 79.0523 20.8488C79.2583 21.2089 79.541 21.5179 79.8756 21.7494C80.1845 21.981 80.5703 22.084 80.956 22.084C81.265 22.084 81.5733 22.0066 81.8567 21.878C82.14 21.7494 82.371 21.5691 82.577 21.3375C82.8085 21.1059 82.9889 20.8232 83.1687 20.5398C83.349 20.2309 83.5288 19.8963 83.6574 19.5618L85.0724 19.9475C84.9182 20.5392 84.6866 21.1053 84.3777 21.6203C84.0949 22.109 83.7342 22.5209 83.3228 22.9067C82.9109 23.2412 82.4222 23.524 81.9335 23.7043C81.393 23.8847 80.8268 23.9871 80.2607 23.9871C79.5916 23.9871 78.9226 23.8585 78.3052 23.6013C77.7135 23.3442 77.1986 22.984 76.7355 22.5465C76.298 22.0834 75.9378 21.5685 75.6807 20.9768C75.4235 20.3851 75.2949 19.7416 75.2949 19.0725C75.2949 18.6093 75.3461 18.1206 75.4753 17.6575C75.6039 17.22 75.7842 16.7824 75.9896 16.3711C76.2212 15.9853 76.5039 15.6252 76.8129 15.2907C77.1218 14.9561 77.482 14.6733 77.8677 14.4418C78.2535 14.2102 78.691 14.0299 79.1285 13.9013C79.5661 13.7727 80.0548 13.6953 80.5179 13.6953C80.9554 13.6953 81.4186 13.7209 81.8561 13.7983C82.1906 13.8495 82.5252 13.9525 82.8341 14.1072C83.1169 14.2614 83.4002 14.4418 83.6318 14.6733C83.889 14.9305 84.1461 15.2139 84.3521 15.5222L82.7055 16.8342H82.7061Z" fill="black"/>
<path d="M93.4621 17.0393C93.4877 16.6274 93.3847 16.2417 93.2049 15.8815C93.1537 15.7529 93.0507 15.6755 92.9222 15.5987C92.8192 15.5214 92.665 15.4958 92.5364 15.4958C92.3822 15.4958 92.2275 15.5214 92.0989 15.5731C91.9185 15.6243 91.7131 15.7017 91.5328 15.8047C91.3268 15.9077 91.1209 16.0107 90.9155 16.1392C90.7101 16.2678 90.5297 16.422 90.3494 16.5768V23.8326H87.3134L87.2104 9.98943L89.3463 8.88281H90.247V14.7493C90.7101 14.4147 91.225 14.1576 91.7905 13.9772C92.331 13.823 92.871 13.7201 93.4371 13.7201C93.8228 13.7201 94.2091 13.7974 94.5693 13.9516C94.9294 14.1058 95.264 14.3118 95.5473 14.5951C95.8045 14.8779 96.0361 15.2124 96.1646 15.5731C96.3188 15.9333 96.3962 16.3452 96.3962 16.731L96.4474 23.807H93.4371V17.0399H93.4627L93.4621 17.0393Z" fill="black"/>
<path d="M99.3291 10.4522C99.3291 10.2718 99.3803 10.092 99.4577 9.91164C99.5351 9.73128 99.6636 9.5771 99.7922 9.44851C99.9464 9.31993 100.127 9.21695 100.307 9.13957C100.513 9.06219 100.718 9.01099 100.924 9.01099C101.129 9.01099 101.361 9.03659 101.567 9.13957C101.748 9.21695 101.928 9.31993 102.082 9.44851C102.236 9.5771 102.339 9.73128 102.416 9.91164C102.494 10.092 102.545 10.2718 102.545 10.4778C102.545 10.6837 102.494 10.8635 102.416 11.0439C102.339 11.2242 102.21 11.3784 102.082 11.507C101.928 11.6356 101.747 11.7386 101.567 11.8159C101.361 11.8933 101.155 11.9445 100.924 11.9445C100.718 11.9445 100.486 11.9189 100.307 11.8159C100.126 11.7386 99.9464 11.6356 99.7922 11.507C99.638 11.3784 99.5351 11.2242 99.4577 11.0439C99.3803 10.8897 99.3291 10.6837 99.3291 10.4522Z" fill="url(#paint1_linear_6740_145799)"/>
<path d="M99.4575 14.8019L101.567 13.6953H102.468V23.8073H99.4831V14.8019H99.4575Z" fill="black"/>
</g>
<defs>
<linearGradient id="paint0_linear_6740_145799" x1="6.79742" y1="7.25909" x2="36.0054" y2="28.9779" gradientUnits="userSpaceOnUse">
<stop stop-color="#EC4125"/>
<stop offset="1" stop-color="#EC4424"/>
</linearGradient>
<linearGradient id="paint1_linear_6740_145799" x1="99.3372" y1="10.4778" x2="102.562" y2="10.4778" gradientUnits="userSpaceOnUse">
<stop stop-color="#EC4125"/>
<stop offset="1" stop-color="#EC4424"/>
</linearGradient>
<clipPath id="clip0_6740_145799">
<rect width="95.7563" height="25.6" fill="white" transform="translate(6.78857 3.69995)"/>
</clipPath>
</defs>
</svg>
