<svg width="24" height="25" viewBox="0 0 24 25" fill="none" xmlns="http://www.w3.org/2000/svg">
<path d="M12 0.5C5.241 0.5 0 5.45286 0 12.1397C0 15.6376 1.434 18.6615 3.768 20.7494C3.963 20.9234 4.083 21.1694 4.089 21.4334L4.155 23.5694C4.15981 23.7265 4.20314 23.8801 4.2812 24.0166C4.35926 24.1531 4.46965 24.2683 4.60267 24.3521C4.73569 24.436 4.88726 24.4859 5.04408 24.4974C5.20089 24.509 5.35814 24.4818 5.502 24.4183L7.884 23.3684C8.085 23.2784 8.313 23.2634 8.526 23.3204C9.621 23.6204 10.785 23.7824 12 23.7824C18.759 23.7824 24 18.8295 24 12.1427C24 5.45586 18.759 0.5 12 0.5Z" fill="url(#paint0_radial_9108_12486)"/>
<path d="M4.79413 15.5446L8.31913 9.95275C8.45174 9.74222 8.62655 9.56147 8.83254 9.42191C9.03853 9.28234 9.27121 9.187 9.5159 9.1419C9.7606 9.09679 10.012 9.10291 10.2542 9.15986C10.4964 9.21681 10.7242 9.32335 10.9231 9.47276L13.7281 11.5757C13.8534 11.6695 14.0057 11.7199 14.1621 11.7193C14.3186 11.7188 14.4706 11.6673 14.5951 11.5727L18.3811 8.69878C18.8851 8.3148 19.5451 8.92078 19.2091 9.45776L15.6811 15.0466C15.5485 15.2571 15.3737 15.4379 15.1677 15.5775C14.9617 15.717 14.7291 15.8124 14.4844 15.8575C14.2397 15.9026 13.9883 15.8965 13.7461 15.8395C13.5039 15.7826 13.2761 15.676 13.0771 15.5266L10.2721 13.4237C10.1469 13.3299 9.99456 13.2795 9.83813 13.28C9.6817 13.2806 9.52971 13.332 9.40513 13.4267L5.61913 16.3006C5.11513 16.6846 4.45513 16.0816 4.79413 15.5446Z" fill="white"/>
<defs>
<radialGradient id="paint0_radial_9108_12486" cx="0" cy="0" r="1" gradientUnits="userSpaceOnUse" gradientTransform="translate(4.02 24.4993) scale(26.4 26.3993)">
<stop stop-color="#0099FF"/>
<stop offset="0.6" stop-color="#A033FF"/>
<stop offset="0.9" stop-color="#FF5280"/>
<stop offset="1" stop-color="#FF7061"/>
</radialGradient>
</defs>
</svg>
