<svg width="236" height="64" viewBox="0 0 236 64" fill="none" xmlns="http://www.w3.org/2000/svg">
<g clip-path="url(#clip0_2208_11193)">
<mask id="mask0_2208_11193" style="mask-type:luminance" maskUnits="userSpaceOnUse" x="0" y="4" width="236" height="57">
<path d="M235.696 4.00049H0.768555V60.0005H235.696V4.00049Z" fill="white"/>
</mask>
<g mask="url(#mask0_2208_11193)">
<path fill-rule="evenodd" clip-rule="evenodd" d="M49.1998 12.5976L49.4945 14.3791C49.7268 16.0363 49.8343 17.7087 49.8164 19.3821C49.8144 23.0801 49.3684 26.7643 48.4877 30.3559C47.2967 35.2353 45.2222 39.8553 42.367 43.9873C39.0676 48.7327 34.297 53.4002 27.3432 57.1505L26.4924 57.609L25.6418 57.1505C18.688 53.4002 13.9193 48.7327 10.618 43.9873C7.76277 39.8553 5.68832 35.2353 4.49724 30.3559C3.61674 26.765 3.17063 23.0813 3.16852 19.3841C3.15054 17.7107 3.25816 16.0383 3.49046 14.381L3.78508 12.5995C3.81022 12.4543 3.80637 12.3054 3.77375 12.1616C3.74113 12.0179 3.68037 11.8819 3.59497 11.7617C3.50959 11.6415 3.40125 11.5394 3.27622 11.4613C3.15119 11.3831 3.01193 11.3305 2.86647 11.3064C2.72101 11.2824 2.57223 11.2873 2.42869 11.321C2.28515 11.3547 2.1497 11.4165 2.03014 11.5028C1.91058 11.589 1.80928 11.6981 1.73207 11.8237C1.65487 11.9494 1.60328 12.089 1.58029 12.2347L1.28567 14.0161C1.03225 15.7939 0.914192 17.5884 0.93251 19.3841C0.933914 23.2635 1.40164 27.1286 2.32562 30.8964C3.58338 36.0417 5.77292 40.913 8.78585 45.2692C12.2686 50.2821 17.3202 55.2109 24.5901 59.1231L25.9715 59.8665C26.1343 59.9545 26.3163 60.0006 26.5012 60.0006C26.6862 60.0006 26.8683 59.9545 27.031 59.8665L28.4104 59.1231C35.6726 55.209 40.7261 50.2821 44.2147 45.2692C47.2261 40.9133 49.4143 36.0427 50.671 30.8984C51.595 27.1306 52.0627 23.2654 52.0641 19.386C52.0824 17.5903 51.9643 15.7959 51.711 14.0181L51.4163 12.2366C51.3933 12.091 51.3417 11.9513 51.2646 11.8257C51.1874 11.7001 51.086 11.591 50.9665 11.5047C50.8469 11.4184 50.7114 11.3567 50.5679 11.323C50.4244 11.2893 50.2756 11.2843 50.1301 11.3084C49.9847 11.3325 49.8454 11.3851 49.7204 11.4632C49.5953 11.5414 49.487 11.6435 49.4017 11.7637C49.3163 11.8839 49.2556 12.0198 49.2229 12.1636C49.1903 12.3074 49.1864 12.4562 49.2116 12.6015L49.1998 12.5976Z" fill="#09090B"/>
<path fill-rule="evenodd" clip-rule="evenodd" d="M9.89046 11.3839L26.4952 6.31072L43.4706 11.4932C43.7548 11.5782 44.0611 11.5471 44.3225 11.4068C44.5838 11.2664 44.7789 11.0283 44.865 10.7445C44.9513 10.4606 44.9214 10.1542 44.7823 9.8923C44.6431 9.63036 44.4058 9.43423 44.1223 9.34685L26.821 4.06486C26.6087 3.99978 26.3816 3.99978 26.1693 4.06486L9.23682 9.23367C9.09531 9.27598 8.96357 9.34581 8.84912 9.43916C8.73468 9.53253 8.63982 9.64757 8.56994 9.77768C8.50008 9.9078 8.45661 10.0504 8.44201 10.1974C8.42742 10.3444 8.442 10.4928 8.48491 10.6341C8.52782 10.7754 8.59821 10.9069 8.69205 11.0209C8.78589 11.135 8.90134 11.2293 9.03176 11.2986C9.16217 11.3679 9.305 11.4108 9.45201 11.4248C9.59904 11.4387 9.74738 11.4235 9.88852 11.38L9.89046 11.3839Z" fill="#09090B"/>
<path fill-rule="evenodd" clip-rule="evenodd" d="M1.69115 12.9254L25.4967 59.3885C25.5895 59.5701 25.7303 59.7229 25.9038 59.83C26.0772 59.9372 26.2767 59.9949 26.4807 59.9967C26.6846 59.9985 26.885 59.9445 27.0605 59.8403C27.2357 59.7362 27.3792 59.5859 27.4753 59.406L41.9927 32.2544L42.0141 32.2116L51.3062 12.8942C51.4321 12.6276 51.4478 12.3221 51.3496 12.0441C51.2516 11.766 51.0478 11.5379 50.7823 11.4094C50.517 11.2808 50.2117 11.2622 49.9327 11.3575C49.6537 11.4529 49.4236 11.6545 49.2925 11.9186L40.0161 31.2203L26.525 56.4694L3.6795 11.903C3.61366 11.7707 3.52222 11.6527 3.41046 11.556C3.29871 11.4593 3.16888 11.3857 3.02847 11.3395C2.88808 11.2933 2.73992 11.2754 2.59255 11.2869C2.4452 11.2984 2.30159 11.339 2.17005 11.4064C2.0385 11.4738 1.92163 11.5666 1.82622 11.6795C1.7308 11.7923 1.65873 11.923 1.61419 12.0639C1.56965 12.2049 1.55352 12.3532 1.56673 12.5004C1.57994 12.6477 1.62223 12.7908 1.69115 12.9215V12.9254Z" fill="#09090B"/>
<path fill-rule="evenodd" clip-rule="evenodd" d="M13.0868 33.6173H39.5591C39.8553 33.6173 40.1394 33.4997 40.3489 33.2901C40.5584 33.0807 40.6761 32.7966 40.6761 32.5003C40.6761 32.204 40.5584 31.92 40.3489 31.7104C40.1394 31.5009 39.8553 31.3832 39.5591 31.3832H13.0868C12.7905 31.3832 12.5064 31.5009 12.2969 31.7104C12.0874 31.92 11.9697 32.204 11.9697 32.5003C11.9697 32.7966 12.0874 33.0807 12.2969 33.2901C12.5064 33.4997 12.7905 33.6173 13.0868 33.6173ZM86.9248 23.9783H69.7034C69.4058 23.9799 69.1208 24.0989 68.9103 24.3093C68.6999 24.5197 68.5811 24.8046 68.5795 25.1022V38.9247C68.5815 39.2221 68.7006 39.5068 68.9109 39.7171C69.1212 39.9275 69.4059 40.0465 69.7034 40.0486H86.9248V42.39H69.7034C69.249 42.3921 68.7988 42.3042 68.3785 42.1313C67.9583 41.9582 67.5766 41.7039 67.2553 41.3826C66.934 41.0613 66.6796 40.6795 66.5065 40.2593C66.3336 39.8391 66.2457 39.3888 66.2478 38.9345V25.112C66.2457 24.6576 66.3336 24.2074 66.5065 23.7872C66.6796 23.3669 66.934 22.9852 67.2553 22.6639C67.5766 22.3426 67.9583 22.0882 68.3785 21.9153C68.7988 21.7422 69.249 21.6543 69.7034 21.6564H86.9248V23.9783ZM119.262 21.6447V23.9862H102.677V30.8291H116.008V33.19H102.675V40.0447H119.26V42.3862H100.334V21.6447H119.262Z" fill="#09090B"/>
<path d="M153.415 25.1295V31.2057C153.418 31.66 153.329 32.1101 153.156 32.5302C152.982 32.9502 152.729 33.332 152.407 33.6532C152.086 33.9745 151.704 34.2288 151.284 34.4019C150.864 34.5749 150.413 34.6631 149.96 34.6613H146.793L153.3 42.3784H150.219L143.739 34.6613H136.129C135.753 34.6421 135.378 34.6038 135.005 34.5462V42.3784H132.664V21.6739H149.941C150.396 21.6721 150.846 21.7603 151.266 21.9333C151.687 22.1064 152.068 22.3608 152.39 22.6821C152.711 23.0034 152.965 23.385 153.138 23.805C153.311 24.2251 153.399 24.6752 153.398 25.1295H153.415ZM136.137 32.3003H149.96C150.104 32.3022 150.247 32.2751 150.381 32.2207C150.514 32.1664 150.636 32.0859 150.738 31.9838C150.84 31.8817 150.92 31.7604 150.975 31.6268C151.029 31.4931 151.056 31.3499 151.054 31.2057V25.1295C151.056 24.9832 151.029 24.8378 150.976 24.7018C150.921 24.5659 150.84 24.442 150.738 24.3374C150.639 24.2303 150.518 24.1453 150.384 24.0882C150.249 24.031 150.104 24.003 149.958 24.0056H136.135C135.837 24.0072 135.553 24.1262 135.342 24.3366C135.132 24.547 135.013 24.832 135.011 25.1295V31.2057C135.008 31.3518 135.036 31.4969 135.093 31.6314C135.15 31.766 135.236 31.8869 135.343 31.9862C135.448 32.0887 135.572 32.1693 135.708 32.2232C135.845 32.2772 135.99 32.3034 136.137 32.3003Z" fill="#09090B"/>
<path fill-rule="evenodd" clip-rule="evenodd" d="M165.799 21.6447H186.525V23.9862H177.355V42.388H175.013V23.9862H165.799V21.6447ZM199.087 42.3784V21.6447H201.429V42.3784H199.087ZM232.549 21.6447H235.545L226.877 32.0115L235.573 42.3784H232.549L224.832 33.192H218.151V42.3784H215.793V21.6447H218.155V30.8291H224.836L232.549 21.6447Z" fill="#09090B"/>
</g>
</g>
<defs>
<clipPath id="clip0_2208_11193">
<rect width="235.2" height="56" fill="white" transform="translate(0.768555 4.00049)"/>
</clipPath>
</defs>
</svg>
