<svg width="193" height="64" viewBox="0 0 193 64" fill="none" xmlns="http://www.w3.org/2000/svg">
<path d="M17.6286 7.47945C18.8438 6.84084 20.6929 6.84084 21.9081 7.47945L34.3085 13.9959C35.0404 14.3805 35.4423 14.9536 35.5144 15.5453H35.5262V48.3004C35.5101 48.9457 35.1043 49.5867 34.3085 50.0051L21.9081 56.5215C20.6929 57.1602 18.8438 57.1602 17.6286 56.5215L5.22825 50.0051C4.43575 49.5887 4.05544 48.943 4.03661 48.3004C4.03474 48.2371 4.0345 48.1844 4.0363 48.1406L4.03622 15.7557C4.03497 15.7202 4.03485 15.6848 4.03587 15.6495L4.03661 15.5453L4.04216 15.5452C4.09724 14.9471 4.48095 14.3886 5.22825 13.9959L17.6286 7.47945ZM33.574 33.8192L21.9081 39.9497C20.6929 40.5883 18.8438 40.5883 17.6286 39.9497L5.98817 33.8329V48.2356L17.6286 54.3203C18.2859 54.6699 18.9681 55.0105 19.6352 55.0539L19.7684 55.0582C20.4635 55.0605 21.1383 54.7094 21.8227 54.377L33.574 48.1832V33.8192ZM2.0197 47.5883C2.0197 48.843 2.1663 49.668 2.45737 50.2492C2.69862 50.7309 3.06059 51.0988 3.72154 51.5469L3.75927 51.5723C3.90432 51.6695 4.06411 51.7715 4.2586 51.891L4.48798 52.0309L5.19231 52.4539L4.18212 54.1156L3.39378 53.6418L3.26127 53.5609C3.03333 53.4207 2.84441 53.3008 2.66819 53.1824C0.784471 51.9188 0.0819431 50.5414 0.0680809 47.6754L0.0678711 47.5883H2.0197ZM18.7922 25.0398C18.7019 25.0707 18.6173 25.1063 18.5401 25.1469L6.13981 31.6634C6.1268 31.6702 6.11438 31.677 6.10258 31.6836L6.09208 31.6897L6.11153 31.7008L6.13981 31.7161L18.5401 38.2325C18.6173 38.2731 18.7019 38.3087 18.7922 38.3396V25.0398ZM20.7446 25.0398V38.3396C20.8349 38.3087 20.9195 38.2731 20.9966 38.2325L33.3969 31.7161C33.4099 31.7092 33.4224 31.7025 33.4342 31.6958L33.4447 31.6897L33.4252 31.6786L33.3969 31.6634L20.9966 25.1469C20.9195 25.1063 20.8349 25.0707 20.7446 25.0398ZM33.574 17.8688L22.4502 23.7145L33.574 29.5602V17.8688ZM5.98817 17.8825V29.5465L17.0862 23.7145L5.98817 17.8825ZM20.9966 9.19664C20.3517 8.85776 19.185 8.85776 18.5401 9.19664L6.13981 15.7131C6.1268 15.72 6.11438 15.7267 6.10258 15.7334L6.09208 15.7395L6.11153 15.7505L6.13981 15.7658L18.5401 22.2823C19.185 22.6212 20.3517 22.6212 20.9966 22.2823L33.3969 15.7658C33.4099 15.759 33.4224 15.7522 33.4342 15.7455L33.4447 15.7395L33.4252 15.7284L33.3969 15.7131L20.9966 9.19664ZM35.4067 9.91124L36.195 10.385L36.3275 10.4659C36.5554 10.6059 36.7444 10.7261 36.9206 10.8444C38.8043 12.1079 39.5068 13.4855 39.5205 16.3513L39.5209 16.4386H37.5691C37.5691 15.1836 37.4225 14.3588 37.1314 13.7776C36.8902 13.296 36.5282 12.9279 35.8672 12.48L35.8295 12.4546C35.6845 12.3573 35.5247 12.2554 35.3302 12.1356L35.1008 11.9958L34.3965 11.5729L35.4067 9.91124Z" fill="#1969FF"/>
<path d="M59.3491 46.9347V28.6678H64.4147V25.3232H59.3491V22.9219C59.3491 20.2062 60.537 18.8483 62.9124 18.8483C63.5991 18.8483 64.3292 18.9627 65.1018 19.1914V15.6323C64.1573 15.3465 63.1128 15.2036 61.9678 15.2036C59.7643 15.2036 58.0542 15.8325 56.8378 17.0903C55.6214 18.3481 55.0132 20.1776 55.0132 22.5789V25.3232H50.8491V28.6678H55.0132V46.9347H59.3491ZM76.9502 47.2347C78.6104 47.2347 80.0627 46.8918 81.3077 46.2054C82.5526 45.5195 83.4901 44.5333 84.1198 43.2469V46.9347H88.4127V25.3232H84.1198V28.8393C83.4612 27.5529 82.517 26.5595 81.2862 25.8592C80.0557 25.1588 78.6104 24.8086 76.9502 24.8086C75.0901 24.8086 73.4299 25.2803 71.9706 26.2236C70.5108 27.167 69.3733 28.4963 68.5577 30.2115C67.7421 31.9266 67.3342 33.8991 67.3342 36.1289C67.3342 38.3586 67.7346 40.3097 68.5362 41.982C69.3374 43.6543 70.4608 44.9478 71.9061 45.8626C73.3514 46.7773 75.0327 47.2347 76.9502 47.2347ZM77.9807 43.8044C76.0057 43.8044 74.4674 43.1326 73.3659 41.789C72.2639 40.4455 71.7127 38.5587 71.7127 36.1289C71.7127 33.6704 72.2639 31.748 73.3659 30.3616C74.4674 28.9751 75.9916 28.2819 77.9377 28.2819C79.9123 28.2819 81.4366 28.9537 82.5096 30.2972C83.583 31.6408 84.1198 33.5561 84.1198 36.0431C84.1198 38.5016 83.583 40.4097 82.5096 41.7676C81.4366 43.1254 79.9268 43.8044 77.9807 43.8044ZM99.0592 46.9347V34.6281C99.0592 32.7128 99.61 31.1834 100.712 30.04C101.814 28.8965 103.281 28.3248 105.112 28.3248C106.715 28.3248 107.881 28.7536 108.611 29.6111C109.341 30.4688 109.706 31.8409 109.706 33.7276V46.9347H114.042V33.4704C114.042 27.6959 111.451 24.8086 106.271 24.8086C104.612 24.8086 103.13 25.1731 101.828 25.902C100.526 26.631 99.5314 27.6816 98.8443 29.0537L98.458 25.3232H94.4229C94.6518 27.1241 94.7662 29.1538 94.7662 31.4121V46.9347H99.0592ZM128.552 47.2347C129.754 47.2347 130.827 47.0777 131.772 46.7633V43.2469C130.999 43.4756 130.24 43.5899 129.496 43.5899C128.351 43.5899 127.457 43.2826 126.813 42.668C126.169 42.0534 125.847 41.0029 125.847 39.5164V28.6678H131.815V25.3232H125.847V18.4195L121.511 19.9203V25.3232H117.304V28.6678H121.511V39.8594C121.511 42.2607 122.127 44.0902 123.357 45.348C124.588 46.6058 126.319 47.2347 128.552 47.2347ZM145.123 47.2347C147.212 47.2347 149.058 46.7773 150.661 45.8626C152.263 44.9478 153.501 43.6471 154.374 41.9605C155.247 40.2739 155.683 38.3014 155.683 36.0431C155.683 33.7848 155.247 31.8052 154.374 30.1043C153.501 28.4034 152.263 27.0956 150.661 26.1808C149.058 25.266 147.212 24.8086 145.123 24.8086C143.005 24.8086 141.145 25.266 139.542 26.1808C137.939 27.0956 136.701 28.4034 135.828 30.1043C134.956 31.8052 134.519 33.7848 134.519 36.0431C134.519 38.3014 134.956 40.2739 135.828 41.9605C136.701 43.6471 137.939 44.9478 139.542 45.8626C141.145 46.7773 143.005 47.2347 145.123 47.2347ZM145.08 43.8044C143.105 43.8044 141.581 43.1469 140.508 41.8319C139.434 40.5169 138.898 38.5873 138.898 36.0431C138.898 33.5561 139.442 31.6408 140.529 30.2972C141.617 28.9537 143.148 28.2819 145.123 28.2819C147.069 28.2819 148.579 28.9537 149.652 30.2972C150.725 31.6408 151.261 33.5561 151.261 36.0431C151.261 38.5873 150.732 40.5169 149.673 41.8319C148.614 43.1469 147.083 43.8044 145.08 43.8044ZM165.042 46.9347V34.7138C165.042 32.7414 165.529 31.1834 166.502 30.04C167.475 28.8965 168.791 28.3248 170.451 28.3248C171.882 28.3248 172.92 28.7536 173.563 29.6111C174.207 30.4688 174.529 31.8266 174.529 33.6847V46.9347H178.865V34.7138C178.865 32.7414 179.345 31.1834 180.304 30.04C181.262 28.8965 182.572 28.3248 184.232 28.3248C185.663 28.3248 186.7 28.7536 187.344 29.6111C187.988 30.4688 188.31 31.8266 188.31 33.6847V46.9347H192.646V33.4704C192.646 27.6959 190.242 24.8086 185.434 24.8086C183.831 24.8086 182.393 25.1803 181.119 25.9235C179.845 26.6667 178.88 27.6816 178.222 28.9679C177.191 26.1951 175.002 24.8086 171.653 24.8086C170.079 24.8086 168.705 25.166 167.532 25.8806C166.358 26.5953 165.457 27.6101 164.827 28.9251L164.441 25.3232H160.406C160.634 27.1241 160.749 29.1538 160.749 31.4121V46.9347H165.042Z" fill="#1969FF"/>
</svg>
