<svg width="143" height="64" viewBox="0 0 143 64" fill="none" xmlns="http://www.w3.org/2000/svg">
<g clip-path="url(#clip0_2208_11199)">
<path d="M22.7328 51.9835C21.9961 51.9835 21.2652 51.7572 20.6986 51.248C20.1319 50.7388 19.7919 50.0655 19.7353 49.33L19.3953 46.7332C16.2278 45.8279 14.3636 43.4573 13.8536 39.7346L10.9694 17.6639C10.3461 17.5507 9.72852 17.4941 9.10522 17.5507C8.19861 17.5507 7.24099 17.6639 6.39104 17.8902V51.3612H0.741699V24.4361C0.741699 20.7699 2.37927 18.2296 5.37677 17.1547V15.4064C5.37677 13.3753 6.6177 12.074 8.43092 12.074C10.2442 12.074 11.3718 13.2056 11.6551 15.2367L11.8817 16.8152C15.1625 17.7204 17.0834 20.3682 17.6501 24.6059L20.3076 45.8845C21.8885 46.1674 23.5317 46.1674 25.1126 45.8845L27.7701 24.6059C28.3368 20.3173 30.2577 17.7204 33.5385 16.8152L33.7651 15.2367C34.0485 13.2056 35.2327 12.074 36.9893 12.074C38.7969 12.074 40.0434 13.4262 40.0434 15.4064V17.1547C43.0409 18.2296 44.6785 20.8209 44.6785 24.4361V51.3612H39.0235V17.8902C38.1169 17.6639 37.2159 17.5507 36.3093 17.5507C35.686 17.5507 35.0684 17.6073 34.4451 17.6639L31.5609 39.7346C31.1076 43.4008 29.1867 45.8279 26.0192 46.7332L25.6793 49.33C25.6226 50.0655 25.2826 50.7954 24.716 51.248C24.1494 51.7572 23.4184 51.9835 22.6818 51.9835H22.7328ZM20.4719 46.9595L20.7552 49.2169C20.8119 49.7261 21.0385 50.1787 21.3785 50.5125C21.7752 50.852 22.2285 51.0217 22.7328 50.9651C22.9594 50.9651 23.2427 50.9651 23.4694 50.852C23.696 50.7954 23.9227 50.6257 24.0927 50.4559C24.2627 50.2862 24.4327 50.1165 24.546 49.8902C24.6593 49.6639 24.716 49.4375 24.716 49.1547L24.9993 46.8972C23.4751 47.1235 21.9451 47.1235 20.4776 46.8972V46.9595H20.4719ZM40.0264 50.3428H43.6416V24.4361C43.6416 21.33 42.4006 19.1858 40.0264 18.2296V50.3994V50.3428ZM1.8183 50.3428H5.43343V18.173C3.05923 19.1858 1.8183 21.3357 1.8183 24.3796V50.2862V50.3428ZM12.1027 17.8902L14.9302 39.5648C15.3269 42.7275 16.7944 44.7586 19.3386 45.6016L16.7378 24.719C16.2845 21.0528 14.7602 18.7954 12.1027 17.8902ZM33.4138 17.8902C30.813 18.7954 29.2887 21.0528 28.7788 24.719L26.1779 45.6016C28.7221 44.6964 30.1897 42.6653 30.5863 39.5648L33.4138 17.8902ZM6.45337 16.7586C7.35999 16.5323 8.26093 16.4192 9.16755 16.4192C9.73418 16.4192 10.3008 16.4192 10.8618 16.5323L10.6918 15.2933C10.4651 13.7713 9.72852 12.9793 8.43092 12.9793C7.19 12.9793 6.39671 13.8845 6.39671 15.3498V16.7586H6.45337ZM36.298 16.4248C37.2046 16.4248 38.1056 16.538 39.0122 16.7643V15.3498C39.0122 13.8845 38.2189 12.9793 36.978 12.9793C35.737 12.9793 34.9437 13.7713 34.7171 15.2933L34.5471 16.5323C35.1137 16.4757 35.6804 16.4192 36.2413 16.4192H36.298V16.4248Z" fill="#2D2D2D"/>
<path d="M60.2101 51.3612H54.6685V12.6964H60.2101V51.3612ZM55.6884 50.3428H59.1959V13.7148H55.6884V50.3428Z" fill="#2D2D2D"/>
<path d="M96.0494 51.9835C93.6752 51.9835 93.1086 49.7827 92.9386 49.0472L92.542 47.2424C88.9268 46.62 86.7736 44.306 85.8727 40.1872L80.671 17.6129C80.0477 17.5564 79.4867 17.4998 78.8634 17.4998C77.8435 17.4998 76.8859 17.6129 75.9226 17.8958V51.3102H70.2676V24.2098C70.2676 20.7077 71.8485 18.2862 74.9026 17.1547V15.3498C74.9026 13.3187 76.1436 12.0175 77.9568 12.0175C79.5377 12.0175 80.671 13.0358 81.011 14.6709L81.4643 16.702C84.9717 17.3244 87.0626 19.5818 88.0769 23.7572L93.3919 46.3315C94.0152 46.388 94.5762 46.4446 95.1995 46.4446C96.2194 46.4446 97.177 46.3315 98.1403 46.1052V12.6964H103.795V40.6341C103.795 43.5139 102.101 45.7713 99.1603 46.8407V48.5889C99.1603 50.6766 97.976 52.0344 96.1061 52.0344L96.0494 51.9835ZM93.5619 47.4064L93.9019 48.8718C94.2985 50.3937 94.9218 51.016 96.0494 51.016C97.347 51.016 98.0837 50.1108 98.0837 48.5889V47.1235C97.1204 47.3498 96.1061 47.463 95.1428 47.463C94.6328 47.463 94.1229 47.463 93.5619 47.4064ZM71.2309 50.3428H74.846V18.2862C72.4151 19.3046 71.2309 21.3357 71.2309 24.2664V50.3428ZM81.6909 17.777L86.7793 39.9609C87.5726 43.5139 89.3235 45.4941 92.2643 46.1674L87.0626 23.9835C86.2127 20.3739 84.5751 18.4559 81.6909 17.777ZM99.0979 13.6582V45.7148C101.415 44.6964 102.713 42.8916 102.713 40.5776V13.6582H99.0979ZM75.9226 16.8152C76.8859 16.5889 77.9001 16.4192 78.8634 16.4757C79.3734 16.4757 79.8834 16.4757 80.4443 16.5323L80.0477 14.8972C79.8777 14.2183 79.4244 13.0358 77.9568 13.0358C76.4892 13.0358 75.9226 14.2183 75.9226 15.4064V16.8718V16.8152Z" fill="#2D2D2D"/>
<path d="M142.4 51.3612H136.519L133.635 39.8477H117.299L114.471 51.3612H108.589L116.165 23.4234C117.072 20.2042 119.049 18.0599 121.99 17.1038L122.5 14.9029C122.84 13.7204 123.463 12.0797 125.441 12.0797C127.475 12.0797 128.099 13.6582 128.382 14.9029L128.892 17.1038C131.833 18.0656 133.81 20.2664 134.717 23.4234L142.349 51.3612H142.4ZM137.312 50.3428H141.097L133.805 23.6441C133.068 21.0472 131.487 19.1858 129.226 18.224L133.748 36.0571H117.242L121.707 18.224C119.446 19.1858 117.865 21.0472 117.129 23.6441L109.893 50.3428H113.678L116.505 38.8294H134.366L137.312 50.3428ZM118.488 35.05H132.45L128.099 17.8336C126.348 17.381 124.54 17.381 122.784 17.8336L118.488 35.05ZM123.067 16.7021V16.7586C124.648 16.4192 126.234 16.4192 127.815 16.7586V16.7021L127.419 15.067C127.022 13.6016 126.455 13.0359 125.441 13.0359C124.364 13.0359 123.86 13.6016 123.464 15.067L123.067 16.7021Z" fill="#2D2D2D"/>
</g>
<defs>
<clipPath id="clip0_2208_11199">
<rect width="141.659" height="40" fill="white" transform="translate(0.77002 12.0005)"/>
</clipPath>
</defs>
</svg>
