<svg width="1196" height="225" viewBox="0 0 1196 225" fill="none" xmlns="http://www.w3.org/2000/svg">
<path fill-rule="evenodd" clip-rule="evenodd" d="M225.938 112.035C225.938 173.911 175.36 224.071 112.969 224.071C50.5779 224.071 -7.66523e-06 173.911 0 112.035C0 50.16 50.578 -7.60188e-06 112.969 0C175.36 0 225.938 50.16 225.938 112.035ZM112.969 203.531C62.0163 203.531 20.711 162.567 20.711 112.035C20.711 61.5038 62.0163 20.5398 112.969 20.5398C118.97 20.5398 124.838 21.1081 130.52 22.1934C133.077 22.6818 132.53 26.399 129.942 26.6934C87.366 31.5384 52.7189 68.09 52.7189 112.035C52.7189 155.981 87.3659 192.532 129.942 197.377C132.53 197.672 133.077 201.389 130.52 201.877C124.838 202.963 118.97 203.531 112.969 203.531ZM179.449 76.728C181.373 77.466 181.056 80.1658 179.148 80.9449C166.829 85.9774 158.157 98.002 158.157 112.035C158.157 126.069 166.829 138.093 179.148 143.126C181.056 143.905 181.373 146.605 179.449 147.343C175.18 148.98 170.54 149.878 165.688 149.878C144.614 149.878 127.529 132.936 127.529 112.035C127.529 91.1353 144.614 74.1923 165.688 74.1923C170.54 74.1923 175.18 75.0904 179.449 76.728ZM105.438 112.035C105.438 82.9163 126.441 58.6623 154.242 53.36C156.643 52.9021 157.109 49.5149 154.733 48.9462C149.793 47.7641 144.634 47.1379 139.328 47.1379C103.188 47.1379 73.8901 76.1935 73.8901 112.035C73.8901 147.877 103.188 176.933 139.328 176.933C144.634 176.933 149.793 176.307 154.733 175.125C157.109 174.556 156.643 171.169 154.242 170.711C126.441 165.409 105.438 141.154 105.438 112.035ZM192.047 120.998C187.056 120.998 183.01 116.985 183.01 112.035C183.01 107.085 187.056 103.073 192.047 103.073C197.039 103.073 201.085 107.085 201.085 112.035C201.085 116.985 197.039 120.998 192.047 120.998Z" fill="url(#paint0_radial_1651_2577)"/>
<path d="M368.788 186.461C351.137 186.461 336.86 182.399 325.958 174.276C316.981 167.461 310.925 158.334 307.789 146.897C306.697 142.912 309.546 139.065 313.629 138.436L335.379 135.083C339.276 134.482 342.849 137.089 344.563 140.64C346.323 144.288 348.817 147.333 352.045 149.775C357.15 153.571 363.596 155.47 371.384 155.47C377.786 155.47 382.718 154.233 386.179 151.761C389.64 149.201 391.371 145.669 391.371 141.166C391.371 138.34 390.679 136.089 389.294 134.411C387.91 132.646 384.795 130.924 379.95 129.246C375.191 127.569 367.75 125.361 357.626 122.624C346.205 119.622 337.076 116.267 330.241 112.559C323.405 108.85 318.473 104.436 315.445 99.3145C312.417 94.1052 310.902 87.8363 310.902 80.5079C310.902 71.3253 313.195 63.3788 317.781 56.6685C322.367 49.8698 328.813 44.6605 337.12 41.0404C345.513 37.332 355.376 35.4779 366.711 35.4779C377.7 35.4779 387.434 37.1996 395.914 40.6431C404.393 44.0865 411.228 48.9869 416.42 55.344C420.221 59.9222 422.968 65.0957 424.659 70.8645C425.786 74.7046 423.049 78.4289 419.113 79.1513L397.934 83.0383C393.681 83.8189 389.839 80.6607 387.682 76.9133C386.583 75.0043 385.131 73.333 383.324 71.8992C379.43 68.8089 374.152 66.9989 367.49 66.4691C361.001 66.0276 355.766 66.9106 351.786 69.1179C347.892 71.3253 345.945 74.5039 345.945 78.6537C345.945 81.1259 346.767 83.2008 348.411 84.8784C350.142 86.556 353.646 88.2777 358.924 90.0436C364.289 91.8095 372.422 94.1052 383.324 96.9306C393.967 99.756 402.489 103.067 408.892 106.864C415.382 110.572 420.097 115.075 423.039 120.373C425.981 125.582 427.452 131.895 427.452 139.312C427.452 153.969 422.26 165.491 411.877 173.879C401.494 182.267 387.131 186.461 368.788 186.461Z" fill="#282256"/>
<path d="M483.639 186.461C473.602 186.461 465.079 184.518 458.07 180.633C451.148 176.66 445.87 171.407 442.236 164.873C438.689 158.251 436.915 150.967 436.915 143.02C436.915 136.398 437.91 130.35 439.9 124.876C441.89 119.401 445.092 114.589 449.504 110.44C454.004 106.201 460.017 102.67 467.545 99.8443C472.736 97.9018 478.923 96.1801 486.105 94.6791C493.286 93.1781 501.42 91.7654 510.505 90.4409C513.044 90.0461 517.003 89.4326 520.46 88.8972C524.397 88.2874 527.186 84.6483 525.793 80.915C524.929 78.6002 523.654 76.138 521.796 74.2831C517.816 70.3099 511.154 68.3233 501.809 68.3233C496.617 68.3233 491.21 69.6035 485.585 72.1641C482.08 73.7599 479.23 76.1273 477.036 79.2663C474.704 82.6026 470.673 84.8019 466.8 83.5488L448.801 77.7252C444.936 76.4747 442.729 72.336 444.36 68.6157C448.195 59.8681 454.02 52.5305 461.834 46.6029C471.612 39.1862 484.936 35.4779 501.809 35.4779C514.182 35.4779 525.171 37.4203 534.775 41.3053C544.379 45.1902 551.647 51.9006 556.579 61.4363C559.348 66.734 560.992 72.0316 561.511 77.3293C562.03 82.6269 562.29 88.5426 562.29 95.0764V175.019C562.29 179.144 558.946 182.488 554.821 182.488H536.085C533.498 182.488 531.4 180.39 531.4 177.803C531.4 173.429 525.613 171.163 522.284 174C519.659 176.236 516.675 178.459 513.62 180.104C505.746 184.342 495.752 186.461 483.639 186.461ZM491.166 158.118C497.656 158.118 503.107 156.971 507.52 154.675C512.019 152.291 515.566 149.598 518.162 146.596C520.844 143.594 522.661 141.078 523.613 139.047C525.43 135.162 526.469 130.659 526.728 125.538C527.019 121.159 523.07 117.726 518.752 118.506C516.245 118.958 513.753 119.413 512.192 119.71C505.703 120.858 500.468 121.918 496.488 122.889C492.507 123.86 489.003 124.92 485.975 126.068C482.514 127.48 479.702 129.025 477.539 130.703C475.462 132.292 473.904 134.058 472.866 136.001C471.914 137.943 471.439 140.106 471.439 142.49C471.439 145.757 472.217 148.583 473.775 150.967C475.419 153.262 477.712 155.028 480.653 156.264C483.595 157.5 487.1 158.118 491.166 158.118Z" fill="#282256"/>
<path d="M720.85 182.488C716.719 182.488 713.373 179.135 713.381 175.005L713.613 46.6418C713.621 42.5221 716.962 39.1863 721.082 39.1863H741.979C746.104 39.1863 749.448 42.5303 749.448 46.6553V84.3371C749.448 91.6662 758.904 94.611 763.066 88.5779L794.724 42.6793C796.118 40.658 798.417 39.4511 800.872 39.4511H840.559L792.917 106.766C791.126 109.297 791.084 112.671 792.813 115.245L830.155 170.855C833.487 175.817 829.931 182.488 823.954 182.488H796.185C793.597 182.488 791.193 181.147 789.832 178.946L763.27 135.978C759.314 129.578 749.448 132.382 749.448 139.905V175.019C749.448 179.144 746.104 182.488 741.979 182.488H720.85Z" fill="#282256"/>
<path d="M889.168 186.726C878.18 186.726 869.224 184.827 862.302 181.031C855.38 177.234 849.972 172.422 846.079 166.595C842.272 160.767 839.546 154.719 837.902 148.45C836.258 142.093 835.263 136.31 834.917 131.1C834.571 125.891 834.398 122.094 834.398 119.71V39.4511H862.75C866.875 39.4511 870.219 42.7951 870.219 46.9201V106.996C870.219 110.263 870.392 114.457 870.738 119.578C871.085 124.611 872.166 129.688 873.983 134.809C875.8 139.93 878.742 144.212 882.809 147.656C886.962 151.099 892.802 152.821 900.33 152.821C903.359 152.821 906.603 152.335 910.064 151.364C913.525 150.393 916.77 148.538 919.798 145.801C922.827 142.976 925.293 138.87 927.196 133.484C929.186 128.01 930.181 111.529 930.181 102.699C951.41 112.975 954.416 130.017 943.679 153.615C941.295 158.856 938.266 163.564 934.594 167.738C931.337 171.44 927.573 174.724 923.303 177.587C914.304 183.68 902.926 186.726 889.168 186.726ZM942.063 182.488C937.938 182.488 934.594 179.144 934.594 175.019V167.738L930.181 102.699V46.9201C930.181 42.7951 933.525 39.4511 937.65 39.4511H958.274C962.399 39.4511 965.743 42.7951 965.743 46.9201V175.019C965.743 179.144 962.399 182.488 958.274 182.488H942.063Z" fill="#282256"/>
<path d="M989.63 182.488C985.505 182.488 982.161 179.144 982.161 175.019V46.9201C982.161 42.7951 985.505 39.4511 989.63 39.4511H1005.84C1009.97 39.4511 1013.31 42.7951 1013.31 46.9201V69.6507C1013.31 71.1764 1011.37 71.8235 1010.45 70.6026C1010.13 70.1723 1010.05 69.6073 1010.24 69.1054C1012.02 64.4769 1014.34 60.243 1017.2 56.4036C1020.23 52.342 1023.95 48.9869 1028.37 46.3381C1031.74 44.219 1035.42 42.5855 1039.4 41.4377C1043.38 40.2016 1047.49 39.4511 1051.73 39.1862C1055.97 38.833 1060.21 38.9213 1064.45 39.4511V73.0912C1060.55 71.855 1056.01 71.4577 1050.82 71.8992C1045.71 72.2524 1041.08 73.4443 1036.93 75.4751C1032.78 77.4176 1029.27 80.0222 1026.42 83.2891C1023.56 86.4677 1021.4 90.2644 1019.93 94.6791C1018.46 99.0055 1017.72 103.906 1017.72 109.38V175.019C1017.72 179.144 1014.38 182.488 1010.25 182.488H989.63Z" fill="#282256"/>
<path d="M1118.47 186.726C1107.48 186.726 1098.53 184.827 1091.6 181.031C1084.68 177.234 1079.27 172.422 1075.38 166.595C1071.57 160.767 1068.85 154.719 1067.2 148.45C1065.56 142.093 1064.56 136.31 1064.22 131.1C1063.87 125.891 1063.7 122.094 1063.7 119.71V39.4511H1092.05C1096.18 39.4511 1099.52 42.7951 1099.52 46.9201V106.996C1099.52 110.263 1099.69 114.457 1100.04 119.578C1100.39 124.611 1101.47 129.688 1103.28 134.809C1105.1 139.93 1108.04 144.212 1112.11 147.656C1116.26 151.099 1122.1 152.821 1129.63 152.821C1132.66 152.821 1135.9 152.335 1139.37 151.364C1142.83 150.393 1146.07 148.538 1149.1 145.801C1152.13 142.976 1154.59 138.87 1156.5 133.484C1157.5 130.721 1158.25 127.53 1158.75 123.911C1159.5 118.452 1165.25 114.819 1170.21 117.22L1175.51 119.789C1178.09 121.037 1179.76 123.651 1179.6 126.51C1179.06 136.069 1176.85 145.104 1172.98 153.615C1168.48 163.504 1161.69 171.495 1152.6 177.587C1143.61 183.68 1132.23 186.726 1118.47 186.726ZM1171.36 182.488C1167.24 182.488 1163.9 179.144 1163.9 175.019V137.28C1163.9 136.061 1162.91 135.074 1161.69 135.074C1160.47 135.074 1159.48 134.086 1159.48 132.867V46.9201C1159.48 42.7951 1162.83 39.4511 1166.95 39.4511H1187.58C1191.7 39.4511 1195.04 42.7951 1195.04 46.9201V175.019C1195.04 179.144 1191.7 182.488 1187.58 182.488H1171.36Z" fill="#282256"/>
<path d="M618.104 186.461C608.067 186.461 599.545 184.518 592.536 180.633C585.614 176.66 580.336 171.407 576.702 164.873C573.154 158.251 571.381 150.967 571.381 143.02C571.381 136.398 572.376 130.35 574.366 124.876C576.356 119.401 579.557 114.589 583.97 110.44C588.469 106.201 594.483 102.67 602.01 99.8443C607.202 97.9018 613.389 96.1801 620.57 94.6791C627.752 93.1781 635.885 91.7654 644.97 90.4409C647.51 90.0461 651.468 89.4326 654.925 88.8972C658.863 88.2874 661.652 84.6483 660.258 80.915C659.395 78.6002 658.12 76.138 656.262 74.2831C652.282 70.3099 645.619 68.3233 636.275 68.3233C631.083 68.3233 625.675 69.6035 620.051 72.1641C616.546 73.7599 613.696 76.1273 611.502 79.2663C609.169 82.6026 605.138 84.8019 601.265 83.5488L583.267 77.7252C579.402 76.4747 577.195 72.336 578.826 68.6157C582.661 59.8681 588.486 52.5305 596.3 46.6029C606.077 39.1862 619.402 35.4779 636.275 35.4779C648.648 35.4779 659.636 37.4203 669.241 41.3053C678.845 45.1902 686.113 51.9006 691.045 61.4363C693.814 66.734 695.458 72.0316 695.977 77.3293C696.496 82.6269 696.756 88.5426 696.756 95.0764V175.019C696.756 179.144 693.412 182.488 689.287 182.488H670.55C667.963 182.488 665.866 180.39 665.866 177.803C665.866 173.429 660.078 171.163 656.749 174C654.125 176.236 651.14 178.459 648.085 180.104C640.211 184.342 630.218 186.461 618.104 186.461ZM625.632 158.118C632.121 158.118 637.572 156.971 641.985 154.675C646.484 152.291 650.032 149.598 652.628 146.596C655.31 143.594 657.127 141.078 658.079 139.047C659.896 135.162 660.934 130.659 661.194 125.538C661.485 121.159 657.536 117.726 653.217 118.506C650.711 118.958 648.219 119.413 646.658 119.71C640.168 120.858 634.933 121.918 630.953 122.889C626.973 123.86 623.469 124.92 620.44 126.068C616.979 127.48 614.167 129.025 612.004 130.703C609.928 132.292 608.37 134.058 607.332 136.001C606.38 137.943 605.904 140.106 605.904 142.49C605.904 145.757 606.683 148.583 608.24 150.967C609.884 153.262 612.177 155.028 615.119 156.264C618.061 157.5 621.565 158.118 625.632 158.118Z" fill="#282256"/>
<defs>
<radialGradient id="paint0_radial_1651_2577" cx="0" cy="0" r="1" gradientUnits="userSpaceOnUse" gradientTransform="translate(77.1231 231.612) rotate(-74.5329) scale(240.315 167.013)">
<stop offset="0.0790625" stop-color="#624EFF"/>
<stop offset="0.567708" stop-color="#D715E8"/>
<stop offset="1" stop-color="#FF782D"/>
</radialGradient>
</defs>
</svg>