<svg width="24" height="24" viewBox="0 0 24 24" fill="none" xmlns="http://www.w3.org/2000/svg">
<g clip-path="url(#clip0_11633_64638)">
<path d="M22 2H2V22H22V2Z" fill="black"/>
<path d="M18.3572 13.7339H5.50244V15.2152H18.3572V13.7339Z" fill="#CEFF70"/>
<path d="M7.67655 17.3349L7.26005 18.4976H5.5L6.73355 15.2153L7.07865 15.448C7.67655 15.8502 7.92455 16.6368 7.67415 17.3324L7.67655 17.3349Z" fill="#CEFF70"/>
<path d="M18.3575 18.4975H16.5284L16.1191 17.3762C15.8575 16.6595 16.1231 15.8501 16.7499 15.4572L17.1303 15.2178L18.3567 18.5V18.4975H18.3575Z" fill="#CEFF70"/>
<path d="M17.1297 15.216H15.3472L14.8135 13.7346L11.8986 5.62129H11.8697L8.9644 13.7338L8.4355 15.2151H6.73486L7.29025 13.7338L10.4058 5.44423H11.8336L11.1369 3.5H12.7557L16.5767 13.7338L17.1305 15.2151L17.1297 15.216Z" fill="#CEFF70"/>
</g>
<defs>
<clipPath id="clip0_11633_64638">
<rect x="2" y="2" width="20" height="20" rx="10" fill="white"/>
</clipPath>
</defs>
</svg>
