<svg width="24" height="24" viewBox="0 0 24 24" fill="none" xmlns="http://www.w3.org/2000/svg">
<g clip-path="url(#clip0_11633_64629)">
<path d="M20.5365 15.439V3.7561C20.5121 2.78049 19.7316 2 18.756 2H6.60964C3.97549 2.04878 1.87793 4.19512 1.87793 6.82927C1.87793 7.70732 2.12183 8.4878 2.48769 9.14634C2.80476 9.70732 3.29256 10.2195 3.75598 10.6098C3.90232 10.7317 3.82915 10.6829 4.24378 10.9268C4.80476 11.2683 5.4633 11.439 5.4633 11.439V18.4146C5.48769 18.7561 5.51208 19.0732 5.60964 19.3659C5.87793 20.3415 6.56086 21.0976 7.48769 21.4634C7.87793 21.6098 8.31695 21.7073 8.78037 21.7317L18.4633 21.7805C20.3901 21.7805 21.9755 20.2195 21.9755 18.2683C21.9755 17.122 21.4145 16.0732 20.5365 15.439Z" fill="#FFEEDA"/>
<path d="M20.7803 18.3414C20.7315 19.5853 19.7071 20.5853 18.4632 20.5853L11.7803 20.5609C12.3169 19.9512 12.6339 19.1463 12.6339 18.2682C12.6339 16.9024 11.8291 15.9512 11.8291 15.9512H18.4876C19.7559 15.9512 20.8047 17 20.8047 18.2682L20.7803 18.3414Z" fill="#EBC28E"/>
<path d="M4.39012 9.63415C3.60964 8.90244 3.07305 7.95122 3.07305 6.82927V6.70732C3.14622 4.80488 4.7072 3.2439 6.60964 3.19512H18.7804C19.0974 3.21951 19.3413 3.43902 19.3413 3.7561V14.0732C19.6096 14.122 19.756 14.1707 20.0243 14.2439C20.2438 14.3171 20.5365 14.4878 20.5365 14.4878V3.7561C20.5121 2.78049 19.7316 2 18.756 2H6.60964C3.97549 2.04878 1.87793 4.19512 1.87793 6.82927C1.87793 8.36585 2.58525 9.68293 3.7072 10.5854C3.78037 10.6585 3.85354 10.7317 4.07305 10.7317C4.43891 10.7317 4.68281 10.439 4.65842 10.1463C4.65842 9.87805 4.56086 9.78049 4.39012 9.63415Z" fill="#101010"/>
<path d="M18.4632 14.7563H8.92659C8.29244 14.7563 7.78025 15.2685 7.78025 15.927V17.2929C7.80464 17.927 8.34123 18.4636 8.97537 18.4636H9.68269V17.2929H8.97537V15.9514C8.97537 15.9514 9.1461 15.9514 9.36562 15.9514C10.5607 15.9514 11.4632 17.0733 11.4632 18.2685C11.4632 19.3416 10.4876 20.6831 8.87781 20.5855C7.43879 20.488 6.6583 19.2197 6.6583 18.2685V6.63432C6.6583 6.12213 6.21927 5.68311 5.70708 5.68311H4.75586V6.87823H5.46318V18.2929C5.4144 20.6099 7.12171 21.7807 8.87781 21.7807L18.4876 21.8051C20.4144 21.8051 21.9998 20.2441 21.9998 18.2929C21.9754 16.3416 20.4144 14.7563 18.4632 14.7563ZM20.7802 18.3416C20.7315 19.5855 19.7071 20.5855 18.4632 20.5855L11.7802 20.5612C12.3168 19.9514 12.6339 19.1465 12.6339 18.2685C12.6339 16.9026 11.829 15.9514 11.829 15.9514H18.4876C19.7559 15.9514 20.8046 17.0002 20.8046 18.2685L20.7802 18.3416Z" fill="#101010"/>
<path d="M15.9022 7.07308H8.70703V5.90234H15.9022C16.2192 5.90234 16.4875 6.17064 16.4875 6.48771C16.4875 6.80478 16.2436 7.07308 15.9022 7.07308Z" fill="#101010"/>
<path d="M15.9022 12.6829H8.70703V11.4878H15.9022C16.2192 11.4878 16.4875 11.7561 16.4875 12.0732C16.4875 12.4146 16.2436 12.6829 15.9022 12.6829Z" fill="#101010"/>
<path d="M17.1704 9.87823H8.70703V8.68311H17.1704C17.4875 8.68311 17.7558 8.9514 17.7558 9.26847C17.7558 9.60993 17.4875 9.87823 17.1704 9.87823Z" fill="#101010"/>
</g>
<defs>
<clipPath id="clip0_11633_64629">
<rect width="20.2439" height="20" fill="white" transform="translate(1.87793 2)"/>
</clipPath>
</defs>
</svg>
