<svg width="24" height="24" viewBox="0 0 24 24" fill="none" xmlns="http://www.w3.org/2000/svg">
<mask id="mask0_11633_64651" style="mask-type:luminance" maskUnits="userSpaceOnUse" x="3" y="2" width="18" height="20">
<path d="M20.0832 2H3.9165V22H20.0832V2Z" fill="white"/>
</mask>
<g mask="url(#mask0_11633_64651)">
<path d="M11.1686 22C8.73325 20.5958 6.36482 19.2303 3.94102 17.8328C4.50603 17.6364 4.59535 17.2476 4.59337 16.7617C4.58037 13.5775 4.58324 10.3933 4.59099 7.20903C4.59208 6.74932 4.5235 6.35673 3.9165 6.1789C5.0237 5.54077 6.04664 4.95128 7.16267 4.30808C7.16267 4.68638 7.16267 4.95257 7.16267 5.21877C7.16535 9.0289 7.16535 12.8441 7.16535 16.6516C7.16119 17.2328 7.31422 17.5356 7.83587 17.827C8.25727 18.0625 8.32049 18.0842 8.64284 18.265C8.64284 18.0036 8.64462 17.8443 8.64284 17.6595C8.64284 13.1096 8.65177 8.6242 8.64284 3.98917C8.64175 3.60392 8.72949 3.36891 9.08389 3.18552C9.77109 2.83006 10.4317 2.42317 11.1686 2V22Z" fill="#33CC99"/>
<path d="M12.7651 22C15.2006 20.5958 17.5689 19.2303 19.9927 17.8328C19.4277 17.6364 19.3384 17.2476 19.3403 16.7617C19.3534 13.5775 19.3505 10.3933 19.3427 7.20903C19.3416 6.74932 19.4102 6.35673 20.0172 6.1789C18.91 5.54077 17.8871 4.95128 16.771 4.30808C16.771 4.68638 16.771 4.95257 16.771 5.21877C16.7684 9.0289 16.7684 12.8441 16.7684 16.6516C16.7725 17.2328 16.6195 17.5356 16.0979 17.827C15.6765 18.0625 15.6132 18.0842 15.2909 18.265C15.2909 18.0036 15.2891 17.8443 15.2909 17.6595C15.2909 13.1096 15.2819 8.6242 15.2909 3.98917C15.292 3.60392 15.2042 3.36891 14.8498 3.18552C14.1626 2.83006 13.5021 2.42317 12.7651 2V22Z" fill="url(#paint0_linear_11633_64651)"/>
<path d="M14.0263 3.40918L14.3099 3.98397L14.9439 4.0761L14.4851 4.5235L14.5934 5.15519L14.0263 4.85692L13.4593 5.15519L13.5676 4.5235L13.1089 4.0761L13.7429 3.98397L14.0263 3.40918Z" fill="white"/>
</g>
<defs>
<linearGradient id="paint0_linear_11633_64651" x1="12.7651" y1="12" x2="20.0172" y2="12" gradientUnits="userSpaceOnUse">
<stop stop-color="#07806D"/>
<stop offset="1" stop-color="#035663"/>
</linearGradient>
</defs>
</svg>
