<svg width="40" height="40" viewBox="0 0 40 40" fill="none" xmlns="http://www.w3.org/2000/svg">
<rect width="40" height="40" rx="20" fill="#5153FF" fill-opacity="0.1"/>
<path fill-rule="evenodd" clip-rule="evenodd" d="M30 20C30 25.5228 25.5228 30 20 30C14.4771 30 10 25.5228 10 20C10 14.4771 14.4771 10 20 10C25.5228 10 30 14.4771 30 20ZM20 28.1667C15.4897 28.1667 11.8333 24.5103 11.8333 20C11.8333 15.4897 15.4897 11.8333 20 11.8333C20.5312 11.8333 21.0506 11.8841 21.5536 11.9809C21.78 12.0245 21.7315 12.3563 21.5025 12.3826C17.7336 12.815 14.6667 16.0775 14.6667 20C14.6667 23.9224 17.7336 27.185 21.5025 27.6174C21.7315 27.6437 21.78 27.9755 21.5536 28.0191C21.0506 28.1159 20.5312 28.1667 20 28.1667ZM25.8848 16.8485C26.0551 16.9144 26.027 17.1554 25.8582 17.2249C24.7677 17.6741 24 18.7474 24 20C24 21.2526 24.7677 22.3259 25.8582 22.7751C26.027 22.8446 26.0551 23.0856 25.8848 23.1515C25.5069 23.2976 25.0961 23.3778 24.6667 23.3778C22.8012 23.3778 21.2889 21.8655 21.2889 20C21.2889 18.1345 22.8012 16.6222 24.6667 16.6222C25.0961 16.6222 25.5069 16.7024 25.8848 16.8485ZM19.3333 20C19.3333 17.4009 21.1925 15.2361 23.6535 14.7628C23.866 14.7219 23.9073 14.4196 23.6969 14.3688C23.2596 14.2633 22.803 14.2074 22.3333 14.2074C19.1342 14.2074 16.5407 16.8008 16.5407 20C16.5407 23.1992 19.1342 25.7926 22.3333 25.7926C22.803 25.7926 23.2596 25.7367 23.6969 25.6312C23.9073 25.5804 23.866 25.2781 23.6535 25.2372C21.1925 24.764 19.3333 22.5991 19.3333 20ZM27 20.8C26.5582 20.8 26.2 20.4418 26.2 20C26.2 19.5582 26.5582 19.2 27 19.2C27.4418 19.2 27.8 19.5582 27.8 20C27.8 20.4418 27.4418 20.8 27 20.8Z" fill="url(#paint0_linear_9332_14902)"/>
<defs>
<linearGradient id="paint0_linear_9332_14902" x1="10" y1="20" x2="30" y2="20" gradientUnits="userSpaceOnUse">
<stop stop-color="#3559FF"/>
<stop offset="1" stop-color="#604EFF"/>
</linearGradient>
</defs>
</svg>
