<svg width="40" height="40" viewBox="0 0 40 40" fill="none" xmlns="http://www.w3.org/2000/svg">
<rect width="40" height="40" rx="20" fill="#03D498" fill-opacity="0.05"/>
<g clip-path="url(#clip0_9332_14914)">
<path d="M27.5 10H12.5C11.1193 10 10 11.1193 10 12.5V27.5C10 28.8807 11.1193 30 12.5 30H27.5C28.8807 30 30 28.8807 30 27.5V12.5C30 11.1193 28.8807 10 27.5 10Z" fill="black"/>
<path fill-rule="evenodd" clip-rule="evenodd" d="M20.1875 12.353L19.9526 12.217L19.7178 12.353L16.1216 14.4348L15.8877 14.5702V14.8405V18.7344L12.523 20.6822L12.2891 20.8176V21.0879V25.2515V25.5218L12.523 25.6572L16.1191 27.739L16.354 27.875L16.5888 27.739L19.9502 25.7931L23.3115 27.739L23.5464 27.875L23.7812 27.739L27.3774 25.6572L27.6113 25.5218V25.2515V21.0879V20.8176L27.3774 20.6822L24.0175 18.7372V14.8405V14.5702L23.7836 14.4348L20.1875 12.353ZM16.8252 15.1108L19.9526 13.3003L23.08 15.1108V18.7339L20.6301 20.1521C20.4496 19.9984 20.2156 19.9056 19.9599 19.9056C19.7014 19.9056 19.4651 20.0004 19.2838 20.1571L16.8252 18.7339V15.1108ZM18.9301 21.039L16.354 19.5477L13.2266 21.3581V24.9812L16.354 26.7917L19.4808 24.9815V21.8572C19.1783 21.6989 18.9639 21.3952 18.9301 21.039ZM20.4189 21.8674V24.9812L23.5464 26.7917L26.6738 24.9812V21.3581L23.5482 19.5487L20.9906 21.0293C20.9591 21.3976 20.7347 21.7108 20.4189 21.8674Z" fill="#03D498"/>
<path fill-rule="evenodd" clip-rule="evenodd" d="M19.9521 16.928L23.5483 19.0098V23.1734L19.9521 25.2553L16.356 23.1734V19.0098L19.9521 16.928Z" stroke="white" stroke-width="0.9375" stroke-linecap="round"/>
</g>
<defs>
<clipPath id="clip0_9332_14914">
<rect width="20" height="20" fill="white" transform="translate(10 10)"/>
</clipPath>
</defs>
</svg>
