<svg width="40" height="40" viewBox="0 0 40 40" fill="none" xmlns="http://www.w3.org/2000/svg">
<rect width="40" height="40" rx="20" fill="#12AAFF" fill-opacity="0.1"/>
<path d="M11.8081 16.0801V23.9201C11.8081 24.4241 12.0721 24.8801 12.5121 25.1361L19.3041 29.0561C19.7361 29.3041 20.2721 29.3041 20.7041 29.0561L27.4961 25.1361C27.9281 24.8881 28.2001 24.4241 28.2001 23.9201V16.0801C28.2001 15.5761 27.9361 15.1201 27.4961 14.8641L20.7041 10.9441C20.2721 10.6961 19.7361 10.6961 19.3041 10.9441L12.5121 14.8641C12.0801 15.1121 11.8161 15.5761 11.8161 16.0801H11.8081Z" fill="#213147"/>
<path d="M21.4801 21.52L20.5121 24.176C20.4881 24.248 20.4881 24.328 20.5121 24.408L22.1761 28.976L24.1041 27.864L21.7921 21.52C21.7361 21.376 21.5361 21.376 21.4801 21.52Z" fill="#12AAFF"/>
<path d="M23.424 17.056C23.368 16.912 23.168 16.912 23.112 17.056L22.144 19.712C22.12 19.784 22.12 19.864 22.144 19.944L24.872 27.424L26.8 26.312L23.424 17.064V17.056Z" fill="#12AAFF"/>
<path d="M20.0002 11.24C20.0482 11.24 20.0962 11.256 20.1362 11.28L27.4802 15.52C27.5682 15.568 27.6162 15.664 27.6162 15.76V24.24C27.6162 24.336 27.5602 24.432 27.4802 24.48L20.1362 28.72C20.0962 28.744 20.0482 28.76 20.0002 28.76C19.9522 28.76 19.9042 28.744 19.8642 28.72L12.5202 24.48C12.4322 24.432 12.3842 24.336 12.3842 24.24V15.752C12.3842 15.656 12.4402 15.56 12.5202 15.512L19.8642 11.272C19.9042 11.248 19.9522 11.232 20.0002 11.232V11.24ZM20.0002 10C19.7362 10 19.4802 10.064 19.2402 10.2L11.8962 14.44C11.4242 14.712 11.1362 15.208 11.1362 15.752V24.232C11.1362 24.776 11.4242 25.272 11.8962 25.544L19.2402 29.784C19.4722 29.92 19.7362 29.984 20.0002 29.984C20.2642 29.984 20.5202 29.92 20.7602 29.784L28.1042 25.544C28.5762 25.272 28.8642 24.776 28.8642 24.232V15.752C28.8642 15.208 28.5762 14.712 28.1042 14.44L20.7522 10.2C20.5202 10.064 20.2562 10 19.9922 10H20.0002Z" fill="#9DCCED"/>
<path d="M15.1362 27.432L15.8162 25.576L17.1762 26.704L15.9042 27.872L15.1362 27.432Z" fill="#213147"/>
<path d="M19.376 15.152H17.512C17.376 15.152 17.248 15.24 17.2 15.368L13.208 26.312L15.136 27.424L19.536 15.368C19.576 15.256 19.496 15.144 19.384 15.144L19.376 15.152Z" fill="white"/>
<path d="M22.6398 15.152H20.7758C20.6398 15.152 20.5118 15.24 20.4638 15.368L15.9038 27.864L17.8318 28.976L22.7918 15.368C22.8318 15.256 22.7518 15.144 22.6398 15.144V15.152Z" fill="white"/>
</svg>
