<svg width="40" height="40" viewBox="0 0 40 40" fill="none" xmlns="http://www.w3.org/2000/svg">
<rect width="40" height="40" rx="20" fill="#00D2FF" fill-opacity="0.1"/>
<g clip-path="url(#clip0_9332_14922)">
<path d="M30 20C30 14.4772 25.5229 10 20 10C14.4771 10 10 14.4772 10 20C10 25.5228 14.4771 30 20 30C25.5229 30 30 25.5228 30 20Z" fill="#00D2FF"/>
<path d="M26.7487 19.5008C26.7487 19.477 26.3158 19.2005 26.088 19.0562C25.9896 18.9945 25.8983 18.9222 25.8156 18.8406C25.6451 18.6721 25.3611 18.3774 25.269 18.1961C25.2096 18.0802 25.234 17.8717 25.2802 17.6728C25.3602 17.3234 25.2996 16.9566 25.1115 16.6516L24.8152 16.1692C24.679 15.9491 24.5692 15.7136 24.4887 15.4676C24.3863 15.1515 24.2082 14.8652 23.9699 14.6336C23.4879 14.1634 22.1539 13.932 21.0458 13.895C20.9773 13.8744 20.9077 13.8578 20.8372 13.8454C20.3439 13.7614 19.8175 13.6257 19.3452 13.7138C18.6442 13.8444 17.9354 14.0641 17.4063 14.6062C17.2996 14.7157 17.133 14.7673 17.018 14.871C16.7902 15.0766 16.4834 15.0766 16.281 15.3049C16.1624 15.4382 16.1076 15.873 15.797 16.039C15.2831 16.3144 14.9028 16.6177 14.7783 16.7724C14.6842 16.8888 14.6112 17.0249 14.5196 17.1438C14.4263 17.2658 13.9835 17.4724 13.8548 17.6016C13.7262 17.7308 13.5536 18.0452 13.6311 18.4166C13.6383 18.4505 13.6444 18.4785 13.6488 18.5012C13.6995 18.69 13.8372 19.0322 13.8054 19.1892C13.7683 19.3749 13.2904 20.7596 14.3582 21.1286C14.5804 21.2056 14.6746 21.3553 14.6988 21.5833C14.7176 21.7534 14.7682 21.928 14.8568 22.1158C14.954 22.3208 15.1454 22.4322 15.161 22.4458C15.2254 22.5026 15.5251 22.8154 15.5498 22.861C15.9286 23.5612 15.8222 23.911 16.5472 24.1489C16.7335 24.2104 16.9124 24.2924 17.0806 24.3934C17.2855 24.5168 17.5049 24.614 17.7339 24.683C17.7406 24.6849 17.7507 24.6885 17.7626 24.6928C17.9236 24.3036 18.087 23.9344 18.2498 23.5869C16.9446 22.2485 17.2878 20.749 17.413 20.3469C17.4167 20.335 17.4233 20.3242 17.4323 20.3155C17.4412 20.3068 17.4522 20.3004 17.4642 20.2971C17.4762 20.2937 17.4889 20.2934 17.5011 20.2962C17.5133 20.299 17.5245 20.3048 17.5339 20.313C17.8078 20.553 18.6406 21.4188 18.5428 22.9816C18.8308 22.4064 19.111 21.9005 19.3668 21.4686C18.425 19.8724 19.1268 18.4732 19.348 18.1042C19.3545 18.0934 19.3637 18.0843 19.3746 18.0779C19.3856 18.0715 19.3979 18.068 19.4106 18.0676C19.4233 18.0673 19.4358 18.0701 19.4471 18.0759C19.4584 18.0817 19.468 18.0903 19.4751 18.1008C19.6671 18.3858 20.1888 19.3204 19.8658 20.6668C20.1 20.3086 20.2902 20.0436 20.4144 19.8772C20.751 17.6516 22.4318 16.9213 22.8735 16.7665C22.8853 16.7623 22.898 16.7611 22.9104 16.7631C22.9229 16.7651 22.9346 16.7702 22.9445 16.7779C22.9544 16.7856 22.9622 16.7957 22.9672 16.8072C22.9722 16.8187 22.9742 16.8313 22.9731 16.8438C22.9323 17.3041 22.6486 19.0764 20.699 19.9865C20.4647 20.2952 20.239 20.6201 20.0231 20.9534C20.7686 20.3716 21.8134 20.0973 22.6814 20.308C22.6936 20.3108 22.705 20.3166 22.7144 20.3249C22.7239 20.3332 22.7311 20.3437 22.7355 20.3555C22.7398 20.3673 22.7412 20.38 22.7394 20.3924C22.7377 20.4048 22.7328 20.4166 22.7254 20.4268C22.4758 20.7572 21.4831 21.8716 19.6134 21.6162C19.2974 22.1489 19.0078 22.6886 18.7507 23.2049C19.558 22.594 20.7379 22.36 21.6534 22.6676C21.6655 22.6715 21.6766 22.6784 21.6854 22.6876C21.6942 22.6969 21.7006 22.7082 21.7039 22.7206C21.7072 22.733 21.7074 22.746 21.7044 22.7584C21.7014 22.7708 21.6953 22.7823 21.6867 22.7918C21.4024 23.0985 20.3078 24.1021 18.508 23.7036C18.3394 24.0601 18.0878 24.6464 17.965 24.9361C17.9227 25.0357 17.8838 25.1361 17.8492 25.2389C17.7692 25.4749 17.6626 25.7693 17.5344 26.0638C17.5164 26.1058 17.5072 26.1512 17.5074 26.1968C17.5076 26.2425 17.5172 26.2877 17.5356 26.3296C17.554 26.3714 17.5808 26.409 17.6144 26.4401C17.648 26.471 17.6875 26.4949 17.7307 26.51C19.1509 27.017 20.6929 27.0742 22.1467 26.6736C22.1947 26.66 22.2391 26.6357 22.2765 26.6026C22.3138 26.5694 22.3432 26.5284 22.3624 26.4822C22.3927 26.4104 22.4226 26.3424 22.4226 26.3424C22.4226 26.3424 23.0503 24.8842 23.1426 24.249C23.179 23.9993 23.2515 23.812 23.3263 23.6757C23.3754 23.5866 23.4463 23.5116 23.5323 23.4574C23.6184 23.4033 23.7168 23.372 23.8184 23.3665C24.2968 23.3412 25.3155 23.2744 25.686 23.1569C26.1786 23.0005 25.965 22.1036 25.9386 22.0068C25.9122 21.91 26.1755 21.6853 26.2298 21.5541C26.284 21.4229 26.0964 21.378 26.02 21.2341C25.9436 21.0902 26.21 20.9865 26.248 20.8558C26.286 20.7252 26.1614 20.5814 26.1108 20.4848C26.0603 20.3881 26.041 20.2672 26.041 20.2672C26.041 20.2672 26.401 20.0033 26.5927 19.8368C26.7844 19.6702 26.7486 19.533 26.7482 19.5006" fill="black"/>
</g>
<defs>
<clipPath id="clip0_9332_14922">
<rect width="20" height="20" fill="white" transform="translate(10 10)"/>
</clipPath>
</defs>
</svg>
