<svg width="40" height="40" viewBox="0 0 40 40" fill="none" xmlns="http://www.w3.org/2000/svg">
<rect width="40" height="40" rx="20" fill="#F4C31A" fill-opacity="0.1"/>
<path d="M16.5998 14.2L14.6998 13.1L19.9998 10L25.2998 13.1L23.3998 14.2L19.9998 12.3L16.5998 14.2ZM26.6998 16.1V18.4L28.5998 17.3V15L26.6998 13.9L24.7998 15L26.6998 16.1ZM18.0998 15L19.9998 16.1L21.8998 15L19.9998 13.9L18.0998 15ZM25.2998 16.9L23.3998 15.8L19.9998 17.7L16.5998 15.8L14.6998 16.9V19.2L18.0998 21.1V25L19.9998 26.1L21.8998 25V21.1L25.2998 19.2V16.9ZM26.6998 23.9L23.3998 25.8V28.1L28.6998 25V18.9L26.6998 20V23.9ZM23.3998 24.2L25.2998 23.1V20.8L23.3998 21.9V24.2ZM18.0998 26.6V28.9L19.9998 30L21.8998 28.9V26.6L19.9998 27.7L18.0998 26.6ZM11.2998 17.3L13.1998 18.4V16.1L15.1998 15L13.2998 13.9L11.2998 15V17.3ZM13.2998 20L11.3998 18.9V25L16.6998 28.1V25.8L13.2998 23.9V20ZM16.5998 21.9L14.6998 20.8V23.1L16.5998 24.2V21.9Z" fill="url(#paint0_linear_9332_14907)"/>
<defs>
<linearGradient id="paint0_linear_9332_14907" x1="19.9998" y1="10" x2="19.9998" y2="30" gradientUnits="userSpaceOnUse">
<stop stop-color="#F9D230"/>
<stop offset="1" stop-color="#F0B90C"/>
</linearGradient>
</defs>
</svg>
