<svg width="40" height="40" viewBox="0 0 40 40" fill="none" xmlns="http://www.w3.org/2000/svg">
<rect width="40" height="40" rx="20" fill="#5FC0C1" fill-opacity="0.1"/>
<g clip-path="url(#clip0_9332_14915)">
<path d="M24.0424 12.1986C26.3119 13.1915 27.8722 15.6028 27.7303 18.0142C23.6168 18.0142 19.5034 18.0142 15.5317 18.0142C15.5317 16.4539 16.0991 14.7518 17.2339 13.617C18.7941 11.6312 21.7729 11.0638 24.0424 12.1986Z" fill="#5FC0C1"/>
<path d="M23.7589 27.6595C24.0426 27.6595 24.1845 27.8014 24.1845 27.9432C24.1845 28.0851 24.0426 28.2269 23.7589 28.2269H17.2341C16.9504 28.2269 16.8086 28.0851 16.8086 27.9432C16.8086 27.8014 16.9504 27.6595 17.2341 27.6595H23.7589Z" fill="#E1177C"/>
<path d="M15.8157 28.3688C16.0994 28.3688 16.2412 28.2269 16.2412 27.9432C16.2412 27.6595 16.0994 27.5177 15.8157 27.5177C15.532 27.5177 15.3901 27.6595 15.3901 27.9432C15.3901 28.2269 15.532 28.3688 15.8157 28.3688Z" fill="#E1177C"/>
<path d="M19.7873 26.6667C20.071 26.6667 20.2129 26.5249 20.2129 26.2412C20.2129 25.9575 20.071 25.8157 19.7873 25.8157C19.5037 25.8157 19.3618 25.9575 19.3618 26.2412C19.3618 26.5249 19.5037 26.6667 19.7873 26.6667Z" fill="#E1177C"/>
<path d="M27.4467 25.8157C27.7304 25.8157 27.8722 25.9575 27.8722 26.2412C27.8722 26.5249 27.7304 26.6667 27.4467 26.6667H21.0637C20.78 26.6667 20.6382 26.5249 20.6382 26.2412C20.6382 25.9575 20.78 25.8157 21.0637 25.8157H27.4467Z" fill="#E1177C"/>
<path d="M11.2766 24.9646C11.5603 24.9646 11.7021 24.8227 11.7021 24.5391C11.7021 24.2554 11.5603 24.1135 11.2766 24.1135C10.9929 24.1135 10.8511 24.2554 10.8511 24.5391C10.8511 24.8227 11.1348 24.9646 11.2766 24.9646Z" fill="#E1177C"/>
<path d="M17.6596 24.1135C17.9433 24.1135 18.0851 24.2554 18.0851 24.5391C18.0851 24.8227 17.9433 24.9646 17.6596 24.9646H12.4114C12.1277 24.9646 11.9858 24.8227 11.9858 24.5391C11.9858 24.2554 12.1277 24.1135 12.4114 24.1135H17.6596Z" fill="#E1177C"/>
<path d="M29.5743 24.1135C29.858 24.1135 29.9999 24.2554 29.9999 24.5391C29.9999 24.8227 29.858 24.9646 29.5743 24.9646H19.0779C18.7942 24.9646 18.6523 24.8227 18.6523 24.5391C18.6523 24.2554 18.7942 24.1135 19.0779 24.1135H29.5743Z" fill="#E1177C"/>
<path d="M27.5887 22.4114C27.8724 22.4114 28.0142 22.5532 28.0142 22.8369C28.0142 23.1206 27.8724 23.2624 27.5887 23.2624H14.6809C14.5391 23.4043 14.2554 23.1206 14.2554 22.8369C14.2554 22.5532 14.3972 22.4114 14.6809 22.4114H27.5887Z" fill="#E1177C"/>
<path d="M13.2624 23.4043C13.5461 23.4043 13.688 23.2624 13.688 22.9788C13.688 22.6951 13.5461 22.4114 13.2624 22.4114C12.9788 22.4114 12.8369 22.6951 12.8369 22.8369C12.8369 22.9788 12.9788 23.4043 13.2624 23.4043Z" fill="#E1177C"/>
<path d="M24.8934 20.8511C25.1771 20.8511 25.3189 20.9929 25.3189 21.2766C25.3189 21.5603 25.1771 21.7021 24.8934 21.7021H11.9856C11.8437 21.7021 11.5601 21.5603 11.5601 21.2766C11.5601 20.9929 11.7019 20.8511 11.9856 20.8511H24.8934Z" fill="#E1177C"/>
<path d="M10.4255 21.7021C10.7092 21.7021 10.8511 21.5603 10.8511 21.2766C10.8511 20.9929 10.7092 20.8511 10.4255 20.8511C10.1418 20.8511 10 20.9929 10 21.2766C10 21.5603 10.1418 21.7021 10.4255 21.7021Z" fill="#E1177C"/>
<path d="M13.2624 20C13.5461 20 13.688 19.8581 13.688 19.5745C13.688 19.2908 13.5461 19.1489 13.2624 19.1489C12.9788 19.1489 12.8369 19.4326 12.8369 19.5745C12.8369 19.8581 12.9788 20 13.2624 20Z" fill="#E1177C"/>
<path d="M28.8651 19.1489C29.1487 19.1489 29.2906 19.2908 29.2906 19.5745C29.2906 19.8581 29.1487 20 28.8651 20H14.8225C14.5388 20 14.397 19.8581 14.397 19.5745C14.397 19.2908 14.5388 19.1489 14.8225 19.1489H28.8651Z" fill="#E1177C"/>
</g>
<defs>
<clipPath id="clip0_9332_14915">
<rect width="20" height="16.7376" fill="white" transform="translate(10 11.6312)"/>
</clipPath>
</defs>
</svg>
