<svg width="40" height="40" viewBox="0 0 40 40" fill="none" xmlns="http://www.w3.org/2000/svg">
<rect width="40" height="40" rx="20" fill="#FF0420" fill-opacity="0.1"/>
<g clip-path="url(#clip0_9332_14906)">
<path d="M20 30C25.5228 30 30 25.5228 30 20C30 14.4772 25.5228 10 20 10C14.4772 10 10 14.4772 10 20C10 25.5228 14.4772 30 20 30Z" fill="#FF0420"/>
<path d="M17.0842 22.656C16.4882 22.656 16.0002 22.516 15.6202 22.236C15.2442 21.952 15.0562 21.544 15.0562 21.02C15.0562 20.908 15.0682 20.776 15.0922 20.616C15.1562 20.256 15.2482 19.824 15.3682 19.316C15.7082 17.94 16.5882 17.252 18.0042 17.252C18.3882 17.252 18.7362 17.316 19.0402 17.448C19.3442 17.572 19.5842 17.764 19.7602 18.02C19.9362 18.272 20.0242 18.572 20.0242 18.92C20.0242 19.024 20.0122 19.156 19.9882 19.316C19.9122 19.76 19.8242 20.196 19.7162 20.616C19.5402 21.3 19.2402 21.816 18.8082 22.156C18.3802 22.492 17.8042 22.656 17.0842 22.656ZM17.1922 21.576C17.4722 21.576 17.7082 21.492 17.9042 21.328C18.1042 21.164 18.2482 20.912 18.3322 20.568C18.4482 20.096 18.5362 19.688 18.5962 19.336C18.6162 19.232 18.6282 19.124 18.6282 19.012C18.6282 18.556 18.3922 18.328 17.9162 18.328C17.6362 18.328 17.3962 18.412 17.1962 18.576C17.0002 18.74 16.8602 18.992 16.7762 19.336C16.6842 19.672 16.5962 20.08 16.5042 20.568C16.4842 20.668 16.4722 20.772 16.4722 20.884C16.4682 21.348 16.7122 21.576 17.1922 21.576Z" fill="white"/>
<path d="M20.3718 22.584C20.3158 22.584 20.2758 22.568 20.2438 22.532C20.2198 22.492 20.2118 22.448 20.2198 22.396L21.2558 17.516C21.2638 17.46 21.2918 17.416 21.3398 17.38C21.3838 17.344 21.4318 17.328 21.4838 17.328H23.4798C24.0358 17.328 24.4798 17.444 24.8158 17.672C25.1558 17.904 25.3278 18.236 25.3278 18.672C25.3278 18.796 25.3118 18.928 25.2838 19.064C25.1598 19.64 24.9078 20.064 24.5238 20.34C24.1478 20.616 23.6318 20.752 22.9758 20.752H21.9638L21.6198 22.396C21.6078 22.452 21.5838 22.496 21.5358 22.532C21.4918 22.568 21.4438 22.584 21.3918 22.584H20.3718ZM23.0278 19.716C23.2398 19.716 23.4198 19.66 23.5758 19.544C23.7358 19.428 23.8398 19.264 23.8918 19.048C23.9078 18.964 23.9158 18.888 23.9158 18.824C23.9158 18.68 23.8718 18.568 23.7878 18.492C23.7038 18.412 23.5558 18.372 23.3518 18.372H22.4518L22.1678 19.716H23.0278Z" fill="white"/>
</g>
<defs>
<clipPath id="clip0_9332_14906">
<rect width="20" height="20" fill="white" transform="translate(10 10)"/>
</clipPath>
</defs>
</svg>
