<svg width="40" height="40" viewBox="0 0 40 40" fill="none" xmlns="http://www.w3.org/2000/svg">
<rect width="40" height="40" rx="20" fill="#A8FF00" fill-opacity="0.1"/>
<g clip-path="url(#clip0_9332_14909)">
<path d="M30 10H10V30H30V10Z" fill="black"/>
<path d="M26.3572 21.7339H13.5024V23.2152H26.3572V21.7339Z" fill="#CEFF70"/>
<path d="M15.6765 25.3349L15.26 26.4976H13.5L14.7336 23.2153L15.0786 23.448C15.6765 23.8502 15.9246 24.6368 15.6741 25.3324L15.6765 25.3349Z" fill="#CEFF70"/>
<path d="M26.3575 26.4975H24.5284L24.1191 25.3762C23.8575 24.6595 24.1231 23.8501 24.7499 23.4572L25.1303 23.2178L26.3567 26.5V26.4975H26.3575Z" fill="#CEFF70"/>
<path d="M25.1297 23.216H23.3472L22.8135 21.7346L19.8986 13.6213H19.8697L16.9644 21.7338L16.4355 23.2151H14.7349L15.2902 21.7338L18.4058 13.4442H19.8336L19.1369 11.5H20.7557L24.5767 21.7338L25.1305 23.2151L25.1297 23.216Z" fill="#CEFF70"/>
</g>
<defs>
<clipPath id="clip0_9332_14909">
<rect x="10" y="10" width="20" height="20" rx="10" fill="white"/>
</clipPath>
</defs>
</svg>
