<svg width="40" height="40" viewBox="0 0 40 40" fill="none" xmlns="http://www.w3.org/2000/svg">
<rect width="40" height="40" rx="20" fill="#33CC99" fill-opacity="0.1"/>
<mask id="mask0_9332_14911" style="mask-type:luminance" maskUnits="userSpaceOnUse" x="11" y="10" width="18" height="20">
<path d="M28.0832 10H11.9165V30H28.0832V10Z" fill="white"/>
</mask>
<g mask="url(#mask0_9332_14911)">
<path d="M19.1686 30C16.7333 28.5958 14.3648 27.2303 11.941 25.8328C12.506 25.6364 12.5954 25.2476 12.5934 24.7617C12.5804 21.5775 12.5832 18.3933 12.591 15.209C12.5921 14.7493 12.5235 14.3567 11.9165 14.1789C13.0237 13.5408 14.0466 12.9513 15.1627 12.3081C15.1627 12.6864 15.1627 12.9526 15.1627 13.2188C15.1654 17.0289 15.1654 20.8441 15.1654 24.6516C15.1612 25.2328 15.3142 25.5356 15.8359 25.827C16.2573 26.0625 16.3205 26.0842 16.6428 26.265C16.6428 26.0036 16.6446 25.8443 16.6428 25.6595C16.6428 21.1096 16.6518 16.6242 16.6428 11.9892C16.6418 11.6039 16.7295 11.3689 17.0839 11.1855C17.7711 10.8301 18.4317 10.4232 19.1686 10V30Z" fill="#33CC99"/>
<path d="M20.7651 30C23.2006 28.5958 25.5689 27.2303 27.9927 25.8328C27.4277 25.6364 27.3384 25.2476 27.3403 24.7617C27.3534 21.5775 27.3505 18.3933 27.3427 15.209C27.3416 14.7493 27.4102 14.3567 28.0172 14.1789C26.91 13.5408 25.8871 12.9513 24.771 12.3081C24.771 12.6864 24.771 12.9526 24.771 13.2188C24.7684 17.0289 24.7684 20.8441 24.7684 24.6516C24.7725 25.2328 24.6195 25.5356 24.0979 25.827C23.6765 26.0625 23.6132 26.0842 23.2909 26.265C23.2909 26.0036 23.2891 25.8443 23.2909 25.6595C23.2909 21.1096 23.2819 16.6242 23.2909 11.9892C23.292 11.6039 23.2042 11.3689 22.8498 11.1855C22.1626 10.8301 21.5021 10.4232 20.7651 10V30Z" fill="url(#paint0_linear_9332_14911)"/>
<path d="M22.0263 11.4093L22.3099 11.9841L22.9439 12.0762L22.4851 12.5236L22.5934 13.1553L22.0263 12.857L21.4593 13.1553L21.5676 12.5236L21.1089 12.0762L21.7429 11.9841L22.0263 11.4093Z" fill="white"/>
</g>
<defs>
<linearGradient id="paint0_linear_9332_14911" x1="20.7651" y1="20" x2="28.0172" y2="20" gradientUnits="userSpaceOnUse">
<stop stop-color="#07806D"/>
<stop offset="1" stop-color="#035663"/>
</linearGradient>
</defs>
</svg>
