<svg width="40" height="40" viewBox="0 0 40 40" fill="none" xmlns="http://www.w3.org/2000/svg">
<rect width="40" height="40" rx="20" fill="#178EF9" fill-opacity="0.1"/>
<path fill-rule="evenodd" clip-rule="evenodd" d="M14.6495 27.1712C12.4674 25.5407 11.0516 22.9348 11.0516 20C11.0516 15.0598 15.0598 11.0516 20 11.0516C24.0788 11.0516 28.5326 13.4891 29.6087 17.2228C28.4049 13.0516 24.5598 10 20 10C14.4783 10 10 14.4783 10 20C10 25.5217 14.4783 30 20 30C25.5217 30 30 25.5217 30 20V19.4728H29.4511C29.4348 19.4728 29.4103 19.4728 29.3777 19.4728C29.3125 19.4728 29.2201 19.4701 29.1006 19.4647C28.8641 19.4565 28.5381 19.4402 28.1712 19.4076C27.4212 19.3424 26.5652 19.2147 25.9837 18.981C25.0462 18.606 24.5163 18.1114 23.9131 17.5299L23.8777 17.4973C23.2717 16.9158 22.5924 16.2609 21.4103 15.7065C20.2473 15.1603 18.9619 15.2473 18.019 15.4429C17.5408 15.5408 17.1277 15.6712 16.8369 15.7772C16.6902 15.8288 16.5734 15.8777 16.4919 15.9103C16.0163 16.1114 15.5544 16.3478 15.0897 16.5679C15.0897 16.5679 16.0054 16.8179 16.4565 16.9592C16.4728 16.9647 16.4973 16.9728 16.5326 16.9837C16.6006 17.0054 16.6984 17.0408 16.8152 17.0897C17.0544 17.1875 17.3669 17.3315 17.6766 17.5326C18.1658 17.8451 18.5706 18.2419 18.7364 18.7256C17.7011 18.8614 16.7283 19.3179 16 19.7446C15.5598 20.0027 15.1929 20.2636 14.9348 20.4565C14.8071 20.5544 14.7038 20.6359 14.6332 20.6929C14.5734 20.7419 13.6386 21.5652 13.6386 21.5652C13.6386 21.5652 14.8451 21.6929 15.4402 21.8125C15.837 21.8913 16.3696 22.0218 16.9294 22.2147C17.4891 22.4103 18.0544 22.6657 18.5244 22.9946C18.9946 23.3234 19.3397 23.7011 19.5081 24.1359C20.0027 25.4022 19.5163 26.6331 18.5408 27.3261C17.5761 28.0109 16.1114 28.1739 14.6467 27.1685L14.6495 27.1712ZM18.0625 28.7364C18.4565 28.6087 18.8234 28.4212 19.1549 28.1875C20.481 27.2446 21.1794 25.5163 20.4919 23.7554C20.2201 23.0625 19.7038 22.5353 19.1304 22.1331C18.5544 21.731 17.894 21.4375 17.2799 21.2228C16.8777 21.0815 16.4864 20.9728 16.1467 20.8913C16.269 20.8125 16.3967 20.731 16.5353 20.6494C17.3451 20.1739 18.3669 19.7364 19.3451 19.7364C20.8206 19.7364 21.9185 20.1902 22.9674 20.6739C23.0625 20.7174 23.1576 20.7636 23.2554 20.8071C24.1929 21.2473 25.1766 21.7093 26.3206 21.7093C27.4647 21.7093 28.2935 21.3967 28.8886 21.0706C28.3587 25.5054 24.5842 28.9456 20.0054 28.9456C19.3397 28.9456 18.6902 28.8723 18.0679 28.7364H18.0625ZM27.7473 20.4266C27.3533 20.5598 26.875 20.6576 26.3179 20.6576C25.4212 20.6576 24.6494 20.2989 23.6712 19.8424C23.5842 19.8016 23.4973 19.7609 23.4076 19.7201C22.4266 19.2663 21.2935 18.7853 19.8179 18.6984C19.6196 17.7228 18.8804 17.0544 18.2446 16.6467C18.1739 16.6006 18.1032 16.5571 18.0326 16.5163C18.0951 16.5027 18.1603 16.4864 18.2283 16.4728C19.0815 16.2962 20.0978 16.2527 20.9592 16.6603C21.981 17.1413 22.5598 17.6956 23.1603 18.2718L23.1821 18.2907C23.7989 18.8831 24.4538 19.5054 25.5924 19.9619C26.2256 20.2147 27.0462 20.3506 27.7473 20.4266Z" fill="url(#paint0_linear_9332_14905)"/>
<defs>
<linearGradient id="paint0_linear_9332_14905" x1="9.82065" y1="20.1848" x2="30.1794" y2="19.8125" gradientUnits="userSpaceOnUse">
<stop stop-color="#29CCB9"/>
<stop offset="0.49" stop-color="#0091FF"/>
<stop offset="1" stop-color="#FF66B7"/>
</linearGradient>
</defs>
</svg>
