<svg width="40" height="40" viewBox="0 0 40 40" fill="none" xmlns="http://www.w3.org/2000/svg">
<rect width="40" height="40" rx="20" fill="#1969FF" fill-opacity="0.1"/>
<g clip-path="url(#clip0_9332_14917)">
<path d="M20 30C25.5228 30 30 25.5228 30 20C30 14.4772 25.5228 10 20 10C14.4772 10 10 14.4772 10 20C10 25.5228 14.4772 30 20 30Z" fill="#1969FF"/>
<path d="M19.3936 13.1801C19.7305 13.0025 20.2431 13.0025 20.5801 13.1801L24.0179 14.9925C24.2208 15.0995 24.3322 15.2589 24.3522 15.4234H24.3555V24.5334C24.351 24.7129 24.2385 24.8912 24.0179 25.0075L20.5801 26.8199C20.2431 26.9975 19.7305 26.9975 19.3936 26.8199L15.9558 25.0075C15.7361 24.8917 15.6306 24.7121 15.6254 24.5334C15.6249 24.5151 15.6248 24.5 15.6254 24.4875L15.6254 15.4847C15.6249 15.4721 15.6249 15.4595 15.6254 15.4469L15.6254 15.4234H15.627C15.6422 15.257 15.7486 15.1017 15.9558 14.9925L19.3936 13.1801ZM23.8086 20.4883L20.579 22.1965C20.2426 22.3744 19.7307 22.3744 19.3943 22.1965L16.1719 20.4921V24.5053L19.3943 26.2006C19.5847 26.3025 19.7827 26.4018 19.9755 26.4061L19.9866 26.4062C20.1791 26.4069 20.3659 26.309 20.5553 26.2164L23.8086 24.4906V20.4883ZM15.0864 24.3359C15.0864 24.6852 15.1266 24.9147 15.2065 25.0764C15.2727 25.2104 15.372 25.3129 15.5534 25.4375L15.5638 25.4446C15.6036 25.4717 15.6474 25.5 15.7008 25.5334L15.7637 25.5723L15.957 25.6899L15.6798 26.1523L15.4635 26.0205L15.4271 25.998C15.3646 25.959 15.3127 25.9256 15.2644 25.8927C14.7474 25.5411 14.5546 25.1577 14.5508 24.3602L14.5508 24.3359H15.0864ZM19.7266 18.0664C19.7015 18.075 19.6781 18.085 19.6567 18.0963L16.2242 19.9145C16.2205 19.9164 16.2171 19.9183 16.2138 19.9202L16.2109 19.9219L16.2163 19.925L16.2242 19.9292L19.6567 21.7475C19.6781 21.7588 19.7015 21.7687 19.7266 21.7773V18.0664ZM20.2734 18.0664V21.7773C20.2985 21.7687 20.3219 21.7588 20.3433 21.7475L23.7758 19.9292C23.7794 19.9273 23.7829 19.9254 23.7861 19.9236L23.7891 19.9219L23.7837 19.9188L23.7758 19.9145L20.3433 18.0963C20.3219 18.085 20.2985 18.075 20.2734 18.0664ZM23.8086 16.0742L20.7227 17.6953L23.8086 19.3164V16.0742ZM16.1719 16.0742V19.3164L19.2578 17.6953L16.1719 16.0742ZM20.3403 13.6646C20.1616 13.5701 19.8384 13.5701 19.6597 13.6646L16.2242 15.4809C16.2206 15.4828 16.2171 15.4847 16.2138 15.4866L16.2109 15.4883L16.2163 15.4914L16.2242 15.4956L19.6597 17.312C19.8384 17.4064 20.1616 17.4064 20.3403 17.312L23.7758 15.4956C23.7794 15.4937 23.7829 15.4918 23.7861 15.49L23.7891 15.4883L23.7837 15.4852L23.7758 15.4809L20.3403 13.6646ZM24.3202 13.8477L24.5365 13.9795L24.5729 14.002C24.6354 14.041 24.6873 14.0744 24.7356 14.1073C25.2526 14.4589 25.4454 14.8423 25.4492 15.6398L25.4492 15.6641H24.9136C24.9136 15.3148 24.8734 15.0853 24.7935 14.9236C24.7273 14.7895 24.628 14.6871 24.4466 14.5625L24.4362 14.5554C24.3964 14.5283 24.3526 14.5 24.2992 14.4666L24.2363 14.4277L24.043 14.3101L24.3202 13.8477Z" fill="white"/>
</g>
<defs>
<clipPath id="clip0_9332_14917">
<rect width="20" height="20" fill="white" transform="translate(10 10)"/>
</clipPath>
</defs>
</svg>
