<svg width="40" height="40" viewBox="0 0 40 40" fill="none" xmlns="http://www.w3.org/2000/svg">
<rect width="40" height="40" rx="20" fill="#E13022" fill-opacity="0.1"/>
<g clip-path="url(#clip0_9332_14912)">
<path d="M28.945 21.5675C28.945 22.4471 28.945 23.3268 28.945 24.2064C28.814 24.3226 28.6512 24.3153 28.493 24.3154C24.4158 24.3175 20.3385 24.3184 16.2613 24.3148C15.7141 24.3143 15.6128 24.2095 15.6118 23.6507C15.6078 21.362 15.6079 19.0735 15.6117 16.7848C15.6127 16.2132 15.713 16.1138 16.2889 16.1131C19.3894 16.1097 22.4899 16.112 25.5904 16.1115C26.2428 16.1114 26.2433 16.1109 26.2433 15.4594C26.2432 15.031 26.2397 14.6025 26.2439 14.1741C26.2463 13.9328 26.1464 13.8192 25.9 13.8296C25.7755 13.8348 25.6502 13.8288 25.5253 13.8288C20.7553 13.8287 15.9853 13.829 11.2153 13.8286C10.5077 13.8285 10.4996 13.8274 10.51 13.1361C10.5203 12.4506 10.4648 11.764 10.5407 11.0795C16.5846 11.0795 22.6284 11.0813 28.6723 11.073C28.9058 11.0727 28.9527 11.1183 28.9518 11.3502C28.9409 13.8537 28.945 16.3574 28.945 18.8609C28.7695 19.006 28.5575 18.9685 28.3569 18.9687C25.304 18.9711 22.2512 18.9702 19.1984 18.9705C18.49 18.9705 18.4897 18.971 18.4899 19.6735C18.49 20.1354 18.4837 20.5973 18.4924 21.0591C18.4988 21.4016 18.543 21.4415 18.892 21.4553C19.1075 21.4637 19.3232 21.458 19.5388 21.458C22.4782 21.4582 25.4175 21.4572 28.3569 21.4598C28.5575 21.4598 28.7695 21.4222 28.945 21.5675Z" fill="#E13022"/>
<path d="M28.9446 29.281C22.9349 29.281 16.9254 29.2792 10.9159 29.287C10.6372 29.2873 10.5366 29.2498 10.5376 28.9322C10.5512 24.8049 10.5494 20.6775 10.5403 16.5501C10.5397 16.2858 10.6051 16.213 10.8717 16.2215C11.5185 16.242 12.1669 16.2406 12.8139 16.2226C13.1094 16.2144 13.2 16.3043 13.1991 16.6051C13.1885 19.898 13.1945 23.1909 13.1877 26.4838C13.1872 26.7033 13.2165 26.7905 13.4722 26.7901C18.5957 26.7816 23.7192 26.7837 28.8427 26.7834C28.8767 26.7834 28.9106 26.7797 28.9446 26.7776C28.9446 27.612 28.9446 28.4466 28.9446 29.281Z" fill="#E13022"/>
</g>
<defs>
<clipPath id="clip0_9332_14912">
<rect width="19" height="19" fill="white" transform="translate(10.5 10.5)"/>
</clipPath>
</defs>
</svg>
