<svg width="40" height="40" viewBox="0 0 40 40" fill="none" xmlns="http://www.w3.org/2000/svg">
<rect width="40" height="40" rx="20" fill="#A01F1A" fill-opacity="0.1"/>
<path d="M18.3977 10.1434C14.6271 10.8316 11.7023 13.3692 10.498 17.0108C10.326 17.5269 10.1969 18.0861 10.1969 18.2724C10.1969 18.5735 10.24 18.6022 10.5267 18.5018C10.6987 18.4445 11.3582 18.3871 11.9891 18.3871C13.222 18.4015 13.9819 18.6739 14.5697 19.319C14.9711 19.7635 15.8314 20.1793 16.3475 20.1793C16.9926 20.1793 17.4658 19.9499 18.455 19.1613C19.7453 18.1291 20.5195 17.8137 21.7382 17.828C23.1145 17.828 23.9747 18.2581 25.7238 19.8208L27.1288 21.0538L26.6987 21.5986C25.9102 22.6022 25.9819 22.6022 24.5482 21.3405C22.9711 19.9499 22.6127 19.7491 21.7095 19.7491C20.9496 19.7491 20.5195 19.9642 19.2292 20.9821C18.24 21.7563 17.4371 22.043 16.3045 22.043C15.2722 22.043 14.498 21.7276 13.4658 20.8961C13.0787 20.5807 12.5195 20.2939 12.2471 20.2366C11.602 20.1219 10.7704 20.3656 10.3547 20.8101L10.0249 21.1542L10.326 22.3585C10.6414 23.6344 11.4012 25.2689 12.0321 26.0287L12.4192 26.5018L13.6952 25.4266C15.2292 24.1219 15.731 23.8638 16.8923 23.7922C18.0679 23.7061 19.0285 24.0502 19.9174 24.8387C21.2077 26 21.8959 26.0574 23.2866 25.1398C24.8923 24.0789 26.1826 23.9499 27.8027 24.6954C28.2328 24.8961 28.6055 25.0538 28.6342 25.0538C28.7346 25.0538 29.1647 24.1076 29.5088 23.1327C29.7668 22.3871 29.8815 21.699 29.9389 20.5377C30.0249 18.5162 29.7668 17.2258 28.9496 15.5914L28.3331 14.3728L27.6306 14.4015C27.0858 14.4158 26.7991 14.5305 26.3403 14.8746C25.2937 15.6631 24.4048 16.0215 23.4443 16.0215C22.283 16.0215 21.7812 15.8352 20.6772 15.0036C19.86 14.3871 19.6593 14.3011 19.0428 14.3011C18.1396 14.3011 17.9532 14.4158 16.5482 15.7491C15.8887 16.38 15.3152 16.8818 15.2435 16.8818C15.1862 16.8818 14.8564 16.595 14.5267 16.2653L13.9102 15.6344L15.0715 14.5018C16.5339 13.0825 17.179 12.638 18.1539 12.423C19.5159 12.1219 20.5625 12.4517 22.0822 13.6846C22.4837 14.0144 22.7131 14.0861 23.3869 14.0861C24.1181 14.0861 24.2758 14.0287 24.9926 13.4839C25.4228 13.1398 25.9819 12.7957 26.2256 12.7097L26.6844 12.552L26.0823 12.0646C25.2794 11.4337 23.6736 10.6452 22.5984 10.3585C21.5374 10.0717 19.4156 9.97136 18.3977 10.1434Z" fill="#A01F1A"/>
<path d="M16.3906 25.7849C16.2042 25.8566 15.5447 26.344 14.9139 26.8745L13.7812 27.8494L14.0967 28.1075C14.6988 28.5663 16.706 29.4982 17.6522 29.7276C18.8709 30.043 21.1648 30.043 22.3834 29.7276C23.8458 29.3691 25.5805 28.4372 26.5841 27.5053L27.4587 26.6738L27.0142 26.4301C26.7562 26.301 26.24 26.2007 25.8673 26.2007C25.2795 26.2007 25.0071 26.301 24.1899 26.8458C23.0859 27.577 22.5841 27.706 21.3225 27.6057C20.2902 27.5197 19.7167 27.2616 18.8852 26.4874C17.9963 25.6702 17.2221 25.4408 16.3906 25.7849Z" fill="#A01F1A"/>
</svg>
