<svg width="40" height="40" viewBox="0 0 40 40" fill="none" xmlns="http://www.w3.org/2000/svg">
<rect width="40" height="40" rx="20" fill="black" fill-opacity="0.05"/>
<g clip-path="url(#clip0_9332_14913)">
<mask id="mask0_9332_14913" style="mask-type:alpha" maskUnits="userSpaceOnUse" x="26" y="22" width="3" height="6">
<path d="M26.4338 22.5198H28.1938V27.7013H26.4338V22.5198Z" fill="black"/>
</mask>
<g mask="url(#mask0_9332_14913)">
<path d="M27.8468 22.5198H23.3562C23.1654 22.5198 23.0107 22.6744 23.0107 22.8652V27.3558C23.0107 27.5466 23.1654 27.7012 23.3562 27.7012H27.8468C28.0376 27.7012 28.1923 27.5466 28.1923 27.3558V22.8652C28.1923 22.6744 28.0376 22.5198 27.8468 22.5198Z" fill="black" fill-opacity="0.5"/>
</g>
<mask id="mask1_9332_14913" style="mask-type:alpha" maskUnits="userSpaceOnUse" x="26" y="12" width="3" height="6">
<path d="M26.4338 12.1453H28.1938V17.3268H26.4338V12.1453Z" fill="url(#paint0_linear_9332_14913)"/>
</mask>
<g mask="url(#mask1_9332_14913)">
<path d="M27.8468 12.1453H23.3562C23.1654 12.1453 23.0107 12.2999 23.0107 12.4907V16.9813C23.0107 17.1721 23.1654 17.3268 23.3562 17.3268H27.8468C28.0376 17.3268 28.1923 17.1721 28.1923 16.9813V12.4907C28.1923 12.2999 28.0376 12.1453 27.8468 12.1453Z" fill="black" fill-opacity="0.5"/>
</g>
<mask id="mask2_9332_14913" style="mask-type:alpha" maskUnits="userSpaceOnUse" x="29" y="12" width="1" height="6">
<path d="M29.0819 12.1453H29.9575V17.3268H29.0819V12.1453Z" fill="black"/>
</mask>
<g mask="url(#mask2_9332_14913)">
<path d="M29.611 12.1453H25.1203C24.9296 12.1453 24.7749 12.2999 24.7749 12.4907V16.9813C24.7749 17.1721 24.9296 17.3268 25.1203 17.3268H29.611C29.8018 17.3268 29.9565 17.1721 29.9565 16.9813V12.4907C29.9565 12.2999 29.8018 12.1453 29.611 12.1453Z" fill="black" fill-opacity="0.3"/>
</g>
<mask id="mask3_9332_14913" style="mask-type:alpha" maskUnits="userSpaceOnUse" x="29" y="22" width="1" height="6">
<path d="M29.0854 22.5198H29.9609V27.7013H29.0854V22.5198Z" fill="black"/>
</mask>
<g mask="url(#mask3_9332_14913)">
<path d="M29.6139 22.5197H25.1233C24.9325 22.5197 24.7778 22.6743 24.7778 22.8651V27.3557C24.7778 27.5465 24.9325 27.7011 25.1233 27.7011H29.6139C29.8047 27.7011 29.9594 27.5465 29.9594 27.3557V22.8651C29.9594 22.6743 29.8047 22.5197 29.6139 22.5197Z" fill="black" fill-opacity="0.3"/>
</g>
<path d="M20.009 17.3387H15.5396C15.3497 17.3387 15.1958 17.4916 15.1958 17.6801V22.1175C15.1958 22.306 15.3497 22.4588 15.5396 22.4588H20.009C20.1988 22.4588 20.3528 22.306 20.3528 22.1175V17.6801C20.3528 17.4916 20.1988 17.3387 20.009 17.3387Z" fill="black"/>
<path d="M14.8361 12.1453H10.3454C10.1547 12.1453 10 12.2999 10 12.4907V16.9813C10 17.1721 10.1547 17.3268 10.3454 17.3268H14.8361C15.0269 17.3268 15.1815 17.1721 15.1815 16.9813V12.4907C15.1815 12.2999 15.0269 12.1453 14.8361 12.1453Z" fill="black"/>
<path d="M25.1969 12.1453H20.7063C20.5155 12.1453 20.3608 12.2999 20.3608 12.4907V16.9813C20.3608 17.1721 20.5155 17.3268 20.7063 17.3268H25.1969C25.3877 17.3268 25.5424 17.1721 25.5424 16.9813V12.4907C25.5424 12.2999 25.3877 12.1453 25.1969 12.1453Z" fill="black"/>
<path d="M14.8361 22.5081H10.3454C10.1547 22.5081 10 22.6627 10 22.8535V27.3441C10 27.5349 10.1547 27.6895 10.3454 27.6895H14.8361C15.0269 27.6895 15.1815 27.5349 15.1815 27.3441V22.8535C15.1815 22.6627 15.0269 22.5081 14.8361 22.5081Z" fill="black"/>
<path d="M25.1969 22.5081H20.7063C20.5155 22.5081 20.3608 22.6627 20.3608 22.8535V27.3441C20.3608 27.5349 20.5155 27.6895 20.7063 27.6895H25.1969C25.3877 27.6895 25.5424 27.5349 25.5424 27.3441V22.8535C25.5424 22.6627 25.3877 22.5081 25.1969 22.5081Z" fill="black"/>
</g>
<defs>
<linearGradient id="paint0_linear_9332_14913" x1="26.2833" y1="15.0352" x2="28.1761" y2="14.6519" gradientUnits="userSpaceOnUse">
<stop/>
<stop offset="1" stop-color="white"/>
</linearGradient>
<clipPath id="clip0_9332_14913">
<rect width="20" height="15.873" fill="white" transform="translate(10 12.0635)"/>
</clipPath>
</defs>
</svg>
