<svg width="40" height="40" viewBox="0 0 40 40" fill="none" xmlns="http://www.w3.org/2000/svg">
<rect width="40" height="40" rx="20" fill="#D98A26" fill-opacity="0.1"/>
<g clip-path="url(#clip0_9332_14908)">
<path d="M28.5365 23.439V11.7561C28.5121 10.7805 27.7316 10 26.756 10H14.6096C11.9755 10.0488 9.87793 12.1951 9.87793 14.8293C9.87793 15.7073 10.1218 16.4878 10.4877 17.1463C10.8048 17.7073 11.2926 18.2195 11.756 18.6098C11.9023 18.7317 11.8291 18.6829 12.2438 18.9268C12.8048 19.2683 13.4633 19.439 13.4633 19.439V26.4146C13.4877 26.7561 13.5121 27.0732 13.6096 27.3659C13.8779 28.3415 14.5609 29.0976 15.4877 29.4634C15.8779 29.6098 16.317 29.7073 16.7804 29.7317L26.4633 29.7805C28.3901 29.7805 29.9755 28.2195 29.9755 26.2683C29.9755 25.122 29.4145 24.0732 28.5365 23.439Z" fill="#FFEEDA"/>
<path d="M28.7803 26.3414C28.7315 27.5853 27.7071 28.5853 26.4632 28.5853L19.7803 28.5609C20.3169 27.9512 20.6339 27.1463 20.6339 26.2682C20.6339 24.9024 19.8291 23.9512 19.8291 23.9512H26.4876C27.7559 23.9512 28.8047 25 28.8047 26.2682L28.7803 26.3414Z" fill="#EBC28E"/>
<path d="M12.3901 17.6341C11.6096 16.9024 11.0731 15.9512 11.0731 14.8293V14.7073C11.1462 12.8049 12.7072 11.2439 14.6096 11.1951H26.7804C27.0974 11.2195 27.3413 11.439 27.3413 11.7561V22.0732C27.6096 22.122 27.756 22.1707 28.0243 22.2439C28.2438 22.3171 28.5365 22.4878 28.5365 22.4878V11.7561C28.5121 10.7805 27.7316 10 26.756 10H14.6096C11.9755 10.0488 9.87793 12.1951 9.87793 14.8293C9.87793 16.3659 10.5852 17.6829 11.7072 18.5854C11.7804 18.6585 11.8535 18.7317 12.0731 18.7317C12.4389 18.7317 12.6828 18.439 12.6584 18.1463C12.6584 17.878 12.5609 17.7805 12.3901 17.6341Z" fill="#101010"/>
<path d="M26.4632 22.7562H16.9266C16.2924 22.7562 15.7802 23.2683 15.7802 23.9269V25.2927C15.8046 25.9269 16.3412 26.4635 16.9754 26.4635H17.6827V25.2927H16.9754V23.9513C16.9754 23.9513 17.1461 23.9513 17.3656 23.9513C18.5607 23.9513 19.4632 25.0732 19.4632 26.2683C19.4632 27.3415 18.4876 28.683 16.8778 28.5854C15.4388 28.4879 14.6583 27.2196 14.6583 26.2683V14.6342C14.6583 14.122 14.2193 13.683 13.7071 13.683H12.7559V14.8781H13.4632V26.2927C13.4144 28.6098 15.1217 29.7805 16.8778 29.7805L26.4876 29.8049C28.4144 29.8049 29.9998 28.244 29.9998 26.2927C29.9754 24.3415 28.4144 22.7562 26.4632 22.7562ZM28.7802 26.3415C28.7315 27.5854 27.7071 28.5854 26.4632 28.5854L19.7802 28.561C20.3168 27.9513 20.6339 27.1464 20.6339 26.2683C20.6339 24.9025 19.829 23.9513 19.829 23.9513H26.4876C27.7559 23.9513 28.8046 25.0001 28.8046 26.2683L28.7802 26.3415Z" fill="#101010"/>
<path d="M23.9022 15.0732H16.707V13.9025H23.9022C24.2192 13.9025 24.4875 14.1708 24.4875 14.4878C24.4875 14.8049 24.2436 15.0732 23.9022 15.0732Z" fill="#101010"/>
<path d="M23.9022 20.6829H16.707V19.4878H23.9022C24.2192 19.4878 24.4875 19.7561 24.4875 20.0732C24.4875 20.4146 24.2436 20.6829 23.9022 20.6829Z" fill="#101010"/>
<path d="M25.1704 17.8781H16.707V16.683H25.1704C25.4875 16.683 25.7558 16.9513 25.7558 17.2683C25.7558 17.6098 25.4875 17.8781 25.1704 17.8781Z" fill="#101010"/>
</g>
<defs>
<clipPath id="clip0_9332_14908">
<rect width="20.2439" height="20" fill="white" transform="translate(9.87793 10)"/>
</clipPath>
</defs>
</svg>
