<svg width="40" height="40" viewBox="0 0 40 40" fill="none" xmlns="http://www.w3.org/2000/svg">
<rect width="40" height="40" rx="20" fill="#1269AB" fill-opacity="0.1"/>
<path fill-rule="evenodd" clip-rule="evenodd" d="M20.0003 18.8752L10.7134 23.9603V26.755L20.0003 21.67L29.2871 26.755V23.9603L20.0003 18.8752Z" fill="#1269AB"/>
<path fill-rule="evenodd" clip-rule="evenodd" d="M13.4267 15.791L20.0003 12.2519L26.5738 15.791L29.028 14.8605L20.0003 10L10.9727 14.8605L13.4267 15.791Z" fill="#3FBCED"/>
<path fill-rule="evenodd" clip-rule="evenodd" d="M26.5737 16.3824V24.2087L25.5974 24.7345L27.671 25.8698L29.2871 24.9997V15.3537L26.5737 16.3824ZM14.4031 24.7345L13.4187 24.2044V16.3794L10.7134 15.3536V24.9997L12.3294 25.8698L14.4031 24.7345Z" fill="#1269AB"/>
<path fill-rule="evenodd" clip-rule="evenodd" d="M25.0185 25.0464L20.0002 27.7483L14.9818 25.0464L12.9082 26.1818L20.0002 30.0001L27.0921 26.1818L25.0185 25.0464Z" fill="#3FBCED"/>
</svg>
