<svg width="40" height="40" viewBox="0 0 40 40" fill="none" xmlns="http://www.w3.org/2000/svg">
<rect width="40" height="40" rx="20" fill="#01C536" fill-opacity="0.1"/>
<path fill-rule="evenodd" clip-rule="evenodd" d="M10.0298 20.0005C10.0298 14.4773 14.4939 10 20 10C25.507 10 29.9711 14.4773 29.9706 20C29.9706 21.9563 29.4103 23.7811 28.4425 25.3221C28.1756 25.7466 27.8783 26.1496 27.5526 26.5284L20.0132 18.9668L13.5299 25.4687L12.4595 26.5422C12.1328 26.1644 11.8346 25.7619 11.5677 25.3378C10.5934 23.7939 10.0298 21.9631 10.0298 20.0005ZM27.2995 23.8972L27.3907 23.7142L27.3912 23.7147C27.9632 22.5703 28.2654 21.2856 28.2654 20.0005C28.2654 15.4298 24.5577 11.7112 20.0004 11.7112C15.4431 11.7112 11.736 15.4298 11.736 20.0005C11.736 21.2925 12.0411 22.5826 12.6185 23.7314L12.7102 23.9134L20.0132 16.5889L27.2995 23.8972ZM20.0003 30C22.4826 30 24.7534 29.0903 26.4988 27.5847L20.0136 21.0799L13.5161 27.5961C15.2591 29.0952 17.5181 30 20.0003 30Z" fill="url(#paint0_linear_9332_14903)"/>
<defs>
<linearGradient id="paint0_linear_9332_14903" x1="20.0002" y1="10" x2="20.0298" y2="30" gradientUnits="userSpaceOnUse">
<stop stop-color="#169E00"/>
<stop offset="0.49" stop-color="#00C537"/>
<stop offset="1" stop-color="#00B1C9"/>
</linearGradient>
</defs>
</svg>
