<svg width="24" height="24" viewBox="0 0 24 24" fill="none" xmlns="http://www.w3.org/2000/svg">
<g clip-path="url(#clip0_11633_64761)">
<mask id="mask0_11633_64761" style="mask-type:luminance" maskUnits="userSpaceOnUse" x="2" y="6" width="20" height="12">
<path d="M22 6.65137H2V17.349H22V6.65137Z" fill="white"/>
</mask>
<g mask="url(#mask0_11633_64761)">
<g style="mix-blend-mode:hard-light">
<path fill-rule="evenodd" clip-rule="evenodd" d="M7.34884 7.78942C6.23186 7.78942 5.16119 8.23256 4.37119 9.02255C3.58119 9.81255 3.13805 10.8832 3.13805 12.0002C3.13805 13.1172 3.58119 14.1879 4.37119 14.9779C5.16119 15.7679 6.23186 16.211 7.34884 16.211H7.85995C6.61193 15.2319 5.81023 13.7098 5.81023 12.0002C5.81023 10.2906 6.61193 8.76853 7.85995 7.78942H7.34884ZM11.2182 6.65169V6.65137H11.1591H7.34884C5.93023 6.65137 4.57005 7.21426 3.56647 8.21783C2.5629 9.22141 2 10.5816 2 12.0002C2 13.4188 2.5629 14.779 3.56647 15.7826C4.57005 16.7861 5.93023 17.349 7.34884 17.349H11.1591H11.2182V17.3487C11.9015 17.3413 12.554 17.2059 13.1529 16.9652V17.349H16.4532C17.8718 17.349 19.232 16.7861 20.2356 15.7826C21.2392 14.779 21.8021 13.4188 21.8021 12.0002C21.8021 10.5816 21.2392 9.22141 20.2356 8.21783C19.232 7.21426 17.8718 6.65137 16.4532 6.65137H13.1529V7.03519C12.554 6.79454 11.9015 6.65908 11.2182 6.65169ZM13.1529 8.29024C12.5594 7.97071 11.8805 7.78942 11.1591 7.78942C8.83307 7.78942 6.94828 9.67418 6.94828 12.0002C6.94828 14.3262 8.83307 16.211 11.1591 16.211C11.8805 16.211 12.5594 16.0297 13.1529 15.7102V8.29024ZM14.291 14.8153V9.18513C14.9617 9.93097 15.3699 10.9178 15.3699 12.0002C15.3699 13.0826 14.9617 14.0694 14.291 14.8153ZM14.4582 16.211C15.7063 15.2319 16.5079 13.7098 16.5079 12.0002C16.5079 10.2906 15.7063 8.76853 14.4582 7.78942H16.4532C17.5702 7.78942 18.6409 8.23256 19.4309 9.02255C20.2209 9.81255 20.664 10.8832 20.664 12.0002C20.664 13.1172 20.2209 14.1879 19.4309 14.9779C18.6409 15.7679 17.5702 16.211 16.4532 16.211H14.4582Z" fill="black"/>
</g>
</g>
</g>
<defs>
<clipPath id="clip0_11633_64761">
<rect width="20" height="10.6977" fill="white" transform="translate(2 6.65137)"/>
</clipPath>
</defs>
</svg>
