<svg width="24" height="24" viewBox="0 0 24 24" fill="none" xmlns="http://www.w3.org/2000/svg">
<g clip-path="url(#clip0_11633_64757)">
<path d="M18.1826 17.6233C17.723 17.1742 17.137 16.9354 16.5432 16.9006H16.5447C14.2656 16.8263 13.9387 14.932 13.9387 14.4545C13.9387 13.9327 14.3004 12.1048 16.54 12.0336C17.1339 12.0004 17.7198 11.7601 18.1794 11.311C19.1918 10.3227 19.2139 8.70042 18.2268 7.68685C17.7277 7.17296 17.0644 6.91521 16.401 6.91207H16.3836C15.7424 6.91364 15.1012 7.15558 14.6052 7.63942C14.0619 8.16912 13.8345 8.88069 13.8345 9.58433C13.8345 10.201 13.427 11.8913 11.5333 11.8913C10.8209 11.8913 10.0723 12.1 9.52741 12.6598C9.50372 12.6835 9.48478 12.712 9.46266 12.7373V12.7278C9.33314 12.8638 9.30786 12.7563 9.30946 12.6819V2.36763C9.30946 2.17314 9.15308 2.0166 8.95881 2.0166H5.39409C5.19982 2.0166 5.04346 2.17314 5.04346 2.36763V21.2885C5.04346 21.483 5.19982 21.6395 5.39409 21.6395H8.96198C9.15625 21.6395 9.3126 21.483 9.3126 21.2885V16.2571C9.3126 16.1828 9.33788 16.0752 9.46897 16.2112V16.2033C9.48951 16.227 9.50686 16.2539 9.52898 16.2776C10.0755 16.839 10.8115 17.0461 11.538 17.0461C13.4333 17.0461 13.8392 18.9562 13.8392 19.3531C13.8392 19.8986 14.0682 20.7683 14.6099 21.2964C15.1075 21.7819 15.7519 22.0238 16.3947 22.0238H16.3963C17.0628 22.0238 17.7277 21.7645 18.23 21.249C18.7133 20.7525 18.9549 20.1105 18.9565 19.4685V19.4527C18.9549 18.7886 18.6959 18.1245 18.1826 17.6248" fill="black"/>
</g>
<defs>
<clipPath id="clip0_11633_64757">
<rect width="13.913" height="20.0305" fill="white" transform="translate(5.04346 2)"/>
</clipPath>
</defs>
</svg>
