<svg width="24" height="24" viewBox="0 0 24 24" fill="none" xmlns="http://www.w3.org/2000/svg">
<g clip-path="url(#clip0_11633_64770)">
<mask id="mask0_11633_64770" style="mask-type:luminance" maskUnits="userSpaceOnUse" x="2" y="2" width="20" height="20">
<path d="M22 2H2V22H22V2Z" fill="white"/>
</mask>
<g mask="url(#mask0_11633_64770)">
<path d="M22 2H2V22H22V2Z" fill="#0B0B13"/>
<path fill-rule="evenodd" clip-rule="evenodd" d="M9.48865 14.7308H12.5463V16.5H6.2002V7.5H8.3925V9.2564V11.1411V12.7436V14.7308H9.48865ZM16.7776 11.8846C17.2994 11.9962 17.7174 12.2538 18.034 12.6603C18.3507 13.0667 18.5084 13.5295 18.5084 14.0513C18.5084 14.8039 18.2456 15.4 17.7199 15.8398C17.1943 16.2795 16.4609 16.5 15.5212 16.5H14.3003V14.7308H15.1366C15.5045 14.7308 15.7879 14.6475 15.9892 14.4808C16.1904 14.3141 16.2904 14.0731 16.2904 13.7564C16.2904 13.4398 16.1853 13.1923 15.9763 13.0128C15.7674 12.8333 15.4789 12.7436 15.111 12.7436H10.1465V11.1411H14.9571C15.3161 11.1411 15.5917 11.0615 15.784 10.9038C15.9763 10.7461 16.0725 10.5128 16.0725 10.2051C16.0725 9.89745 15.9763 9.6628 15.784 9.5C15.5917 9.3372 15.3161 9.2564 14.9571 9.2564H10.1465V7.5H15.3802C16.2943 7.5 17.0109 7.70895 17.5276 8.1282C18.0443 8.54745 18.3033 9.1154 18.3033 9.83335C18.3033 10.3628 18.1648 10.8038 17.8866 11.1538C17.6084 11.5038 17.2392 11.7475 16.7776 11.8846Z" fill="white"/>
</g>
</g>
<defs>
<clipPath id="clip0_11633_64770">
<rect width="20" height="20" fill="white" transform="translate(2 2)"/>
</clipPath>
</defs>
</svg>
