<svg width="24" height="24" viewBox="0 0 24 24" fill="none" xmlns="http://www.w3.org/2000/svg">
<g clip-path="url(#clip0_11633_64723)">
<path d="M22 12C22 6.47715 17.5228 2 12 2C6.47715 2 2 6.47715 2 12C2 17.5228 6.47715 22 12 22C17.5228 22 22 17.5228 22 12Z" fill="black"/>
<path d="M15.7813 6.90576H8.0376V9.04448H14.9105C15.1169 8.29271 15.4104 7.57516 15.7804 6.90576H15.7813Z" fill="url(#paint0_linear_11633_64723)"/>
<path d="M14.6018 11.6319C14.6018 11.3052 14.6188 10.9821 14.651 10.6626H8.0376V12.7435H14.6671C14.6242 12.3784 14.6018 12.0079 14.6018 11.6319Z" fill="url(#paint1_linear_11633_64723)"/>
<path d="M15.0032 14.478H8.0376V16.6167H15.9485C15.5525 15.9492 15.2333 15.2326 15.0032 14.478Z" fill="url(#paint2_linear_11633_64723)"/>
<path d="M15.7813 6.90576H8.0376V9.04448H14.9105C15.1169 8.29271 15.4104 7.57516 15.7804 6.90576H15.7813Z" fill="url(#paint3_linear_11633_64723)"/>
<path d="M14.6018 11.6319C14.6018 11.3052 14.6188 10.9821 14.651 10.6626H8.0376V12.7435H14.6671C14.6242 12.3784 14.6018 12.0079 14.6018 11.6319Z" fill="url(#paint4_linear_11633_64723)"/>
<path d="M15.0032 14.478H8.0376V16.6167H15.9485C15.5525 15.9492 15.2333 15.2326 15.0032 14.478Z" fill="url(#paint5_linear_11633_64723)"/>
</g>
<defs>
<linearGradient id="paint0_linear_11633_64723" x1="15.8328" y1="9.01757" x2="8.0593" y2="9.03701" gradientUnits="userSpaceOnUse">
<stop offset="0.255" stop-color="#F1C52B"/>
<stop offset="1" stop-color="#8914E5"/>
</linearGradient>
<linearGradient id="paint1_linear_11633_64723" x1="14.7111" y1="12.7174" x2="8.05616" y2="12.732" gradientUnits="userSpaceOnUse">
<stop offset="0.255" stop-color="#F1C52B"/>
<stop offset="1" stop-color="#8914E5"/>
</linearGradient>
<linearGradient id="paint2_linear_11633_64723" x1="16.001" y1="16.5898" x2="8.05975" y2="16.6101" gradientUnits="userSpaceOnUse">
<stop offset="0.255" stop-color="#F1C52B"/>
<stop offset="1" stop-color="#8914E5"/>
</linearGradient>
<linearGradient id="paint3_linear_11633_64723" x1="15.8328" y1="9.01757" x2="8.0593" y2="9.03701" gradientUnits="userSpaceOnUse">
<stop offset="0.255" stop-color="#F1C52B"/>
<stop offset="1" stop-color="#8914E5"/>
</linearGradient>
<linearGradient id="paint4_linear_11633_64723" x1="14.7111" y1="12.7174" x2="8.05616" y2="12.732" gradientUnits="userSpaceOnUse">
<stop offset="0.255" stop-color="#F1C52B"/>
<stop offset="1" stop-color="#8914E5"/>
</linearGradient>
<linearGradient id="paint5_linear_11633_64723" x1="16.001" y1="16.5898" x2="8.05975" y2="16.6101" gradientUnits="userSpaceOnUse">
<stop offset="0.255" stop-color="#F1C52B"/>
<stop offset="1" stop-color="#8914E5"/>
</linearGradient>
<clipPath id="clip0_11633_64723">
<rect width="20" height="20" fill="white" transform="translate(2 2)"/>
</clipPath>
</defs>
</svg>
