<svg width="24" height="24" viewBox="0 0 24 24" fill="none" xmlns="http://www.w3.org/2000/svg">
<path fill-rule="evenodd" clip-rule="evenodd" d="M22 12C22 17.5228 17.5228 22 12 22C6.47715 22 2 17.5228 2 12C2 6.47715 6.47715 2 12 2C17.5228 2 22 6.47715 22 12ZM12 20.1667C7.48967 20.1667 3.83333 16.5103 3.83333 12C3.83333 7.48967 7.48967 3.83333 12 3.83333C12.5312 3.83333 13.0506 3.88406 13.5536 3.98093C13.78 4.02452 13.7315 4.35631 13.5025 4.38259C9.73362 4.81504 6.66667 8.07754 6.66667 12C6.66667 15.9224 9.73361 19.185 13.5025 19.6174C13.7315 19.6437 13.78 19.9755 13.5536 20.0191C13.0506 20.1159 12.5312 20.1667 12 20.1667ZM17.8848 8.84854C18.0551 8.91442 18.027 9.15539 17.8582 9.22494C16.7677 9.67413 16 10.7474 16 12C16 13.2526 16.7677 14.3259 17.8582 14.7751C18.027 14.8446 18.0551 15.0856 17.8848 15.1515C17.5069 15.2976 17.0961 15.3778 16.6667 15.3778C14.8012 15.3778 13.2889 13.8655 13.2889 12C13.2889 10.1345 14.8012 8.62222 16.6667 8.62222C17.0961 8.62222 17.5069 8.70238 17.8848 8.84854ZM11.3333 12C11.3333 9.40091 13.1925 7.23605 15.6535 6.76278C15.866 6.72191 15.9073 6.41958 15.6969 6.36882C15.2596 6.26331 14.803 6.20741 14.3333 6.20741C11.1342 6.20741 8.54074 8.80084 8.54074 12C8.54074 15.1992 11.1342 17.7926 14.3333 17.7926C14.803 17.7926 15.2596 17.7367 15.6969 17.6312C15.9073 17.5804 15.866 17.2781 15.6535 17.2372C13.1925 16.764 11.3333 14.5991 11.3333 12ZM19 12.8C18.5582 12.8 18.2 12.4418 18.2 12C18.2 11.5582 18.5582 11.2 19 11.2C19.4418 11.2 19.8 11.5582 19.8 12C19.8 12.4418 19.4418 12.8 19 12.8Z" fill="url(#paint0_linear_11633_64592)"/>
<defs>
<linearGradient id="paint0_linear_11633_64592" x1="2" y1="12" x2="22" y2="12" gradientUnits="userSpaceOnUse">
<stop stop-color="#3559FF"/>
<stop offset="1" stop-color="#604EFF"/>
</linearGradient>
</defs>
</svg>
