<svg width="24" height="24" viewBox="0 0 24 24" fill="none" xmlns="http://www.w3.org/2000/svg">
<path fill-rule="evenodd" clip-rule="evenodd" d="M2.02979 12.0005C2.02979 6.47726 6.49389 2 12 2C17.507 2 21.9711 6.47726 21.9706 12C21.9706 13.9563 21.4103 15.7811 20.4425 17.3221C20.1756 17.7466 19.8783 18.1496 19.5526 18.5284L12.0132 10.9668L5.52994 17.4687L4.45954 18.5422C4.13282 18.1644 3.83456 17.7619 3.56769 17.3378C2.59344 15.7939 2.02979 13.9631 2.02979 12.0005ZM19.2995 15.8972L19.3907 15.7142L19.3912 15.7147C19.9632 14.5703 20.2654 13.2856 20.2654 12.0005C20.2654 7.42978 16.5577 3.7112 12.0004 3.7112C7.44312 3.7112 3.73595 7.42978 3.73595 12.0005C3.73595 13.2925 4.04109 14.5826 4.61847 15.7314L4.71021 15.9134L12.0132 8.58894L19.2995 15.8972ZM12.0003 22C14.4826 22 16.7534 21.0903 18.4988 19.5847L12.0136 13.0799L5.51611 19.5961C7.25907 21.0952 9.5181 22 12.0003 22Z" fill="url(#paint0_linear_11633_64595)"/>
<defs>
<linearGradient id="paint0_linear_11633_64595" x1="12.0002" y1="2" x2="12.0298" y2="22" gradientUnits="userSpaceOnUse">
<stop stop-color="#169E00"/>
<stop offset="0.49" stop-color="#00C537"/>
<stop offset="1" stop-color="#00B1C9"/>
</linearGradient>
</defs>
</svg>
