<svg width="20" height="20" viewBox="0 0 20 20" fill="none" xmlns="http://www.w3.org/2000/svg">
<rect width="20" height="20" rx="4" fill="#09090B"/>
<g clip-path="url(#clip0_5424_32792)">
<path d="M13.8281 11.2211V6.61816H14.7579V11.2211H13.8281Z" fill="#F7A600"/>
<path d="M2.99326 12.5883H1V7.98535H2.9131C3.84288 7.98535 4.38464 8.4896 4.38464 9.27835C4.38464 9.78892 4.0367 10.1189 3.79588 10.2287C4.08334 10.358 4.4513 10.6488 4.4513 11.2633C4.4513 12.1228 3.84288 12.5883 2.99326 12.5883ZM2.83951 8.78714H1.92977V9.84737H2.83951C3.23409 9.84737 3.45487 9.63399 3.45487 9.31708C3.45487 9.00051 3.23409 8.78714 2.83951 8.78714ZM2.89962 10.6555H1.92977V11.7869H2.89962C3.32115 11.7869 3.52153 11.5284 3.52153 11.2178C3.52153 10.9076 3.32078 10.6555 2.89962 10.6555Z" fill="white"/>
<path d="M7.28631 10.7006V12.5883H6.3631V10.7006L4.93164 7.98535H5.94156L6.83126 9.84068L7.70749 7.98535H8.71741L7.28631 10.7006Z" fill="white"/>
<path d="M11.3526 12.5883H9.35938V7.98535H11.2725C12.2023 7.98535 12.744 8.4896 12.744 9.27835C12.744 9.78892 12.3961 10.1189 12.1553 10.2287C12.4427 10.358 12.8107 10.6488 12.8107 11.2633C12.8107 12.1228 12.2023 12.5883 11.3526 12.5883ZM11.1989 8.78714H10.2891V9.84737H11.1989C11.5935 9.84737 11.8142 9.63399 11.8142 9.31708C11.8142 9.00051 11.5935 8.78714 11.1989 8.78714ZM11.259 10.6555H10.2891V11.7869H11.259C11.6805 11.7869 11.8809 11.5284 11.8809 11.2178C11.8809 10.9076 11.6805 10.6555 11.259 10.6555Z" fill="white"/>
<path d="M17.754 8.78714V12.5887H16.8243V8.78714H15.5801V7.98535H18.9982V8.78714H17.754Z" fill="white"/>
</g>
<defs>
<clipPath id="clip0_5424_32792">
<rect width="18" height="7" fill="white" transform="translate(1 6)"/>
</clipPath>
</defs>
</svg>
