<svg width="20" height="20" viewBox="0 0 20 20" fill="none" xmlns="http://www.w3.org/2000/svg">
<g clip-path="url(#clip0_4718_12798)">
<path d="M0 4.61537C0 2.06638 2.06638 0 4.61537 0H15.3846C17.9336 0 20 2.06638 20 4.61537V15.3846C20 17.9336 17.9336 20 15.3846 20H4.61537C2.06638 20 0 17.9336 0 15.3846V4.61537Z" fill="#0052FF"/>
<path d="M9.98117 13.75C9.27325 13.7357 8.58375 13.5223 7.99208 13.1343C7.40042 12.7463 6.93062 12.1995 6.63679 11.5569C6.343 10.9143 6.23708 10.202 6.33125 9.50196C6.42546 8.80192 6.71592 8.14267 7.16921 7.60008C7.6225 7.0575 8.22021 6.65363 8.8935 6.435C9.56675 6.21633 10.2882 6.19179 10.9749 6.36421C11.6616 6.53662 12.2855 6.89892 12.7747 7.40946C13.264 7.92 13.5988 8.558 13.7406 9.25H17.5C17.3071 7.33554 16.384 5.56821 14.9214 4.31362C13.4589 3.05902 11.569 2.41309 9.64242 2.50941C7.71587 2.60574 5.90017 3.43696 4.57075 4.83117C3.24136 6.22537 2.5 8.07587 2.5 10C2.5 11.9241 3.24136 13.7746 4.57075 15.1688C5.90017 16.563 7.71587 17.3943 9.64242 17.4906C11.569 17.5869 13.4589 16.941 14.9214 15.6864C16.384 14.4318 17.3071 12.6645 17.5 10.75H13.7406C13.7406 12.25 11.4849 13.75 9.98117 13.75Z" fill="white"/>
</g>
<defs>
<clipPath id="clip0_4718_12798">
<rect width="20" height="20" fill="white"/>
</clipPath>
</defs>
</svg>
