<svg width="32" height="32" viewBox="0 0 20 16" fill="none" xmlns="http://www.w3.org/2000/svg">
<g clip-path="url(#clip0_4718_12768)">
<path d="M16.6975 1.75103C15.432 1.15892 14.0932 0.738206 12.7165 0.5C12.545 0.810025 12.3447 1.22701 12.2065 1.55874C10.7222 1.33555 9.25153 1.33555 7.7945 1.55874C7.65641 1.22709 7.45153 0.810025 7.27847 0.5C5.90042 0.738316 4.5605 1.1601 3.29442 1.75412C0.775025 5.56133 0.0920347 9.27387 0.433492 12.9339C2.10452 14.1817 3.72392 14.9398 5.31603 15.4359C5.71171 14.8917 6.06148 14.3156 6.36173 13.7136C5.79009 13.4959 5.23901 13.2277 4.71505 12.9122C4.85294 12.81 4.98758 12.7035 5.11877 12.5928C8.29379 14.0779 11.7436 14.0779 14.8808 12.5928C15.0126 12.7027 15.1472 12.8092 15.2845 12.9122C14.7597 13.2286 14.2076 13.4973 13.6348 13.7152C13.9367 14.3197 14.2859 14.8963 14.6805 15.4374C16.2741 14.9414 17.895 14.1833 19.566 12.9339C19.9667 8.69105 18.8816 5.01259 16.6975 1.75103ZM6.79432 10.683C5.84118 10.683 5.05952 9.79322 5.05952 8.70967C5.05952 7.62613 5.82452 6.7348 6.79432 6.7348C7.76419 6.7348 8.54578 7.62455 8.52912 8.70967C8.53063 9.79322 7.76419 10.683 6.79432 10.683ZM13.2052 10.683C12.2521 10.683 11.4705 9.79322 11.4705 8.70967C11.4705 7.62613 12.2354 6.7348 13.2052 6.7348C14.1751 6.7348 14.9567 7.62455 14.94 8.70967C14.94 9.79322 14.1751 10.683 13.2052 10.683Z" fill="#5865F2"/>
</g>
<defs>
<clipPath id="clip0_4718_12768">
<rect width="19.2965" height="15" fill="white" transform="translate(0.351562 0.5)"/>
</clipPath>
</defs>
</svg>
