<svg width="22" height="20" viewBox="0 0 22 20" fill="none" xmlns="http://www.w3.org/2000/svg">
<g clip-path="url(#clip0_4718_12778)">
<path d="M21.1725 0L12.0186 6.77325L13.7208 2.78158L21.1725 0Z" fill="#E17726"/>
<path d="M0.849371 0.0078125L8.28112 2.7819L9.89745 6.8259L0.849371 0.0078125ZM17.4885 14.4046L21.5344 14.4816L20.1204 19.2851L15.1835 17.9259L17.4885 14.4046ZM4.5117 14.4046L6.80812 17.9259L1.87954 19.2852L0.474121 14.4816L4.5117 14.4046Z" fill="#E27625"/>
<path d="M9.67776 5.79591L9.84309 11.1362L4.89551 10.9111L6.30284 8.78791L6.32067 8.76749L9.67776 5.79591ZM12.2713 5.73633L15.6797 8.76766L15.6973 8.788L17.1047 10.9112L12.1582 11.1362L12.2713 5.73633ZM6.95309 14.4202L9.65459 16.5252L6.51642 18.0402L6.95309 14.4202ZM15.0478 14.4199L15.4753 18.0403L12.3459 16.525L15.0478 14.4199Z" fill="#E27625"/>
<path d="M12.4148 16.3271L15.5904 17.8648L12.6365 19.2686L12.6671 18.3408L12.4148 16.3271ZM9.58421 16.3278L9.3418 18.3256L9.36171 19.2676L6.40088 17.8648L9.58421 16.3278Z" fill="#D5BFB2"/>
<path d="M8.66729 11.833L9.49713 13.577L6.67188 12.7493L8.66729 11.833ZM13.3327 11.8332L15.3375 12.7493L12.503 13.5768L13.3327 11.8332Z" fill="#233447"/>
<path d="M7.16907 14.4028L6.7124 18.1561L4.26465 14.4849L7.16907 14.4028ZM14.8316 14.4029L17.7361 14.4849L15.2791 18.1563L14.8316 14.4029ZM17.1762 10.6992L15.0625 12.8535L13.4327 12.1087L12.6525 13.7491L12.141 10.9283L17.1762 10.6992ZM4.82315 10.6992L9.8594 10.9283L9.34782 13.7491L8.5674 12.109L6.94631 12.8536L4.82315 10.6992Z" fill="#CC6228"/>
<path d="M4.68066 10.2573L7.07216 12.684L7.155 15.0798L4.68066 10.2573ZM17.3221 10.2529L14.8432 15.084L14.9366 12.684L17.3221 10.2529ZM9.74241 10.4051L9.83866 11.0109L10.0765 12.5202L9.92358 17.1556L9.20066 13.4318L9.20041 13.3933L9.74241 10.4051ZM12.2567 10.3967L12.8001 13.3933L12.7998 13.4318L12.0751 17.1649L12.0464 16.2312L11.9333 12.4927L12.2567 10.3967Z" fill="#E27525"/>
<path d="M15.1491 12.5869L15.0682 14.6684L12.5454 16.634L12.0354 16.2737L12.607 13.3291L15.1491 12.5869ZM6.85986 12.5869L9.39311 13.3291L9.96478 16.2737L9.45478 16.634L6.93186 14.6682L6.85986 12.5869Z" fill="#F5841F"/>
<path d="M5.91846 17.4053L9.14612 18.9346L9.13246 18.2815L9.40254 18.0444H12.597L12.8769 18.2807L12.8562 18.9333L16.0635 17.4091L14.5028 18.6988L12.6157 19.9949H9.37662L7.49079 18.6934L5.91846 17.4053Z" fill="#C0AC9D"/>
<path d="M12.1837 16.123L12.64 16.4455L12.9074 18.5791L12.5204 18.2524H9.48074L9.10107 18.5857L9.35974 16.4456L9.81624 16.123H12.1837Z" fill="#161616"/>
<path d="M20.568 0.1875L21.6668 3.48392L20.9806 6.817L21.4692 7.19392L20.808 7.69842L21.305 8.08225L20.6469 8.6815L21.0509 8.97408L19.9787 10.2262L15.5812 8.94583L15.5432 8.92542L12.3742 6.25225L20.568 0.1875ZM1.43233 0.1875L9.62616 6.25225L6.45716 8.92542L6.41908 8.94583L2.02158 10.2262L0.949413 8.97408L1.35308 8.68175L0.695413 8.08225L1.19141 7.69883L0.520246 7.19292L1.02733 6.81575L0.333496 3.48408L1.43233 0.1875Z" fill="#763E1A"/>
<path d="M15.366 8.66627L20.0254 10.0228L21.5392 14.6883H17.5455L14.7938 14.723L16.795 10.8223L15.366 8.66627ZM6.63399 8.66627L5.20474 10.8223L7.20616 14.723L4.45574 14.6883H0.469238L1.97449 10.0229L6.63399 8.66627ZM13.9487 2.75977L12.6454 6.27968L12.3688 11.0347L12.263 12.5251L12.2546 16.3324H9.74532L9.73716 12.5323L9.63099 11.0334L9.35432 6.27968L8.05124 2.75977H13.9487Z" fill="#F5841F"/>
</g>
<defs>
<clipPath id="clip0_4718_12778">
<rect width="21.3333" height="20" fill="white" transform="translate(0.333496)"/>
</clipPath>
</defs>
</svg>
