<svg width="21" height="20" viewBox="0 0 21 20" fill="none" xmlns="http://www.w3.org/2000/svg">
<g clip-path="url(#clip0_4718_12793)">
<path d="M4.59442 6.31372C7.85597 3.16105 13.144 3.16105 16.4056 6.31372L16.7981 6.69315C16.9612 6.85079 16.9612 7.10635 16.7981 7.264L15.4553 8.56194C15.3738 8.64077 15.2416 8.64077 15.16 8.56194L14.6199 8.03979C12.3445 5.84042 8.65546 5.84042 6.38011 8.03979L5.80163 8.59896C5.72008 8.6778 5.58788 8.6778 5.50635 8.59896L4.16357 7.30102C4.00049 7.14338 4.00049 6.88782 4.16357 6.73017L4.59442 6.31372ZM19.1826 8.99803L20.3776 10.1532C20.5407 10.3108 20.5407 10.5664 20.3776 10.724L14.989 15.9329C14.8259 16.0905 14.5615 16.0905 14.3984 15.9329L10.5738 12.236C10.5331 12.1966 10.467 12.1966 10.4262 12.236L6.60172 15.9329C6.43864 16.0905 6.17423 16.0905 6.01115 15.9329L0.622308 10.724C0.459231 10.5664 0.459231 10.3108 0.622308 10.1531L1.81739 8.99795C1.98047 8.84032 2.24487 8.84032 2.40795 8.99795L6.23257 12.6949C6.27333 12.7343 6.33943 12.7343 6.38021 12.6949L10.2046 8.99795C10.3677 8.84032 10.6321 8.8403 10.7952 8.99795L14.6198 12.6949C14.6606 12.7343 14.7267 12.7343 14.7675 12.6949L18.592 8.99803C18.7551 8.84039 19.0195 8.84039 19.1826 8.99803Z" fill="#5570FF"/>
</g>
<defs>
<clipPath id="clip0_4718_12793">
<rect width="20" height="12.1019" fill="white" transform="translate(0.5 3.94922)"/>
</clipPath>
</defs>
</svg>
