<svg width="15" height="16" viewBox="0 0 15 16" fill="none" xmlns="http://www.w3.org/2000/svg">
<path d="M14.2775 14.5398L9.38688 6.85391L14.2127 1.54531C14.3218 1.42228 14.378 1.2612 14.3692 1.09697C14.3604 0.932746 14.2872 0.778621 14.1655 0.668012C14.0437 0.557404 13.8833 0.499225 13.719 0.50609C13.5547 0.512956 13.3997 0.584312 13.2877 0.704687L8.69078 5.76094L5.5275 0.789844C5.47109 0.701058 5.39319 0.627946 5.30101 0.57728C5.20882 0.526613 5.10535 0.500033 5.00016 0.5H1.25016C1.1381 0.499946 1.02808 0.530021 0.931632 0.587078C0.835183 0.644135 0.755849 0.726073 0.701936 0.824314C0.648024 0.922555 0.621516 1.03348 0.625189 1.14548C0.628862 1.25749 0.66258 1.36644 0.722813 1.46094L5.61344 9.14609L0.787657 14.4586C0.731303 14.5191 0.687524 14.5902 0.658858 14.6678C0.630193 14.7454 0.617209 14.8279 0.620662 14.9105C0.624115 14.9932 0.643934 15.0743 0.678971 15.1492C0.714009 15.2241 0.763567 15.2914 0.824775 15.347C0.885982 15.4026 0.957621 15.4455 1.03554 15.4733C1.11346 15.501 1.19611 15.513 1.27869 15.5085C1.36128 15.5041 1.44216 15.4833 1.51666 15.4474C1.59115 15.4114 1.65777 15.3611 1.71266 15.2992L6.30953 10.243L9.47281 15.2141C9.52968 15.3021 9.60779 15.3745 9.69994 15.4244C9.79209 15.4744 9.89533 15.5004 10.0002 15.5H13.7502C13.8621 15.5 13.972 15.4699 14.0683 15.4128C14.1646 15.3558 14.2439 15.274 14.2978 15.1759C14.3517 15.0778 14.3782 14.967 14.3746 14.8551C14.3711 14.7432 14.3375 14.6343 14.2775 14.5398ZM10.3431 14.25L2.38844 1.75H4.65406L12.6119 14.25H10.3431Z" fill="#343330"/>
</svg>
